<svg xmlns="http://www.w3.org/2000/svg" viewBox="0 0 619 110.33"><defs><style>.cls-1{fill:#9e305b;opacity:0.2;}.cls-2{fill:none;stroke:#9e305b;stroke-miterlimit:10;stroke-width:2px;}</style></defs><title>0fl_2</title><g id="Слой_2" data-name="Слой 2"><g id="Слой_1-2" data-name="Слой 1"><path class="cls-1" d="M592,73.81V0H25V92.2l2-.51V90.06L116.55,1h12.7L41.06,88.77l1.73-.31L88.08,43.39,130.67,1h12.7L125.81,18.49,57.61,86.41l1.6-.18,64.93-64.65L144.79,1h12.7l-61,60.79L73,85.13l1.5-.08L97.09,62.58,158.91,1h12.7L87.68,84.65H89.1L100.58,73.2,173,1h12.7L109.48,77l-7.81,7.78,1.38,0L110.9,77,187.15,1h12.7L123.6,77l-8.39,8.36,1.33.09L125,77,201.27,1H214L137.72,77l-9.35,9.32,1.3.11L139.14,77,215.39,1h12.7L151.84,77,141.25,87.56l1.28.14L153.26,77,229.51,1h12.7L166,77,153.9,89l1.26.16L167.38,77,243.62,1h12.7L180.08,77,166.39,90.65l1.24.17L181.49,77,257.74,1h12.7L194.2,77,178.74,92.41l1.23.18L195.61,77,271.86,1h12.7L208.32,77,191,94.26l1.23.19L209.73,77,286,1h12.7L222.43,77,203.21,96.16l1.22.19L223.85,77,300.1,1h12.7L236.55,77,215.41,98.08l1.22.19L238,77,314.22,1h12.7L250.67,77l-23.06,23,1.23.19L252.09,77,328.34,1H341L264.79,77l-24.92,24.84,1.23.18,25.1-25L342.46,1h12.7L278.91,77l-26.7,26.62,1.24.17L280.33,77,356.57,1h12.7L293,77l-28.37,28.28,1.26.16L294.45,77,370.69,1h12.7L307.15,77l-29.88,29.79,1.28.14,30-29.92L384.81,1h12.7L321.27,77l-31.2,31.1,1.3.12L322.68,77,398.93,1h12.7L335.39,77l-32.27,32.16,1.32.09L336.8,77,413,1h12.7L349.5,77l-33,32.93,1.35.06,33.1-33L427.17,1h12.7L363.62,77,330.2,110.32h1.41L365,77,441.29,1H454L377.74,77l-33.35,33.24,1.45,0L379.16,77,455.41,1h12.7L391.86,77l-32.74,32.63,1.52-.1L393.28,77,469.53,1h12.7L406,77,374.5,108.38l1.59-.17L407.4,77,483.64,1h12.7L420.1,77l-29.49,29.4,1.66-.24L421.51,77,497.76,1h12.7L434.22,77l-26.68,26.59,1.75-.33L435.63,77,511.88,1h12.7L448.34,77l-23,22.9,1.83-.42L449.75,77,526,1h12.7L462.45,77,444,95.35l1.92-.5L463.87,77,540.12,1h12.7L476.57,77,463.35,90.18l2-.54L478,77,554.24,1h12.7L490.69,77l-7.88,7.85,1.94-.52L492.11,77,568.36,1h12.7L504.81,77l-3,3,1.86-.44L506.23,77,582.48,1H591V4.68L519.46,76.22l1.73-.32L591,6.1V18.8L536.21,73.59l1.6-.19L591,20.21v12.7L551.73,72.19l1.49-.08L591,34.33V47L566.16,71.88l1.39,0L591,48.45V61.16L579.66,72.49l1.31.11,10-10V73.68ZM27,1h3.33l-.49.44L27,4Zm0,4.36L30.75,2l1.08-1h12.7L39,6.42,27,18.07Zm0,14.11L40.17,6.64,46,1h12.7L27,32.18Zm0,14.12L54,7l6.07-6h12.7L27,46.29ZM27,47.7,59.66,15.38,74.2,1H86.9L27,60.41Zm0,14.12,27.72-27.5L88.32,1H101L68,33.83,27,74.53Zm30.65-3.65L27,88.65V75.94L68.86,34.35,102.43,1h12.7Z"/><path class="cls-2" d="M26,92V1H1v99"/><path class="cls-2" d="M618,79V1H592V74"/><line class="cls-2" x1="1" y1="1" x2="618" y2="1"/></g></g></svg>