<svg xmlns="http://www.w3.org/2000/svg" viewBox="0 0 619 143"><defs><style>.cls-1,.cls-2{fill:none;stroke:#9e305b;stroke-miterlimit:10;}.cls-2{stroke-width:2px;}</style></defs><title>1st</title><g id="Слой_2" data-name="Слой 2"><g id="Слой_1-2" data-name="Слой 1"><path class="cls-1" d="M312.92,7.72l1.76-2.65a1.47,1.47,0,0,1,1.38-.58h16.05a1.47,1.47,0,0,1,1.38.58l1.73,2.7a.75.75,0,0,1,0,.88L333.32,11a1.64,1.64,0,0,1-1.45.52H315.92a1.65,1.65,0,0,1-1.54-.68L312.91,8.5A.67.67,0,0,1,312.92,7.72Z"/><path class="cls-1" d="M315.5,11.5h17a0,0,0,0,1,0,0V14A1.48,1.48,0,0,1,331,15.5H317A1.53,1.53,0,0,1,315.5,14V11.5A0,0,0,0,1,315.5,11.5Z"/><path class="cls-1" d="M317,129.5H330.7a1.8,1.8,0,0,1,1.8,1.8v2.2a0,0,0,0,1,0,0h-17a0,0,0,0,1,0,0V131A1.53,1.53,0,0,1,317,129.5Z"/><path class="cls-1" d="M317.26.5h14.46a.78.78,0,0,1,.78.78V4.5a0,0,0,0,1,0,0h-17a0,0,0,0,1,0,0V2.26A1.76,1.76,0,0,1,317.26.5Z"/><rect class="cls-1" x="316.5" y="15.5" width="15" height="114"/><path class="cls-1" d="M437.08,7.72l1.76-2.65a1.47,1.47,0,0,1,1.38-.58h16.05a1.47,1.47,0,0,1,1.38.58l1.73,2.7a.75.75,0,0,1,0,.88L457.48,11a1.64,1.64,0,0,1-1.45.52H440.08a1.65,1.65,0,0,1-1.54-.68L437.07,8.5A.67.67,0,0,1,437.08,7.72Z"/><path class="cls-1" d="M439.5,11.5h17a0,0,0,0,1,0,0V14A1.48,1.48,0,0,1,455,15.5H441.19a1.69,1.69,0,0,1-1.69-1.69V11.5A0,0,0,0,1,439.5,11.5Z"/><path class="cls-1" d="M441,129.5H454.7a1.8,1.8,0,0,1,1.8,1.8v2.2a0,0,0,0,1,0,0h-17a0,0,0,0,1,0,0V131A1.54,1.54,0,0,1,441,129.5Z"/><path class="cls-1" d="M441.42.5h14.3a.78.78,0,0,1,.78.78V4.5a0,0,0,0,1,0,0h-17a0,0,0,0,1,0,0V2.42A1.92,1.92,0,0,1,441.42.5Z"/><rect class="cls-1" x="441.5" y="15.5" width="14" height="114"/><polyline class="cls-2" points="23 0 23 117 3 117 3 0"/><polyline class="cls-2" points="192 0 192 117 157 117 157 0"/><path class="cls-1" d="M32.5,121.5V36.13c0-13,10.93-23.63,24.37-23.63h68.22A23.11,23.11,0,0,1,148.5,35.8v85.7Z"/><path class="cls-1" d="M56.13,17.5H125.2a18.3,18.3,0,0,1,18.3,18.3v80.7a0,0,0,0,1,0,0H37.5a0,0,0,0,1,0,0V36.13A18.63,18.63,0,0,1,56.13,17.5Z"/><polygon class="cls-2" points="155 117 155 135 26 135 26 117 1 117 1 142 23.27 142 26.88 142 155.46 142 161.33 142 196 142 196 117 155 117"/><path class="cls-1" d="M384.43,17.5h-.24c7.95,0,14.31,6,14.31,13.93V129.5h-29V31.43C369.5,23.49,376.48,17.5,384.43,17.5Z"/><line class="cls-1" x1="371" y1="33.5" x2="399" y2="33.5"/><path class="cls-1" d="M410.94,55.2"/><path class="cls-1" d="M209.5,133V34.5a18,18,0,0,1,18-18h47.77A19.23,19.23,0,0,1,294.5,35.73V133"/><path class="cls-1" d="M229.26,20.5h45.89A15.35,15.35,0,0,1,290.5,35.85V133.5a0,0,0,0,1,0,0h-77a0,0,0,0,1,0,0V36.26A15.76,15.76,0,0,1,229.26,20.5Z"/><line class="cls-1" x1="290" y1="46.5" x2="213" y2="46.5"/><line class="cls-1" x1="290" y1="107.5" x2="213" y2="107.5"/><path class="cls-1" d="M474.5,133V34.5a18,18,0,0,1,18-18h47.77A19.23,19.23,0,0,1,559.5,35.73V133"/><path class="cls-1" d="M494.26,20.5h45.89A15.35,15.35,0,0,1,555.5,35.85V133.5a0,0,0,0,1,0,0h-77a0,0,0,0,1,0,0V36.26A15.76,15.76,0,0,1,494.26,20.5Z"/><line class="cls-1" x1="555" y1="46.5" x2="478" y2="46.5"/><line class="cls-1" x1="555" y1="107.5" x2="478" y2="107.5"/><line class="cls-2" x1="157" y1="1" x2="23" y2="1"/><line class="cls-2" x1="580" y1="1" x2="192" y2="1"/><polyline class="cls-2" points="618 0 618 142 580 142 580 0"/><line class="cls-2" x1="427" y1="1" x2="427" y2="134"/><line class="cls-2" x1="345" y1="1" x2="345" y2="134"/><rect class="cls-2" x="196" y="134" width="384" height="8"/><rect class="cls-1" x="367.5" y="129.5" width="35" height="4"/></g></g></svg>