<svg xmlns="http://www.w3.org/2000/svg" viewBox="0 0 662 156"><defs><style>.cls-1,.cls-2{fill:none;stroke:#9e305b;stroke-miterlimit:10;}.cls-2{stroke-width:2px;}</style></defs><title>2nd</title><g id="Слой_2" data-name="Слой 2"><g id="Слой_1-2" data-name="Слой 1"><path class="cls-1" d="M626.5,131.5V109.38c0-8.21,8.68-13.69,12.46-15.67l3.63-1.93,3.56,2c3.74,2.05,12.34,7.69,12.34,15.59V131.5Z"/><path class="cls-1" d="M650.5,124.5h-16V109.38c0-4.4,8-8.79,8-8.79s8,4.62,8,8.79Z"/><path class="cls-1" d="M202.5,132V111c0-8.21,8.57-13.69,12.35-15.67l3.58-1.93,3.64,2c3.74,2.05,12.42,7.69,12.42,15.59v21"/><path class="cls-1" d="M226.5,125.5h-17V111c0-4.4,8.5-8.79,8.5-8.79s8.5,4.62,8.5,8.79Z"/><path class="cls-1" d="M40.5,134V111c0-8.21,8.74-13.69,12.52-15.67l3.66-1.93,3.52,2c3.74,2.05,12.3,7.69,12.3,15.59v23"/><path class="cls-1" d="M64.5,125.5h-16V111c0-4.4,8-8.79,8-8.79s8,4.62,8,8.79Z"/><line class="cls-1" x1="137.5" y1="101" x2="137.5" y2="134"/><line class="cls-1" x1="135" y1="107.5" x2="139" y2="107.5"/><line class="cls-1" x1="135" y1="125.5" x2="139" y2="125.5"/><line class="cls-1" x1="337.5" y1="98" x2="337.5" y2="134"/><line class="cls-1" x1="336" y1="107.5" x2="340" y2="107.5"/><line class="cls-1" x1="336" y1="125.5" x2="340" y2="125.5"/><line class="cls-1" x1="396.5" y1="98" x2="396.5" y2="134"/><line class="cls-1" x1="394" y1="107.5" x2="398" y2="107.5"/><line class="cls-1" x1="394" y1="125.5" x2="398" y2="125.5"/><line class="cls-1" x1="463.5" y1="98" x2="463.5" y2="134"/><line class="cls-1" x1="461" y1="107.5" x2="465" y2="107.5"/><line class="cls-1" x1="461" y1="125.5" x2="465" y2="125.5"/><line class="cls-1" x1="521.5" y1="98" x2="521.5" y2="134"/><line class="cls-1" x1="520" y1="107.5" x2="523" y2="107.5"/><line class="cls-1" x1="520" y1="125.5" x2="523" y2="125.5"/><line class="cls-1" x1="77" y1="107.5" x2="80" y2="107.5"/><line class="cls-1" x1="77" y1="125.5" x2="80" y2="125.5"/><line class="cls-1" x1="195" y1="107.5" x2="198" y2="107.5"/><line class="cls-1" x1="195" y1="125.5" x2="198" y2="125.5"/><polyline class="cls-1" points="76.5 134 76.5 101.5 198.5 101.5 198.5 134"/><line class="cls-1" x1="35" y1="106.5" x2="37" y2="106.5"/><line class="cls-1" x1="35" y1="124.5" x2="37" y2="124.5"/><line class="cls-1" x1="9" y1="106.5" x2="11" y2="106.5"/><line class="cls-1" x1="9" y1="124.5" x2="11" y2="124.5"/><polyline class="cls-1" points="8.5 133 8.5 99.5 37.5 99.5 37.5 133"/><line class="cls-2" x1="235" y1="1" x2="15" y2="1"/><path class="cls-1" d="M207.18,7.82l1.76-2.69a1.51,1.51,0,0,1,1.38-.62h16.05a1.51,1.51,0,0,1,1.38.62l1.73,2.72a.77.77,0,0,1,0,.89L227.58,11a1.62,1.62,0,0,1-1.45.48H210.19a1.62,1.62,0,0,1-1.54-.63l-1.47-2.3A.64.64,0,0,1,207.18,7.82Z"/><path class="cls-1" d="M209.5,11.5h17a0,0,0,0,1,0,0v2.61a1.39,1.39,0,0,1-1.39,1.39H211.3a1.8,1.8,0,0,1-1.8-1.8V11.5A0,0,0,0,1,209.5,11.5Z"/><path class="cls-1" d="M211.53.5h14.1a.87.87,0,0,1,.87.87V4.5a0,0,0,0,1,0,0h-17a0,0,0,0,1,0,0v-2A2,2,0,0,1,211.53.5Z"/><polyline class="cls-1" points="211.5 98 211.5 15.5 225.5 15.5 225.5 98"/><path class="cls-1" d="M45.52,7.82l1.76-2.69a1.51,1.51,0,0,1,1.38-.62H64.72a1.51,1.51,0,0,1,1.38.62l1.73,2.72a.77.77,0,0,1,0,.89L65.92,11a1.62,1.62,0,0,1-1.45.48H48.53A1.62,1.62,0,0,1,47,10.87l-1.47-2.3A.64.64,0,0,1,45.52,7.82Z"/><path class="cls-1" d="M48.5,11.5h16a0,0,0,0,1,0,0v2.61a1.39,1.39,0,0,1-1.39,1.39H49.63a1.13,1.13,0,0,1-1.13-1.13V11.5A0,0,0,0,1,48.5,11.5Z"/><path class="cls-1" d="M49.86.5H63.63a.87.87,0,0,1,.87.87V4.5a0,0,0,0,1,0,0h-16a0,0,0,0,1,0,0V1.86A1.36,1.36,0,0,1,49.86.5Z"/><polyline class="cls-1" points="49.5 98 49.5 15.5 63.5 15.5 63.5 98"/><path class="cls-1" d="M268.5,37.39c0-.25-.61-.42-.84-.33C255,42.19,244.5,55.24,244.5,70.54v63h24Z"/><path class="cls-1" d="M599.5,37.39c0-.25.11-.42.34-.33A36.6,36.6,0,0,1,622.5,70.54v63h-23Z"/><line class="cls-2" x1="16" y1="1" x2="16" y2="101"/><polyline class="cls-2" points="46 156 46 132 66 132 66 156"/><polyline class="cls-2" points="200 156 200 132 235 132 235 156"/><rect class="cls-2" x="1" y="134" width="45" height="21"/><rect class="cls-2" x="66" y="134" width="134" height="21"/><rect class="cls-2" x="235" y="134" width="388" height="21"/><polyline class="cls-2" points="623 155 623 132 661 132 661 155"/><line class="cls-2" x1="636" y1="1" x2="636" y2="95"/><line class="cls-2" x1="584" y1="134" x2="584" y2="1"/><line class="cls-1" x1="599" y1="67.5" x2="622" y2="67.5"/><line class="cls-1" x1="599" y1="110.5" x2="622" y2="110.5"/><line class="cls-1" x1="268" y1="71.5" x2="244" y2="71.5"/><line class="cls-1" x1="244" y1="110.5" x2="268" y2="110.5"/><path class="cls-1" d="M110.21,30.5h0A18.29,18.29,0,0,1,128.5,48.79V133.5a0,0,0,0,1,0,0h-36a0,0,0,0,1,0,0V48.21A17.71,17.71,0,0,1,110.21,30.5Z"/><line class="cls-1" x1="92" y1="48.5" x2="128" y2="48.5"/><path class="cls-1" d="M183.5,133.5h-36V48.18c0-10,8.68-17.68,18.68-17.68H166c10,0,17.49,7.68,17.49,17.68Z"/><line class="cls-1" x1="147" y1="48.5" x2="183" y2="48.5"/><path class="cls-2" d="M485,134H439V34.76C439,22.17,450.08,13,462.67,13h-.08C475.18,13,485,22.17,485,34.76Z"/><path class="cls-2" d="M520.2,16h0A18.8,18.8,0,0,1,539,34.8V134a0,0,0,0,1,0,0H501a0,0,0,0,1,0,0V35.2A19.2,19.2,0,0,1,520.2,16Z"/><path class="cls-2" d="M563,21.67c-6.84,0-10,16.44-10,28.56V134h20V50C573,35.14,569.84,21.67,563,21.67Z"/><line class="cls-1" x1="439" y1="36.5" x2="485" y2="36.5"/><line class="cls-1" x1="501.77" y1="38.7" x2="539.27" y2="41.71"/><line class="cls-1" x1="554.18" y1="45.16" x2="572.67" y2="48.18"/><path class="cls-2" d="M373,134h46V34.76C419,22.17,409.3,13,396.71,13h.08C384.2,13,373,22.17,373,34.76Z"/><path class="cls-2" d="M319,16h38a0,0,0,0,1,0,0v98.65A19.35,19.35,0,0,1,337.65,134h0A18.65,18.65,0,0,1,319,115.35V16a0,0,0,0,1,0,0Z" transform="translate(676 150) rotate(180)"/><path class="cls-2" d="M295,21.67c6.84,0,10,16.44,10,28.56V134H285V50C285,35.14,288.16,21.67,295,21.67Z"/><line class="cls-1" x1="420" y1="36.5" x2="374" y2="36.5"/><line class="cls-1" x1="356.62" y1="38.7" x2="319.11" y2="41.71"/><line class="cls-1" x1="305.21" y1="45.16" x2="285.72" y2="49.18"/><polyline class="cls-1" points="238.5 134 238.5 98.5 622 98.5"/><line class="cls-2" x1="276" y1="134" x2="276" y2="1"/><line class="cls-1" x1="234.5" y1="1" x2="234.5" y2="112"/><line class="cls-1" x1="284" y1="107.5" x2="288" y2="107.5"/><line class="cls-1" x1="284" y1="125.5" x2="288" y2="125.5"/><line class="cls-1" x1="108.5" y1="49" x2="108.5" y2="102"/><line class="cls-1" x1="165.5" y1="49" x2="165.5" y2="102"/></g></g></svg>