<svg xmlns="http://www.w3.org/2000/svg" viewBox="0 0 636 108"><defs><style>.cls-1,.cls-2,.cls-3{fill:none;stroke:#9e305b;}.cls-1,.cls-2{stroke-miterlimit:10;}.cls-2{stroke-width:2px;}.cls-4{fill:#9e305b;}</style></defs><title>3rd</title><g id="Слой_2" data-name="Слой 2"><g id="Слой_1-2" data-name="Слой 1"><path class="cls-1" d="M36.5,89.5V64.94c0-7.36,8-12.58,10.5-14L50.32,49l3,2c3.12,1.9,10.15,7.05,10.15,13.93V89.5Z"/><path class="cls-1" d="M57.5,83.5h-14V64.94c0-4.2,7-8.41,7-8.41s7,4.42,7,8.41Z"/><path class="cls-1" d="M180.5,89.5V64.94c0-7.36,7.82-12.58,10.28-14L194,49l3.2,2c3.12,1.9,10.31,7.05,10.31,13.93V89.5Z"/><path class="cls-1" d="M201.5,83.5h-15V64.94c0-4.2,7.5-8.41,7.5-8.41s7.5,4.42,7.5,8.41Z"/><line class="cls-1" x1="104.5" y1="55" x2="104.5" y2="89"/><line class="cls-1" x1="102" y1="62.5" x2="106" y2="62.5"/><line class="cls-1" x1="102" y1="80.5" x2="106" y2="80.5"/><line class="cls-1" x1="67" y1="62.5" x2="70" y2="62.5"/><line class="cls-1" x1="67" y1="80.5" x2="70" y2="80.5"/><line class="cls-1" x1="31" y1="62.5" x2="34" y2="62.5"/><line class="cls-1" x1="31" y1="80.5" x2="34" y2="80.5"/><line class="cls-1" x1="8" y1="62.5" x2="10" y2="62.5"/><line class="cls-1" x1="8" y1="80.5" x2="10" y2="80.5"/><line class="cls-1" x1="175" y1="62.5" x2="177" y2="62.5"/><line class="cls-1" x1="175" y1="80.5" x2="177" y2="80.5"/><line class="cls-1" x1="140.5" y1="55" x2="140.5" y2="89"/><line class="cls-1" x1="138" y1="62.5" x2="142" y2="62.5"/><line class="cls-1" x1="138" y1="80.5" x2="142" y2="80.5"/><polyline class="cls-1" points="66.5 89 66.5 55.5 177.5 55.5 177.5 89"/><polyline class="cls-1" points="7.5 89 7.5 55.5 34.5 55.5 34.5 89"/><line class="cls-1" x1="234" y1="62.5" x2="237" y2="62.5"/><line class="cls-1" x1="234" y1="80.5" x2="237" y2="80.5"/><line class="cls-1" x1="211" y1="62.5" x2="213" y2="62.5"/><line class="cls-1" x1="211" y1="80.5" x2="213" y2="80.5"/><polyline class="cls-1" points="210.5 89 210.5 55.5 237.5 55.5 237.5 89"/><path class="cls-1" d="M77,86.28"/><rect class="cls-2" x="1" y="90" width="240" height="17"/><line class="cls-2" x1="237" y1="81" x2="276" y2="81"/><polyline class="cls-2" points="583 107 583 77 635 77 635 107"/><line class="cls-2" x1="583" y1="23" x2="583" y2="77"/><polyline class="cls-2" points="275 23 288 23 288 63 310 63 310 99 552 99 552 64 572 64 572 23 583 23"/><line class="cls-2" x1="275" y1="108" x2="275" y2="23"/><rect class="cls-3" x="272.5" y="17.5" width="315" height="5"/><rect class="cls-3" x="268.5" y="11.5" width="323" height="6"/><rect class="cls-3" x="264.5" y="1.5" width="331" height="10"/><rect class="cls-1" x="272.5" y="17.5" width="315" height="5"/><rect class="cls-1" x="268.5" y="11.5" width="323" height="6"/><rect class="cls-1" x="264.5" y="1.5" width="331" height="10"/><path class="cls-4" d="M596,1V12h-4v6h-4v5H272V18h-4V12h-4V1H596m1-1H263V13h4v6h4v5H589V19h4V13h4V0Z"/><line class="cls-1" x1="364.5" y1="22" x2="364.5" y2="1"/><line class="cls-1" x1="428.5" y1="22" x2="428.5" y2="1"/><line class="cls-1" x1="492.5" y1="22" x2="492.5" y2="1"/><line class="cls-1" x1="551.5" y1="64" x2="551.5" y2="22"/><line class="cls-1" x1="310.5" y1="64" x2="310.5" y2="22"/><rect class="cls-1" x="426.5" y="22.5" width="5" height="76"/><rect class="cls-1" x="489.5" y="22.5" width="5" height="76"/><rect class="cls-1" x="361.5" y="22.5" width="5" height="76"/></g></g></svg>