<svg xmlns="http://www.w3.org/2000/svg" viewBox="0 0 34.03 23.81"><defs><style>.РЎС‚РёР»СЊ-РіСЂР°С„РёРєРё-11{fill:#d9a65f;}</style></defs><title>belarus</title><g id="Слой_2" data-name="Слой 2"><g id="Слой_1-2" data-name="Слой 1"><polygon class="РЎС‚РёР»СЊ-РіСЂР°С„РёРєРё-11" points="18.02 0.09 16.65 1.35 16.3 1.68 15.83 1.74 13.84 2 13.17 3.35 12.72 4.8 12.59 5.23 12.24 5.51 10.95 6.57 9.22 8.2 8.73 9.75 8.5 10.5 7.76 10.73 5.2 11.55 3.23 12.47 2.88 12.64 2.49 12.61 1.37 12.53 1.68 14.04 1.7 14.15 1.71 14.27 1.89 17.8 1.93 18.52 1.38 19 0 20.23 0.65 21.22 0.91 21.62 0.89 22.09 0.88 22.4 0.95 22.38 3.4 20.93 3.84 20.67 4.34 20.73 11.35 21.58 11.38 21.58 11.4 21.59 15.15 22.19 17.85 22.54 20.48 22.78 20.64 22.8 20.8 22.85 23.28 23.64 25.88 23.81 26.15 23.32 26.23 23.16 26.36 23.02 28.77 20.37 29.11 20.01 29.59 19.91 30.52 19.72 30.49 19.65 30.44 19.52 30.42 19.39 29.79 15.59 29.45 13.54 31.5 13.86 33.69 14.2 34.03 13.89 32.97 12.91 30.59 10.63 30.5 10.54 30.43 10.45 28.53 7.91 28.31 7.61 28.25 7.24 27.79 4.34 27.55 2.38 24.9 1.52 22.94 1.52 22.6 1.52 22.29 1.47 20.32 0.58 18.26 0 18.21 0 18.02 0.09"/></g></g></svg>