<svg xmlns="http://www.w3.org/2000/svg" viewBox="0 0 28.92 44.6"><defs><style>.РЎС‚РёР»СЊ-РіСЂР°С„РёРєРё-11{fill:#d9a65f;}</style></defs><title>bretain</title><g id="Слой_2" data-name="Слой 2"><g id="Слой_1-2" data-name="Слой 1"><polygon class="РЎС‚РёР»СЊ-РіСЂР°С„РёРєРё-11" points="7.4 44.6 8.65 43.36 9 43.01 9.49 42.94 12.35 42.53 15.46 41.65 15.83 41.54 16.21 41.63 19.17 42.34 23.28 41.58 26.05 40.44 26.15 39.65 26.45 37.23 26.5 36.78 26.8 36.44 28.92 33.98 26.6 32.84 24.86 32.63 23.57 32.48 23.54 31.18 23.49 29.34 22.36 27.44 19.3 22.52 19.28 22.48 19.26 22.44 16.7 17.77 14.53 16.14 11.21 15.6 9.13 15.26 10.14 13.4 11.56 10.8 13.79 5.73 8.43 5.47 7.87 5.44 7.46 5.06 6.07 3.73 5.01 2.72 6 1.63 7.49 0 5.34 0.03 3.27 2.84 1.48 5.58 1.42 5.67 1.34 5.76 0.79 6.38 1.56 7.01 1.02 8.09 0 10.13 1.41 11.54 2.56 12.7 2.7 12.5 4.99 9.39 5.4 13.23 5.64 15.45 9.56 18.63 9.65 18.7 9.73 18.79 10.82 20 11.06 20.27 11.16 20.62 11.75 22.88 12.67 24.16 13.01 24.62 12.95 25.19 12.59 28.87 12.46 30.16 11.16 30.22 7.33 30.39 6.8 30.67 6.37 31.57 7.69 32.42 9.54 33.62 7.73 34.9 5.21 36.69 5.3 36.78 7.2 37.21 11.43 37.8 12.33 37.93 12.63 38.79 12.99 39.82 13.61 41.56 11.78 41.8 7.84 42.33 6.19 44.36 7.4 44.6"/></g></g></svg>