<svg xmlns="http://www.w3.org/2000/svg" viewBox="0 0 20.98 9.31"><defs><style>.РЎС‚РёР»СЊ-РіСЂР°С„РёРєРё-11{fill:#d9a65f;}</style></defs><title>chech</title><g id="Слой_2" data-name="Слой 2"><g id="Слой_1-2" data-name="Слой 1"><polygon class="РЎС‚РёР»СЊ-РіСЂР°С„РёРєРё-11" points="20.74 5.36 18.58 4.83 18.05 4.69 17.73 4.25 17.21 3.53 15.84 3.77 15.39 3.85 14.98 3.67 12.82 2.72 12.68 2.66 12.56 2.58 9.91 0.72 8.67 0 8.21 0.02 6.33 0.1 3.25 1.51 3.2 1.53 3.16 1.55 0 2.76 0.1 3.58 1.23 6.45 5.08 9.31 6.68 9.22 7.02 8.26 7.51 6.89 8.89 7.34 12.53 8.51 15.5 8.9 15.6 8.91 15.6 8.91 15.8 8.68 16.07 8.54 19.81 6.67 20.98 5.71 20.74 5.36"/></g></g></svg>