<svg xmlns="http://www.w3.org/2000/svg" viewBox="0 0 241.02 162.96"><defs><style>.cls-1{fill:#d9a65f;}</style></defs><title>china</title><g id="Слой_2" data-name="Слой 2"><g id="Слой_1-2" data-name="Слой 1"><polygon class="cls-1" points="140.88 160.63 139.2 162.96 142.05 162.81 142.97 160.78 140.88 160.63"/><polygon class="cls-1" points="231.76 41.19 232.06 40.91 232.39 40.91 235.25 40.91 236.73 39.01 239.05 36.06 241.02 31.38 240.95 29.47 239.23 29.03 235.68 30.32 235.6 30.35 235.51 30.38 231.89 31.22 231.43 31.33 231 31.16 227.01 29.59 226.29 29.3 226.1 28.54 225.4 25.62 223.09 24.08 219.15 22.34 215.21 20.91 214.76 20.74 214.49 20.34 212.92 18.05 212.83 17.92 212.78 17.78 210.74 12.88 208.35 8.09 206.51 4.54 204.26 1.98 199.82 0.68 195.51 0 189.83 0.46 186.03 1.69 186.15 2.42 187.29 5.16 187.65 6.03 187.03 6.73 185.29 8.7 182.88 12.38 180.99 16.5 180.88 16.75 180.69 16.94 178.88 18.75 178.72 18.91 178.52 19.01 174.66 21.07 174.13 21.34 173.56 21.19 169.66 20.12 167.25 24.95 167.02 26.8 167.01 26.89 166.99 26.97 166.9 27.33 169.31 27.48 169.36 27.48 169.41 27.49 173.16 27.99 176.9 27.49 177.66 27.39 178.19 27.94 183.45 33.46 185.5 35.62 182.55 35.99 178.4 36.51 173.34 37.52 168.72 39.46 165.24 42.7 164.98 42.94 164.65 43.04 158.6 44.88 158.45 44.93 158.29 44.94 151.84 45.46 149.42 46.1 150.16 49.43 150.36 50.35 149.62 50.94 144.63 54.88 144.47 55 144.29 55.08 136.92 58.24 136.66 58.35 136.38 58.36 127.51 58.61 120.71 62.14 120.03 62.49 119.35 62.15 116.34 60.64 112.3 59.63 107.84 58.58 100.64 57.04 91.05 56.78 90.99 56.78 90.94 56.78 85.68 56.25 84.9 56.17 84.52 55.49 82.24 51.44 79.31 48.26 76.86 46.55 74.03 44.84 65.06 42.64 63.56 42.27 63.97 40.79 64.85 37.59 65.06 34.18 63.31 31.69 60.07 29.07 56.51 27.13 56.24 26.98 56.04 26.73 53.12 22.97 53.07 22.9 52.38 22.79 52.12 22.75 51.45 24.01 51.38 24.12 51.31 24.22 49.55 26.48 49.53 26.51 49.5 26.54 47.3 29.09 47.76 31.64 47.98 32.88 46.8 33.32 42.95 34.74 42.64 34.85 42.3 35.03 38.61 34.91 37.01 34.91 35.11 41.08 35.11 42.77 35.11 44.71 33.13 44.22 30.49 43.56 27.26 44.18 26.02 45.02 26.64 47.46 28.25 51.92 28.51 52.66 28.06 53.29 26.11 56.05 25.88 58.21 25.79 59.02 25.06 59.39 21.47 61.18 18.34 62.97 15.06 64.79 14.92 64.87 14.76 64.92 11.26 65.94 9.01 67.44 8.41 67.84 7.72 67.62 5.65 66.96 3.85 67.56 1.74 68.91 0.37 69.73 0 70.85 0.46 73.39 3.94 75.62 4.52 75.98 4.62 76.66 5.36 81.69 8.49 84.23 8.66 84.37 8.79 84.55 10.66 87.32 12.53 88.31 12.82 88.29 14.43 88.12 15.06 88.06 15.55 88.47 15.67 88.58 19.38 86.44 20.29 85.93 21.09 86.59 25.79 90.48 26.95 91.44 25.99 92.6 21.92 97.49 21.52 97.96 20.92 98.02 20.49 98.07 22.29 100.9 23.12 102.2 21.8 102.99 19.73 104.24 19.32 105 20.3 107.17 23.26 109.29 29.59 112.48 32.64 113.08 32.97 113.14 33.24 113.34 41.42 119.3 48.98 122.34 54.06 123.29 54.35 123.29 55.27 122.6 56.58 121.6 57.45 123.01 57.96 123.83 60.73 122.14 61.21 121.86 61.76 121.94 65.11 122.49 65.18 122.5 65.26 122.52 69.53 123.69 70.22 123.45 71.9 121.9 73.49 120.31 73.61 120.2 73.75 120.11 77.3 117.85 77.64 117.64 78.05 117.62 82.8 117.46 84.8 117.15 85.81 117 86.32 117.88 87.73 120.26 88.96 120.93 89.58 120.57 90.27 120.87 92.99 122.05 93.55 122.29 93.78 122.86 94.61 124.92 96.09 126.73 96.52 127.26 96.41 127.93 95.41 133.91 95.37 134.18 95.23 134.42 92.23 139.51 92.43 140.04 95.31 140.61 96.13 140.77 96.42 141.55 97.6 144.66 98.86 146.27 99.11 146.69 99.11 147.24 99.11 149.01 100.63 149.69 100.72 149.71 100.77 149.72 102.84 150.82 104.15 150.55 104.93 150.39 105.14 150.59 105.15 150.46 105.2 150.28 105.85 148.18 106.07 147.46 106.78 147.21 109.52 146.24 109.69 146.18 109.87 146.16 112.93 145.88 113.01 145.91 113.09 145.91 116.5 145.91 118.81 145.47 121.78 143.51 122.52 143.03 123.3 143.43 126.68 145.2 127.13 145.44 127.34 145.9 128.31 147.98 132.05 150.81 132.32 151.03 134.09 150.56 134.31 150.5 134.55 150.66 136.74 150.91 139.06 150.91 139.88 150.91 140.32 151.46 141.41 153.08 141.54 153.25 141.6 153.47 141.77 154.12 147.1 150.91 150.37 149 149.73 147.32 149.27 146.1 150.41 145.47 155.35 142.75 155.76 142.53 156.22 142.58 160.25 142.98 161.72 143.13 161.59 144.6 161.49 145.88 166.23 145.1 168.32 143.28 168.34 143.26 168.37 143.24 170.7 141.37 172.98 138.96 173.11 138.83 173.27 138.73 175.92 137.06 177.86 135.18 177.89 135.15 177.93 135.12 179.27 133.96 179.66 131.68 179.21 130.01 178.88 128.79 180.02 128.26 182.06 127.3 184.2 101.01 181.97 96.77 178.65 94.44 177.58 93.69 178.17 92.53 180.1 88.73 180.19 88.56 180.32 88.41 182.25 86.24 182.37 86.11 182.51 86.01 184.74 84.44 184.83 84.38 184.92 84.33 187.4 83.06 187.52 83 187.65 82.96 190.02 82.25 189.49 81.67 185.82 80.17 184.65 79.69 184.93 78.45 186.07 73.38 186.33 72.23 187.5 72.21 189.97 72.16 197.19 68.12 197.44 67.97 197.73 67.94 199.01 67.78 199.78 66.57 199.99 66.25 200.32 66.07 207.73 61.98 210.19 59.27 210.89 58.5 211.86 58.89 214 59.74 215.77 59.22 217.08 57.9 217.16 57.82 217.26 57.75 219.97 55.78 222.2 52.8 222.88 51.9 223.94 52.3 227.2 53.56 227.37 53.58 227.16 50.64 226.91 47.26 226.89 47.05 226.94 46.84 227.54 43.94 227.7 43.21 228.38 42.82 231.76 41.19"/><path class="cls-1" d="M142.05,162.81l-2.85.15,1.67-2.33,2.09.15Z"/></g></g></svg>