<svg xmlns="http://www.w3.org/2000/svg" viewBox="0 0 49.14 41.64"><defs><style>.РЎС‚РёР»СЊ-РіСЂР°С„РёРєРё-11{fill:#d9a65f;}</style></defs><title>france</title><g id="Слой_2" data-name="Слой 2"><g id="Слой_1-2" data-name="Слой 1"><polygon class="РЎС‚РёР»СЊ-РіСЂР°С„РёРєРё-11" points="49.03 10.73 47.38 10.18 47.29 10.15 47.2 10.11 44.77 8.94 40.72 8.24 40.42 8.19 40.16 8.02 38.07 6.67 37.79 6.48 37.61 6.2 37.16 5.46 36.57 5.75 35.53 6.28 34.77 5.4 33.74 4.22 31.41 2.8 29.33 1.53 29.15 1.42 29.01 1.28 27.81 0 25.96 2.63 25.8 2.85 25.57 3.01 21.49 5.74 18.96 8.51 18.3 9.23 17.37 8.91 12.94 7.4 11.97 8.05 12.4 11.47 12.62 13.25 10.83 13.16 7.27 12.97 6.96 12.96 6.69 12.83 4.6 11.81 1.46 12.14 0 13.26 0.14 14.01 4.69 15.47 8.22 16.43 8.73 16.57 9.04 16.99 10.32 18.74 13.46 22.18 13.68 22.41 13.78 22.71 14.87 25.91 14.98 26.23 14.93 26.57 14.33 31.46 14.32 31.57 14.29 31.66 12.63 37.99 13.66 38.5 17.23 40.22 20.05 39.96 20.29 39.94 20.53 40 22.44 40.44 27.15 41.58 29.36 41.64 29.74 41.19 33.12 37.14 33.7 36.44 34.59 36.63 41.68 38.18 45.81 36.8 47.16 35.92 47.11 35.9 46.49 35.69 46.22 35.1 45.34 33.17 44.2 31.14 43.69 30.25 44.34 29.45 45.05 28.59 45.55 27.59 45.24 26.21 44.87 25.19 43.99 25.1 43.09 25.01 42.75 24.17 42.21 22.81 41.88 22 42.43 21.31 45.06 18.05 45.15 17.93 45.27 17.84 47 16.41 47.77 13.77 47.81 13.65 47.87 13.54 49.14 10.92 49.03 10.73"/></g></g></svg>