<svg xmlns="http://www.w3.org/2000/svg" viewBox="0 0 912.74 457.83"><defs><style>.cls-1,.cls-3,.cls-4,.cls-6{fill:none;}.cls-1{stroke:#dcdcdc;}.cls-1,.cls-3,.cls-4,.cls-6,.cls-7{stroke-miterlimit:10;}.cls-1,.cls-3,.cls-4{stroke-width:1.43px;}.cls-2{fill:#d9a65f;}.cls-3,.cls-6,.cls-7{stroke:#9e305b;}.cls-4{stroke:#d9a65f;}.cls-5,.cls-7{fill:#9e305b;}.cls-5{opacity:0.1;}.cls-7{fill-opacity:0.1;stroke-width:1.4px;}</style></defs><title>g-map</title><g id="Слой_2" data-name="Слой 2"><g id="Слой_1-2" data-name="Слой 1"><polyline class="cls-1" points="508.57 334.2 499.53 332.99 484.21 321.21 465.36 304.72"/><polyline class="cls-1" points="290.68 70.24 289.65 86.74 283.83 97.34 266.2 104.41 260.32 110.3 256.8 118.55 263.87 133.87 259.16 138.58 260.34 145.65 262.7 151.54 259.16 160.97 263.88 170.39 262.7 179.82 253.27 190.43 239.52 191.6 223.4 208.1 223.4 215.17 210.35 223.42"/><polyline class="cls-1" points="298.99 274.6 308.65 272.9 309.83 246.98 323.97 231.66 325.15 224.59 332.22 218.7 339.29 189.25 344.19 185.12"/><polyline class="cls-1" points="331.04 337.71 335.75 331.82 346.36 332.99 364.03 323.57 380.52 328.28 400.56 331.82 413.52 328.28 422.94 332.99 433.55 331.82 446.51 318.86 457.11 314.14 468.89 300 467.72 283.51 483.03 268.19 480.68 252.87 486.57 248.16 487.75 237.56 505.42 234.02 506.6 226.95 497.17 217.53 480.68 221.06 472.43 217.53"/><path class="cls-1" d="M298.75,273.89"/><path class="cls-2" d="M42.35,2.18,67.7,6.78l9.16,6.87.61.46.72-.26L94,8.21l18.25,12.55.23.16.28.06,16.19,3.47,18.6,14,.21.15.25.07,20,5.87,17.61,7,.82.33.66-.58,5.81-5.14L198,49.77V58l.6.43,18.09,13,.31.22.38,0,36.73,3.53.81.08.48-.66,5.46-7.51,46.28,9.25.36.07.35-.11,24.55-7.8,2,6.83.17.6.56.28L361,89.2l1.09.55.71-1,5.33-7.46,22.24,5.58,19.15,14.71v9.47l.62.43,39.06,26.93.37.25h25.81l19.62,18,.25.23.32.09,14.42,4.2,1,7.58-12.34,10-1,.82.72,1.08,4.71,7,.28.42.49.15,27.1,8.23.58.18.53-.3,18.57-10.45L568,184.79l.85-.06.36-.77,6.76-14.65,25.19-4.58.29-.05.25-.16,6.61-4.41,22.23,3.36,6.76,15.79.37.87h7.65l.41-.71,11.19-19,22.46,7.85.57.2.54-.27,8.33-4.17,18.9,26.68-3.31,9.92-.51,1.54,1.59.32,5.89,1.18.54.11.47-.28,5.42-3.25,22.73,4.55,14.57,10.09,3.29,20.85-21.59,13.64-1.24.78.81,1.22,4.71,7.07.2.3.32.17,24.74,13,.28.15h.32l25.5,1.16,7.2,5.14-1.06,7.39-.19,1.34,1.33.27,5.89,1.18.39.08.38-.14,12.3-4.47L831,291.78l.42.27.5-.06,10.29-1.14,16.65,5.55,4.29,16.09-13.5,12.38-.31.28-.11.41-7.07,27.1-.15.58.31.52L853,371.44l8.25,13.6.21.34.35.18,30.63,16,.31.16h10.12l7.45,13.26-9,16.66-.11.21,0,.23-2.22,13.09-8.65,3.2-.43.16-.26.39-4.23,6.33-9.34-1-20.89-16.25-.31-.24-.39-.05-27.1-3.54-.6-.08-.47.38-5.32,4.25-48.14-13.75-4-9.1,6.38-6.38L777,407.5l-2.66-.5-18.59-3.49-21-12.82-1-.59-.8.8-4,4-15.57-6.69-.76-.33-.66.5-18.82,14.14-.57.43v9.31L667.14,426.8,650,417.74l-1.39-.73-.6,1.45-2.44,5.89-.32.78.52.66,7.66,9.62-18.14,1-13.85-5.77-1.05-.44-.66.93-5.53,7.73L594.56,441l-7.06-12.16-.65-1.12-1.18.54-5.18,2.36-.84.38v5.64L533.56,446H519.17l-.33.2-16,9.37-15.54-3.5-5.6-5.68-.7-.71-.91.41-11.93,5.38L457.07,437l-.58-.75-.92.24L434.44,442l-4.27-11.74-.3-.83-.88-.1-8.47-.94,4.85-8.73.54-1-.81-.76-37.7-35.35-1-.95-1,1-6.79,6.79L374,379.19l6.47-7.45,1-1.18-1.26-.92-4.71-3.43-.38-.27H345.28l-.3,1-4.65,15.87-7.51,10.81-16.66-5.51-.06,0H316l-19.78-4.63-6.85-4.56-.49-.33-.58.12-17.19,3.44-9-4.49-.85-.43-.72.63L243.7,392.49l-14.42-8.88-.6-.37-.66.25-8.39,3.15L212.4,376.3l3.14-12.56,8.45-1.06.79-.1.33-.72,15.32-33,.16-.35,0-.39L237,291.62l0-.33-.18-.29-11.55-18.47,1.16-24.3,0-.47-.26-.39-13.93-20.9-2.33-27.91v-.15l0-.15-8.25-27.1-.09-.31-.22-.24-11.78-13-.5-.55-.74.09-8.9,1.11-10.16-6.77-.32-.22-.39,0-9.13-.54-14.68-34.82-.56-1.33-1.33.58-9.31,4.07L121.28,99l-.4-.66-.77,0-32.56-1.2L60.8,79.67l-.54-.35-.62.17L48,82.65,39,54.49l-.21-.65-.64-.25-15-5.78L16.27,41,16,40.63l-.45-.08-12.12-2,18.69-33L42.35,2.18m0-1.45L21.16,4.26l-20,35.35L15.26,42,22.33,49l15.32,5.89,9.42,29.46,13-3.53L87.1,98.56l33,1.22,12.89,21.28,10.46-4.57,15,35.64,10,.59,10.6,7.07,9.43-1.18,11.78,13,8.25,27.1L210.86,227,225,248.16l-1.18,24.74,11.78,18.85,3.53,36.53-15.32,33-9.43,1.18-3.53,14.14,8.25,11.78,9.43-3.54,15.32,9.43,17.67-15.32,9.43,4.71,17.67-3.54,7.07,4.7,20,4.69,17.67,5.84,8.25-11.88,4.71-16.09h28.28l4.71,3.43-7.07,8.14,5.89,13,8.25-8.25L424.12,419l-5.89,10.61,10.6,1.18,4.71,13,22.39-5.88,11.78,15.34,13-5.85,5.89,6,16.5,3.72,16.5-9.65H533.7l47.38-9.56V432l5.18-2.36,7.53,13L615,440.22l5.9-8.25L635,437.86l21.23-1.18-9.39-11.78,2.44-5.89,17.84,9.43L694,413.12v-9.43l18.82-14.14,16.46,7.07,4.71-4.71,21.21,13,18.85,3.53L767,415.47l4.71,10.6,49.49,14.14,5.89-4.71,27.1,3.54,21.21,16.5,10.6,1.19,4.71-7,9.43-3.49,2.36-13.91,9.43-17.35-8.25-14.68h-10.6l-30.63-16-8.25-13.6L843.58,353l7.07-27.1,14.14-13-4.71-17.67L842.4,289.4l-10.6,1.18-13-8.25-13,4.71L800,285.86l1.18-8.25-8.25-5.89L767,270.55l-24.74-13-4.71-7.07,22.39-14.14L756.39,214l-15.32-10.6-23.56-4.71-5.89,3.54L705.72,201l3.53-10.6-20-28.28-9.43,4.72-23.57-8.24-11.78,20.05h-5.89l-7.07-16.52-23.56-3.56-7.07,4.71L574.94,168l-7.07,15.32-17.67,1.18-18.85,10.61-27.1-8.23-4.71-7,13-10.54-1.18-9.3L496,155.58l-20-18.35H450L411,110.3v-9.43L391,85.56l-23.48-5.89-5.89,8.25L335.74,75l-2.37-8.25L307.42,75l-47.18-9.43-6,8.25-36.73-3.53-18.09-13V49l-6.66-4.71-6.66,5.89-17.67-7.07-20-5.89L129.56,23.11l-16.5-3.53-18.85-13-16.5,5.89L68.29,5.44,42.37.73Z"/><polygon class="cls-3" points="158.42 152.13 143.4 116.49 132.94 121.06 120.06 99.77 87.1 98.56 60.02 80.86 47.07 84.39 37.65 54.93 22.33 49.04 15.26 41.97 1.13 39.61 21.16 4.26 42.37 0.72 68.29 5.44 77.71 12.51 94.21 6.62 113.06 19.58 129.56 23.11 148.41 37.25 168.44 43.14 186.11 50.21 192.61 44.32 199.1 49.03 199.1 57.28 217.35 70.24 254.16 73.78 260.2 65.53 307.4 74.96 333.36 66.71 335.73 74.96 361.66 87.92 367.56 79.67 390.88 85.56 410.66 100.88 410.66 110.3 450.04 137.24 475.96 137.24 495.99 155.58 511.31 160.04 512.49 169.34 499.53 179.88 504.24 186.92 531.34 195.15 550.19 184.54 567.87 183.36 574.94 168.04 600.86 163.33 607.93 158.61 631.49 162.17 638.56 178.69 644.46 178.69 656.24 158.64 679.8 166.87 689.23 162.15 709.26 190.43 705.72 201.03 711.62 202.21 717.51 198.67 741.07 203.39 756.39 213.99 759.92 236.38 737.54 250.52 742.25 257.58 766.99 270.55 792.91 271.72 801.16 277.62 799.99 285.86 805.88 287.04 818.84 282.33 831.8 290.58 842.4 289.4 860.08 295.29 864.79 312.96 850.65 325.92 843.58 353.02 854.18 370.7 862.43 384.3 893.07 400.25 903.67 400.25 911.92 414.93 902.49 432.29 900.14 446.19 890.71 449.68 886 456.73 875.39 455.54 854.18 439.04 827.08 435.5 821.19 440.22 771.71 426.08 766.99 415.47 774.06 408.4 755.21 404.87 734 391.91 729.29 396.62 712.67 389.55 693.69 403.69 693.69 413.12 667.01 428.43 649.25 419.01 646.85 424.9 656.26 436.68 635.04 437.86 620.89 431.97 615 440.21 593.79 442.57 586.1 429.61 580.76 431.97 580.76 437.86 533.7 447.42 519.56 447.42 503.06 457.07 486.57 453.36 480.68 447.38 467.72 453.22 455.93 437.88 433.55 443.76 428.83 430.8 418.23 429.61 424.12 419.01 386.42 383.66 378.17 391.91 372.28 378.95 379.35 370.8 374.63 367.38 346.36 367.38 341.64 383.47 333.39 395.35 315.72 389.5 295.69 384.81 288.62 380.11 270.95 383.65 261.52 378.94 243.85 394.26 228.53 384.84 219.1 388.37 210.86 376.59 214.39 362.45 223.82 361.27 239.13 328.28 235.6 291.75 223.82 272.9 225 248.16 210.86 226.95 208.5 198.67 200.25 171.57 188.47 158.61 179.04 159.79 168.44 152.72 158.42 152.13"/><polyline class="cls-4" points="712.5 389.55 716.33 376.59 698.65 369.52 695.12 342.42 678.62 321.21 657.41 317.68 655.06 335.35 663.31 338.88 657.41 342.42 633.85 349.49 610.28 338.88 596.15 340.06 579.65 331.82 565.51 340.06 534.88 343.6 517.2 335.35 508.57 334.2"/><polyline class="cls-4" points="524.62 446.71 526.63 430.79 520.74 395.44 519.56 383.66 506.6 374.23 499.53 377.77 492.46 375.41 500.71 364.81 495.99 349.49 508.95 341.24 507.78 332.99"/><polyline class="cls-4" points="725.16 199.85 704.25 208.1 700.86 218.7 709.18 234.02 702.9 241.09 703.69 249.34 703.69 264.65 706.55 270.55 706.55 281.15 698.18 291.75 684.28 292.93 683.22 300 678.57 303.54 670.35 310.61 665.65 317.68"/><polyline class="cls-4" points="422.65 119.14 408.66 131.81 409.91 138.73 404.05 145.72 398.18 138.62 378.16 132.71 373.45 126.81 365.2 132.57 355.78 130.09 347.53 130.09 338.11 126.38 331.04 132.48 326.32 136.12 316.9 132.64 315.72 144.45 321.61 151.53 338.56 162.14 344.9 169.22 344.9 192.78 350.64 203.39 357.92 208.1 363.92 203.39 398.14 213.99 404.06 226.95 421.75 228.13 440.61 220.44 448.86 211.57 461.82 211.57 472.43 217.79 481.86 211.76 490.1 214.06 498.35 209.31 503.06 203.4 525.45 193.97"/><polygon class="cls-5" points="903.88 400.24 912.13 414.92 902.69 432.27 900.33 446.18 890.91 449.67 886.2 456.71 875.59 455.53 854.39 439.03 827.29 435.49 821.4 440.2 771.91 426.07 767.2 415.46 774.26 408.39 755.42 404.86 734.2 391.89 729.49 396.61 713.03 389.53 712.82 389.69 712.71 389.53 716.52 376.58 698.85 369.5 695.32 342.4 678.83 321.19 665.62 318.99 665.85 317.66 670.55 310.6 678.78 303.52 683.46 299.99 684.56 292.92 698.54 291.74 707.07 281.14 707.07 270.53 704.22 264.64 704.22 249.32 703.27 241.07 709.39 234.01 701.07 218.69 704.46 208.08 724.76 200.07 741.26 203.38 756.59 213.98 760.12 236.37 737.74 250.5 742.45 257.57 767.2 270.53 793.11 271.7 801.36 277.61 800.19 285.86 806.08 287.03 819.04 282.31 831.99 290.56 842.6 289.38 860.28 295.27 864.98 312.94 850.85 325.91 843.78 353.01 854.39 370.68 862.64 384.29 893.27 400.24 903.88 400.24"/><polygon class="cls-6" points="903.88 400.24 912.13 414.92 902.69 432.27 900.33 446.18 890.91 449.67 886.2 456.71 875.59 455.53 854.39 439.03 827.29 435.49 821.4 440.2 771.91 426.07 767.2 415.46 774.26 408.39 755.42 404.86 734.2 391.89 729.49 396.61 713.03 389.53 712.82 389.69 712.71 389.53 716.52 376.58 698.85 369.5 695.32 342.4 678.83 321.19 665.62 318.99 665.85 317.66 670.55 310.6 678.78 303.52 683.46 299.99 684.56 292.92 698.54 291.74 707.07 281.14 707.07 270.53 704.22 264.64 704.22 249.32 703.27 241.07 709.39 234.01 701.07 218.69 704.46 208.08 724.76 200.07 741.26 203.38 756.59 213.98 760.12 236.37 737.74 250.5 742.45 257.57 767.2 270.53 793.11 271.7 801.36 277.61 800.19 285.86 806.08 287.03 819.04 282.31 831.99 290.56 842.6 289.38 860.28 295.27 864.98 312.94 850.85 325.91 843.78 353.01 854.39 370.68 862.64 384.29 893.27 400.24 903.88 400.24"/><polygon class="cls-5" points="716.52 376.58 712.71 389.53 712.82 389.69 694.21 403.67 694.21 413.1 667.36 428.41 649.54 418.99 647.09 424.88 656.47 436.66 635.24 437.85 621.09 431.96 615.2 440.2 593.99 442.56 586.46 429.6 581.28 431.96 581.28 437.85 533.9 447.41 524.82 447.41 524.82 446.69 526.84 430.77 520.93 395.42 519.76 383.64 506.8 374.22 499.73 377.75 492.66 375.39 500.91 364.79 496.19 349.48 509.15 341.23 508.14 334.11 517.4 335.34 535.08 343.59 565.72 340.04 579.85 331.8 596.35 340.04 609.94 338.92 610.49 338.87 634.04 349.48 657.62 342.4 663.5 338.87 655.26 335.34 657.62 317.66 665.62 318.99 678.83 321.19 695.32 342.4 698.85 369.5 716.52 376.58"/><polygon class="cls-6" points="716.52 376.58 712.71 389.53 712.82 389.69 694.21 403.67 694.21 413.1 667.36 428.41 649.54 418.99 647.09 424.88 656.47 436.66 635.24 437.85 621.09 431.96 615.2 440.2 593.99 442.56 586.46 429.6 581.28 431.96 581.28 437.85 533.9 447.41 524.82 447.41 524.82 446.69 526.84 430.77 520.93 395.42 519.76 383.64 506.8 374.22 499.73 377.75 492.66 375.39 500.91 364.79 496.19 349.48 509.15 341.23 508.14 334.11 517.4 335.34 535.08 343.59 565.72 340.04 579.85 331.8 596.35 340.04 609.94 338.92 610.49 338.87 634.04 349.48 657.62 342.4 663.5 338.87 655.26 335.34 657.62 317.66 665.62 318.99 678.83 321.19 695.32 342.4 698.85 369.5 716.52 376.58"/><polygon class="cls-5" points="345.43 184.28 345.43 169.2 338.92 162.12 321.81 151.52 315.92 144.43 317.1 132.62 326.53 136.11 331.23 132.46 338.31 126.37 347.73 130.07 355.98 130.07 365.41 132.56 373.66 126.79 378.36 132.69 398.39 138.61 404.25 145.71 410.11 138.71 408.85 131.79 422.85 119.13 423.22 118.58 450.25 137.22 476.16 137.22 496.19 155.56 511.51 160.02 512.68 169.33 499.73 179.88 504.44 186.91 525.82 193.4 525.65 193.96 503.26 203.39 498.55 209.29 490.3 214.04 482.05 211.75 472.88 217.61 472.63 217.77 462.03 211.55 449.06 211.55 440.81 220.43 421.96 228.12 404.28 226.93 398.36 213.98 364.17 203.38 358.21 208.08 351 203.38 345.43 192.77 345.43 184.28"/><polygon class="cls-6" points="345.43 184.28 345.43 169.2 338.92 162.12 321.81 151.52 315.92 144.43 317.1 132.62 326.53 136.11 331.23 132.46 338.31 126.37 347.73 130.07 355.98 130.07 365.41 132.56 373.66 126.79 378.36 132.69 398.39 138.61 404.25 145.71 410.11 138.71 408.85 131.79 422.85 119.13 423.22 118.58 450.25 137.22 476.16 137.22 496.19 155.56 511.51 160.02 512.68 169.33 499.73 179.88 504.44 186.91 525.82 193.4 525.65 193.96 503.26 203.39 498.55 209.29 490.3 214.04 482.05 211.75 472.88 217.61 472.63 217.77 462.03 211.55 449.06 211.55 440.81 220.43 421.96 228.12 404.28 226.93 398.36 213.98 364.17 203.38 358.21 208.08 351 203.38 345.43 192.77 345.43 184.28"/><polygon class="cls-5" points="360.65 323.81 361.23 324.92 346.16 332.97 335.64 331.79 330.95 337.63 330.84 337.85 323.94 334.13 311.07 339.98 295.88 334.13 284.17 338.81 267.8 321.26 239.17 322.41 236.23 292.03 230.77 283.29 240.9 268.64 256.11 267.47 267.8 262.79 275.99 267.47 285.35 275.66 298.99 274.3 301.54 281.26 314.5 287.24 327.41 297.82 335.62 300.19 342.64 307.21 355.16 306.05 360.65 317.76 360.65 323.81"/><polygon class="cls-6" points="360.65 323.81 361.23 324.92 346.16 332.97 335.64 331.79 330.95 337.63 330.84 337.85 323.94 334.13 311.07 339.98 295.88 334.13 284.17 338.81 267.8 321.26 239.17 322.41 236.23 292.03 230.77 283.29 240.9 268.64 256.11 267.47 267.8 262.79 275.99 267.47 285.35 275.66 298.99 274.3 301.54 281.26 314.5 287.24 327.41 297.82 335.62 300.19 342.64 307.21 355.16 306.05 360.65 317.76 360.65 323.81"/><polygon class="cls-5" points="340.32 356.35 346.09 367.33 341.48 383.07 333.29 394.86 315.76 389.05 295.88 384.4 288.86 379.73 271.32 383.25 261.95 378.57 244.42 393.78 229.21 384.43 219.86 387.93 211.67 376.24 215.18 362.19 224.53 361.03 239.74 328.29 239.17 322.41 267.8 321.26 284.17 338.81 295.88 334.13 311.07 339.98 323.94 334.13 330.84 337.85 339.14 342.32 340.32 356.35"/><polygon class="cls-6" points="340.32 356.35 346.09 367.33 341.48 383.07 333.29 394.86 315.76 389.05 295.88 384.4 288.86 379.73 271.32 383.25 261.95 378.57 244.42 393.78 229.21 384.43 219.86 387.93 211.67 376.24 215.18 362.19 224.53 361.03 239.74 328.29 239.17 322.41 267.8 321.26 284.17 338.81 295.88 334.13 311.07 339.98 323.94 334.13 330.84 337.85 339.14 342.32 340.32 356.35"/><polygon class="cls-7" points="724.16 200.31 703.93 208.28 700.55 218.86 708.85 234.13 702.75 241.17 703.69 249.4 703.69 264.67 706.54 270.54 706.54 281.12 698.03 291.69 684.09 292.86 683 299.91 678.34 303.43 670.13 310.49 665.44 317.53 665.21 318.85 657.23 317.53 654.88 335.15 663.1 338.67 657.23 342.19 633.73 349.25 610.25 338.67 609.71 338.72 609.64 337.86 609.64 334.3 618.47 334.3 619.64 328.26 611.42 321.05 609.07 309.3 602.03 294.04 600.85 284.64 597.33 282.29 598.51 275.25 606.72 277.6 612.59 274.06 609.07 258.8 617.27 227.08 604.34 223.55 586.68 205.92 587.78 195.32 567.86 183.63 567.96 183.63 575.01 168.36 600.85 163.65 607.9 158.95 631.4 162.5 638.44 178.97 644.31 178.97 656.06 158.98 679.55 167.19 688.95 162.49 708.92 190.67 705.4 201.25 711.27 202.41 717.14 198.89 724.16 200.31"/></g></g></svg>