<svg xmlns="http://www.w3.org/2000/svg" viewBox="0 0 32.9 37.32"><defs><style>.РЎС‚РёР»СЊ-РіСЂР°С„РёРєРё-11{fill:#d9a65f;}</style></defs><title>germany</title><g id="Слой_2" data-name="Слой 2"><g id="Слой_1-2" data-name="Слой 1"><polygon class="РЎС‚РёР»СЊ-РіСЂР°С„РёРєРё-11" points="31.96 14.8 31.95 14.76 31.44 12.72 30.59 10.85 30.51 10.67 30.48 10.48 30.21 8.85 30.18 8.71 30.19 8.57 30.27 4.43 28.28 3.34 27.36 2.83 27.52 1.79 27.53 1.71 26.32 2.03 21.91 4.59 21.05 5.08 20.26 4.49 18.25 3 16.92 2.34 13.92 0.9 13.29 0.6 13.17 0.13 12.86 0.14 12.77 0.14 12.68 0.13 11.31 0 12.32 3.27 12.6 4.17 11.91 4.81 10.16 6.44 9.64 6.93 8.93 6.83 6.13 6.44 4.45 6.7 4.54 8.96 4.57 9.65 4.07 10.12 2.91 11.21 3.6 12.35 4.09 13.14 3.58 13.94 2.74 15.27 2.51 15.63 2.11 15.82 0.56 16.55 0.43 17.66 0 20.54 0.92 22.68 1.21 23.35 0.86 23.98 0.34 24.95 1.19 27.16 1.57 27.37 4.09 28.58 6.17 29.27 6.7 29.45 6.99 29.93 7.8 31.29 8.22 31.98 7.86 32.71 6.33 35.85 6.27 36.32 7.94 36.26 10.7 36.14 11.05 36.13 11.37 36.27 12.78 36.88 13.12 36.54 13.96 36.77 16.02 37.32 18.16 37 18.21 36.99 18.26 36.99 20.53 36.81 24.29 36.08 25.42 35.26 26.89 32.97 27.03 32.76 27.22 32.6 27.96 32.01 25.27 30 24.93 29.75 24.77 29.35 23.41 25.91 23.34 25.73 23.32 25.54 23.05 23.37 22.9 22.2 24 21.78 28.21 20.17 31.51 18.65 31.78 18.53 32.08 18.51 32.87 18.48 32.9 17.85 31.97 14.84 31.96 14.8"/></g></g></svg>