<svg xmlns="http://www.w3.org/2000/svg" viewBox="0 0 1108 555.03"><defs><style>.cls-1{opacity:0.3;}.cls-2,.cls-4{fill:none;stroke-miterlimit:10;}.cls-2{stroke:#dcdcdc;stroke-width:1.43px;}.cls-3{fill:#c6c6c6;}.cls-4{stroke:#c6c6c6;stroke-width:2px;}.cls-5{fill:#666;fill-opacity:0.1;}</style></defs><title>gr_map</title><g id="Слой_2" data-name="Слой 2"><g id="Слой_1-2" data-name="Слой 1"><g class="cls-1"><polyline class="cls-2" points="617.18 405.59 606.18 404.12 587.55 389.79 564.62 369.73"/><polyline class="cls-2" points="688.73 221.99 713.38 236.38 712.08 249.32 733.65 270.83 749.45 275.14 739.44 313.83 743.75 332.46 736.58 336.77 726.55 333.9 725.12 342.5 729.42 345.37 730.86 356.83 739.45 375.46 742.32 389.79 752.35 398.59 750.92 405.95 739.75 405.95 739.75 410.3"/><polyline class="cls-2" points="352.17 84.55 350.92 104.61 343.84 117.51 322.39 126.11 315.25 133.27 310.96 143.31 319.56 161.93 313.84 167.67 315.27 176.26 318.14 183.43 313.84 194.9 319.57 206.36 318.14 217.82 306.67 230.72 289.94 232.15 270.34 252.22 270.34 260.81 254.47 270.85"/><polyline class="cls-2" points="278.01 343.93 290.91 325.3 309.54 323.87 323.87 318.14 333.9 323.87 345.37 333.9 374.03 331.03 375.46 299.51 392.66 280.88 394.09 272.28 402.69 265.11 411.29 229.29 417.25 224.27"/><polyline class="cls-2" points="419.88 446.39 412.72 432.78 411.29 415.58 392.66 405.55 376.89 412.72 358.26 405.55 343.93 411.29 323.87 389.79 288.04 391.22"/><polyline class="cls-2" points="361.81 332.06 365.11 340.77 381.03 348.08 396.88 361.06 406.95 363.96 415.56 372.57 430.7 371.15 437.24 385.49 437.24 392.91"/><polyline class="cls-2" points="401.25 409.85 406.99 402.69 419.88 404.12 441.38 392.66 461.44 398.39 485.81 402.69 501.57 398.39 513.03 404.12 525.93 402.69 541.69 386.92 554.59 381.19 568.92 364 567.49 343.93 586.12 325.3 583.25 306.67 590.42 300.94 591.85 288.04 613.35 283.74 614.78 275.14 603.32 263.68 583.25 267.98 573.22 263.68"/><path class="cls-3" d="M50.15,1.45l31,5.63,11.19,8.4.62.46.72-.26L113,8.76l22.33,15.35.23.16.28.06,19.76,4.23,22.68,17,.21.15.25.07L203,52.94l21.43,8.57.82.33.66-.58,7.25-6.41,6.57,4.65v10l.6.43,22,15.76.31.22.38,0,44.68,4.3.81.08.48-.66,6.75-9.29,56.49,11.29.36.07.35-.11,30.16-9.59,2.48,8.62.17.6.56.28,31.54,15.76,1.09.55.71-1,6.6-9.24,27.32,6.86,23.46,18V134l.62.43,47.51,32.76.37.25H577l24,21.94.25.23.32.09,17.73,5.16,1.22,9.59-15.15,12.32-1,.82.72,1.08,5.73,8.56.28.42.49.15,33,10,.58.18.53-.3L668.22,225l21.17-1.42.85-.06.36-.77,8.29-18,30.8-5.6.29-.05.25-.16,8.14-5.43,27.33,4.13L774,217l.37.87h8.93l.41-.71,13.73-23.38L825,203.42l.57.2.54-.27,10.37-5.19L859.68,231l-4.07,12.21-.51,1.54,1.59.32,7.17,1.43.54.11.47-.28,6.69-4,27.83,5.57,17.88,12.38,4.06,25.69L894.89,302.6l-1.24.78.81,1.22,5.73,8.6.2.3.32.17,30.09,15.76.28.15h.32l31.1,1.41,9,6.41-1.31,9.17-.19,1.34,1.33.27,7.17,1.43.39.08.38-.14,15.1-5.49,15.17,9.65.42.27.5-.06,12.58-1.4,20.47,6.82,5.31,19.92-16.56,15.18-.31.28-.11.41-8.6,33-.15.58.31.52,12.9,21.5,10,16.54.21.34.35.18,37.26,19.41.31.16h12.41l9.23,16.44L1095,524.2l-.11.21,0,.23-2.73,16.1-10.69,4-.43.16-.26.39-5.25,7.85-11.63-1.3L1038.41,532l-.31-.24-.39-.05-33-4.3-.6-.08-.48.38L997.09,533l-58.84-16.81-5.06-11.39,7.9-7.9,1.92-1.92-2.66-.5-22.67-4.25L892.1,474.55l-1-.59-.8.8-5,5-19.13-8.22-.76-.33-.66.5L841.86,489l-.57.43v11.35L810,518.57l-21-11.1-1.39-.73-.6,1.45-3,7.17-.32.78.52.66L794,529l-22.73,1.26-16.91-7-1.05-.44-.66.93-6.8,9.51-24.24,2.69-8.69-15-.65-1.12-1.18.54-6.3,2.87-.84.38v6.92L647.6,541.87H630.16l-.33.2-19.58,11.45-19.1-4.3-6.87-7-.7-.71-.91.41-14.73,6.64-13.64-17.76-.58-.75-.92.24-26,6.82-5.29-14.54-.3-.83-.88-.1-10.76-1.2,6.12-11,.54-1-.81-.76-45.86-43-1-.95-1,1L459,473.3l-5.93-13.05,8-9.21,1-1.18-1.26-.92-5.73-4.17-.38-.27H418.81l-.3,1-5.67,19.35-9.29,13.38-20.48-6.77-.06,0H383l-24.11-5.65-8.38-5.58-.49-.33-.58.12-21,4.21-11-5.51-.85-.43-.72.63-20.7,17.94L277.33,466l-.6-.37-.66.25-10.43,3.91-9-12.89,3.9-15.61L271,439.93l.79-.1.33-.72L290.77,399l.16-.35,0-.39-4.3-44.42,0-.33-.18-.29L272.3,330.66,273.71,301l0-.47-.26-.39-17-25.49-2.84-34v-.15l0-.15-10-33-.09-.31-.22-.24-14.33-15.76-.5-.55-.74.09L216.74,192l-12.46-8.3-.32-.21-.39,0-11.29-.66-17.93-42.53-.56-1.33-1.33.58-11.57,5.05-15-24.81-.4-.66-.77,0L105,117.57,72.41,96.27l-.54-.35-.62.17L56.82,100l-11-34.53-.21-.65-.64-.25L26.59,57.53l-8.38-8.39-.32-.32-.45-.08L2.25,46.22l23-40.62L50.15,1.45m0-1.45L24.36,4.3,0,47.29l17.2,2.87,8.6,8.6,18.63,7.17,11.46,35.83,15.75-4.29L104.57,119l40.08,1.48,15.67,25.88L173,140.8l18.27,43.35,12.18.72,12.9,8.6L227.86,192l14.33,15.76,10,33,2.87,34.39,17.2,25.79L270.85,331,285.18,354l4.3,44.42-18.63,40.13-11.46,1.43-4.3,17.2,10,14.33,11.46-4.3,18.63,11.46L316.7,460l11.46,5.73,21.5-4.31,8.6,5.72,24.36,5.7,21.5,7.11,10-14.45,5.73-19.58h34.39l5.73,4.17-8.6,9.9,7.17,15.76,10-10,45.86,43-7.17,12.9,12.9,1.44,5.73,15.77,27.23-7.15,14.33,18.66,15.76-7.11,7.17,7.28L610.48,555l20.06-11.74h17.2l57.63-11.63V524.5l6.3-2.87,9.16,15.76,25.8-2.87,7.17-10L771,531.66l25.82-1.43L785.41,515.9l3-7.17,21.7,11.46,32.64-18.63V490.1l22.89-17.2,20,8.6,5.73-5.73,25.79,15.76,22.93,4.3-8.6,8.6,5.73,12.9,60.19,17.2,7.17-5.73,33,4.3,25.79,20.07,12.9,1.45L1082,546l11.46-4.25,2.87-16.91,11.46-21.11-10-17.85h-12.9l-37.26-19.41-10-16.54-12.9-21.5,8.6-33,17.2-15.76-5.73-21.5-21.5-7.17-12.9,1.43-15.76-10-15.76,5.73-7.17-1.43,1.43-10-10-7.17-31.53-1.43L901.39,312.4l-5.73-8.6,27.23-17.2-4.3-27.23L900,246.48l-28.66-5.73-7.17,4.3L857,243.62l4.3-12.9L836.9,196.33l-11.46,5.74-28.66-10-14.33,24.39h-7.17l-8.6-20.09L738,192l-8.6,5.73L697.9,203.5l-8.6,18.63-21.5,1.44-22.93,12.91-33-10-5.73-8.56,15.76-12.82-1.43-11.31-18.63-5.42L577.52,166H546l-47.51-32.76V121.81l-24.25-18.63L445.68,96l-7.17,10L407,90.28l-2.88-10-31.56,10L315.15,78.82l-7.29,10-44.68-4.3-22-15.76v-10L233.08,53,225,60.19l-21.5-8.6-24.36-7.17L156.2,27.23l-20.06-4.3L113.21,7.17,93.15,14.33,81.68,5.73,50.16,0Z"/><polyline class="cls-4" points="865.21 472.91 869.86 457.14 848.37 448.54 844.07 415.58 824 389.79 798.21 385.49 795.34 406.99 805.38 411.29 798.21 415.58 769.55 424.18 740.89 411.29 723.69 412.72 703.63 402.69 686.43 412.72 649.17 417.02 627.68 406.99 617.18 405.59"/><polyline class="cls-4" points="636.7 542.42 639.14 523.06 631.98 480.07 630.54 465.74 614.78 454.28 606.18 458.58 597.58 455.71 607.61 442.81 601.88 424.18 617.64 414.15 616.21 404.12"/><polyline class="cls-4" points="880.61 242.19 855.17 252.22 851.05 265.11 861.17 283.74 853.53 292.34 854.49 302.37 854.49 321 857.97 328.17 857.97 341.07 847.79 353.96 830.88 355.4 829.59 364 823.93 368.29 813.94 376.89 808.22 385.49"/><polyline class="cls-4" points="512.67 144.02 495.66 159.43 497.18 167.85 490.06 176.35 482.92 167.71 458.57 160.52 452.84 153.35 442.81 160.36 431.35 157.34 421.32 157.34 409.85 152.83 401.25 160.25 395.52 164.67 384.06 160.44 382.63 174.8 389.79 183.41 410.4 196.32 418.12 204.93 418.12 233.59 425.09 246.48 433.95 252.22 441.25 246.48 482.87 259.38 490.07 275.14 511.58 276.58 534.52 267.22 544.56 256.44 560.32 256.44 573.22 264 584.68 256.68 594.72 259.46 604.75 253.69 610.48 246.5 637.71 235.03"/><polygon class="cls-5" points="1097.97 485.9 1108 503.76 1096.53 524.87 1093.66 541.78 1082.2 546.02 1076.46 554.6 1063.56 553.15 1037.78 533.09 1004.82 528.78 997.65 534.51 937.47 517.32 931.73 504.42 940.32 495.81 917.4 491.52 891.6 475.75 885.87 481.49 865.86 472.88 865.6 473.07 865.46 472.88 870.1 457.13 848.61 448.53 844.32 415.56 824.25 389.76 808.19 387.09 808.47 385.47 814.19 376.88 824.2 368.27 829.88 363.98 831.22 355.38 848.23 353.95 858.61 341.05 858.61 328.15 855.13 320.99 855.13 302.35 853.98 292.32 861.42 283.73 851.3 265.09 855.42 252.19 880.11 242.46 900.19 246.47 918.83 259.37 923.12 286.6 895.9 303.79 901.63 312.38 931.73 328.15 963.25 329.57 973.28 336.76 971.86 346.79 979.02 348.21 994.79 342.48 1010.54 352.51 1023.44 351.08 1044.94 358.24 1050.66 379.73 1033.47 395.5 1024.88 428.46 1037.78 449.95 1047.81 466.5 1085.07 485.9 1097.97 485.9"/><polygon class="cls-5" points="870.1 457.13 865.46 472.88 865.6 473.07 842.96 490.08 842.96 501.55 810.31 520.17 788.63 508.71 785.66 515.88 797.06 530.2 771.24 531.65 754.03 524.48 746.87 534.51 721.07 537.38 711.91 521.62 705.61 524.48 705.61 531.65 647.98 543.28 636.94 543.28 636.94 542.41 639.39 523.04 632.21 480.05 630.79 465.72 615.02 454.26 606.43 458.56 597.82 455.69 607.86 442.79 602.12 424.17 617.89 414.14 616.65 405.48 627.92 406.98 649.42 417.01 686.68 412.69 703.88 402.66 723.94 412.69 740.47 411.32 741.13 411.27 769.78 424.17 798.45 415.56 805.62 411.27 795.58 406.98 798.45 385.47 808.19 387.09 824.25 389.76 844.32 415.56 848.61 448.53 870.1 457.13"/><polygon class="cls-5" points="418.75 223.25 418.75 204.9 410.84 196.3 390.03 183.4 382.87 174.78 384.3 160.41 395.77 164.66 401.49 160.22 410.1 152.82 421.55 157.32 431.58 157.32 443.06 160.35 453.09 153.32 458.81 160.5 483.17 167.7 490.3 176.34 497.42 167.82 495.89 159.41 512.91 144 513.37 143.34 546.24 166.01 577.76 166.01 602.12 188.32 620.76 193.74 622.18 205.06 606.43 217.89 612.15 226.44 638.16 234.34 637.95 235.02 610.72 246.49 604.99 253.67 594.96 259.44 584.92 256.66 573.76 263.79 573.47 263.98 560.57 256.42 544.8 256.42 534.77 267.21 511.84 276.57 490.33 275.12 483.13 259.37 441.55 246.47 434.3 252.19 425.54 246.47 418.75 233.57 418.75 223.25"/></g></g></g></svg>