<svg width="146" height="57" viewBox="0 0 146 57" version="1.1" xmlns="http://www.w3.org/2000/svg" xmlns:xlink="http://www.w3.org/1999/xlink">
<title>header_logo</title>
<desc>Created using Figma</desc>
<g id="Canvas" transform="translate(7340 469)">
<g id="header_logo">
<g id="Group">
<g id="Vector">
<use xlink:href="#path0_fill" transform="translate(-7335 -459)" fill="#FFFFFF"/>
</g>
<g id="Rectangle 20">
<mask id="mask0_outline_ins">
<use xlink:href="#path1_fill" fill="white" transform="translate(-7340 -469)"/>
</mask>
<g mask="url(#mask0_outline_ins)">
<use xlink:href="#path2_stroke_2x" transform="translate(-7340 -469)" fill="#FFFFFF" fill-opacity="0.6"/>
</g>
</g>
</g>
<g id="Kakhetian Traditional Winemaking">
<use xlink:href="#path3_fill" transform="translate(-7273.79 -466.346)" fill="#FFFFFF"/>
<use xlink:href="#path4_fill" transform="translate(-7273.79 -466.346)" fill="#FFFFFF"/>
<use xlink:href="#path5_fill" transform="translate(-7273.79 -466.346)" fill="#FFFFFF"/>
<use xlink:href="#path6_fill" transform="translate(-7273.79 -466.346)" fill="#FFFFFF"/>
<use xlink:href="#path7_fill" transform="translate(-7273.79 -466.346)" fill="#FFFFFF"/>
<use xlink:href="#path8_fill" transform="translate(-7273.79 -466.346)" fill="#FFFFFF"/>
<use xlink:href="#path9_fill" transform="translate(-7273.79 -466.346)" fill="#FFFFFF"/>
<use xlink:href="#path10_fill" transform="translate(-7273.79 -466.346)" fill="#FFFFFF"/>
<use xlink:href="#path11_fill" transform="translate(-7273.79 -466.346)" fill="#FFFFFF"/>
<use xlink:href="#path12_fill" transform="translate(-7273.79 -466.346)" fill="#FFFFFF"/>
<use xlink:href="#path13_fill" transform="translate(-7273.79 -466.346)" fill="#FFFFFF"/>
<use xlink:href="#path14_fill" transform="translate(-7273.79 -466.346)" fill="#FFFFFF"/>
<use xlink:href="#path15_fill" transform="translate(-7273.79 -466.346)" fill="#FFFFFF"/>
<use xlink:href="#path16_fill" transform="translate(-7273.79 -466.346)" fill="#FFFFFF"/>
<use xlink:href="#path17_fill" transform="translate(-7273.79 -466.346)" fill="#FFFFFF"/>
<use xlink:href="#path18_fill" transform="translate(-7273.79 -466.346)" fill="#FFFFFF"/>
<use xlink:href="#path19_fill" transform="translate(-7273.79 -466.346)" fill="#FFFFFF"/>
<use xlink:href="#path20_fill" transform="translate(-7273.79 -466.346)" fill="#FFFFFF"/>
<use xlink:href="#path21_fill" transform="translate(-7273.79 -466.346)" fill="#FFFFFF"/>
<use xlink:href="#path22_fill" transform="translate(-7273.79 -466.346)" fill="#FFFFFF"/>
<use xlink:href="#path23_fill" transform="translate(-7273.79 -466.346)" fill="#FFFFFF"/>
<use xlink:href="#path24_fill" transform="translate(-7273.79 -466.346)" fill="#FFFFFF"/>
<use xlink:href="#path25_fill" transform="translate(-7273.79 -466.346)" fill="#FFFFFF"/>
<use xlink:href="#path26_fill" transform="translate(-7273.79 -466.346)" fill="#FFFFFF"/>
<use xlink:href="#path27_fill" transform="translate(-7273.79 -466.346)" fill="#FFFFFF"/>
<use xlink:href="#path28_fill" transform="translate(-7273.79 -466.346)" fill="#FFFFFF"/>
<use xlink:href="#path29_fill" transform="translate(-7273.79 -466.346)" fill="#FFFFFF"/>
<use xlink:href="#path30_fill" transform="translate(-7273.79 -466.346)" fill="#FFFFFF"/>
<use xlink:href="#path31_fill" transform="translate(-7273.79 -466.346)" fill="#FFFFFF"/>
<use xlink:href="#path32_fill" transform="translate(-7273.79 -466.346)" fill="#FFFFFF"/>
</g>
</g>
</g>
<defs>
<path id="path0_fill" d="M 12.3743 20.4948C 11.578 19.3739 10.9265 18.1618 10.4345 16.8859L 10.3396 16.651L 10.5638 16.5251C 11.525 15.9604 12.3964 15.262 13.1502 14.4521C 13.9688 13.5753 14.6805 12.6093 15.2711 11.5734L 15.8488 11.6909C 16.038 13.6041 16.1071 15.5268 16.0557 17.4482C 16.0126 19.3534 15.866 21.2417 15.6419 23.1049L 15.5815 23.6168L 15.1504 23.3063C 14.0741 22.5224 13.1364 21.5727 12.3743 20.4948ZM 11.0983 16.9027C 11.5641 18.047 12.166 19.1343 12.8916 20.1423C 13.5208 21.0223 14.2722 21.8131 15.1246 22.4922C 15.3056 20.8137 15.4349 19.1352 15.4781 17.4566C 15.5195 15.8667 15.4792 14.2757 15.3574 12.6896C 14.8516 13.4689 14.2745 14.2021 13.633 14.8801C 12.8896 15.6704 12.0399 16.3592 11.1069 16.9279L 11.0983 16.9027ZM 2.02846 13.9905C 1.72248 14.1242 1.4486 14.3187 1.2244 14.5615C 1.0002 14.8043 0.83064 15.0901 0.72661 15.4005C 0.582694 16.0544 0.642741 16.7354 0.899045 17.3559C 0.998223 17.5864 1.16648 17.7823 1.38185 17.9182C 1.4881 17.9771 1.60531 18.0149 1.72668 18.0293C 1.84805 18.0437 1.97114 18.0345 2.08881 18.0022C 2.81608 17.7441 3.4489 17.2828 3.90796 16.6761L 4.31317 16.2229L 4.4425 16.8188C 4.67792 17.8383 4.80219 18.8792 4.81322 19.9241C 4.81867 20.9931 4.62288 22.0541 4.23557 23.0545C 4.12728 23.4506 3.94934 23.8254 3.70966 24.1623C 3.44812 24.5446 3.26764 24.9739 3.17881 25.425C 3.08998 25.8761 3.09459 26.3399 3.19237 26.7892C 3.9049 26.9655 4.6386 27.0474 5.37362 27.0326C 6.21861 27.0109 7.05672 26.8782 7.86524 26.6382L 7.99456 26.6382C 8.04629 26.6382 7.92559 26.5962 7.93421 26.5375C 7.9565 26.0585 7.9392 25.5786 7.88248 25.1023C 7.6045 22.9985 7.77472 20.8616 8.38253 18.8246L 8.59807 18.2372L 8.93431 18.7659C 9.96843 20.3882 11.0968 21.9518 12.314 23.449C 13.3666 24.7546 14.5194 25.9807 15.7626 27.1165L 15.8488 27.2508C 16.0964 27.8883 16.1503 28.5818 16.004 29.2483C 15.927 29.5125 15.7808 29.7527 15.5798 29.9454C 15.3788 30.1381 15.1299 30.2768 14.8573 30.3477C 14.5768 30.5045 14.2567 30.5814 13.9335 30.5695C 13.6103 30.5576 13.2971 30.4575 13.0295 30.2806C 12.4476 29.9026 11.9469 29.418 11.5553 28.8538C 11.2276 29.8441 10.8052 30.3309 10.3051 30.4232C 10.0105 30.4373 9.71705 30.3776 9.45289 30.2498C 9.18873 30.1219 8.96269 29.9303 8.79636 29.6931L 8.4515 30.9184C 8.56358 31.7577 10.262 32.2109 12.8312 32.3703C 16.217 32.4952 19.6072 32.4448 22.9874 32.2193C 23.1502 31.9654 23.2315 31.6701 23.2207 31.371C 23.21 31.072 23.1077 30.7828 22.9271 30.5407C 22.2903 29.8908 21.4866 29.4185 20.5992 29.1727L 20.4182 29.1056L 20.4182 28.9126C 20.2975 27.5697 20.2113 26.2269 20.2113 24.8841C 20.2039 23.527 20.3077 22.1715 20.5216 20.8305L 21.1252 20.8305C 22.5736 25.7821 23.7116 27.3515 24.5738 26.9907C 25.4359 26.6298 26.4533 24.1707 27.3327 21.2333L 27.9362 21.2333C 28.1364 22.7926 28.4417 24.3374 28.85 25.8577C 29.0915 26.6298 29.3329 27.0242 29.557 26.7641C 30.583 25.9248 31.1951 26.1346 31.4882 27.0578C 31.6924 28.0732 31.7128 29.1156 31.5486 30.1379C 32.6381 29.875 33.6655 29.4106 34.5747 28.7699C 35.111 28.4003 35.5078 27.8696 35.7042 27.2592C 35.8448 26.6872 35.7488 26.0844 35.4369 25.5807C 35.0005 24.8714 34.4124 24.2617 33.7126 23.7931L 33.3332 23.5245L 33.7385 23.2895C 34.408 22.9082 34.9522 22.3493 35.3076 21.6781C 35.7573 20.7726 36.0709 19.8087 36.2387 18.8162L 36.3422 18.3295L 36.7388 18.64C 37.8251 19.4793 38.5665 19.3953 38.9717 18.917C 39.2204 18.581 39.3614 18.181 39.3769 17.7672C 39.4141 17.3241 39.3339 16.8791 39.1442 16.4747C 38.8338 15.8537 38.1786 15.4928 37.1698 15.9711L 36.8422 15.4676C 37.7733 14.729 37.7044 12.1861 37.0491 9.69347C 36.7902 8.63933 36.4234 7.6131 35.9542 6.63017C 35.6272 5.87811 35.1427 5.20068 34.5316 4.64112C 34.4173 4.53534 34.2816 4.45386 34.1332 4.40185C 33.9848 4.34984 33.8269 4.32843 33.6695 4.33898C 33.8287 8.29758 33.7164 12.2621 33.3332 16.2061C 33.0056 18.9002 32.4021 20.864 31.3675 20.8976L 31.1606 20.8976L 31.0744 20.713C 30.3136 19.0462 29.7859 17.2877 29.5053 15.4844C 29.2619 13.879 29.2939 12.2454 29.6001 10.6502C 29.559 9.96875 29.2503 9.32874 28.738 8.8626C 28.4441 8.66136 28.1124 8.51849 27.7618 8.44217C 27.4112 8.36584 27.0486 8.35756 26.6947 8.41779C 25.8325 8.74511 25.4273 9.10599 25.3842 9.47526C 25.3411 9.84454 25.6687 10.3145 26.3067 10.8349L 26.4102 10.9188L 26.4102 11.0531C 26.529 12.9668 26.4481 14.8874 26.1688 16.7852C 25.9892 18.2712 25.4386 19.6917 24.5651 20.9228L 24.3237 21.2249L 24.0737 20.9228C 23.1493 19.6828 22.487 18.2764 22.1253 16.7852C 21.4901 14.3936 21.0889 11.9489 20.9269 9.48366L 20.9269 9.29063L 21.0993 9.19831C 21.7536 8.89375 22.3021 8.40946 22.677 7.80513C 22.9356 7.30627 22.9911 6.73071 22.8322 6.19375L 21.2631 5.03557L 21.1596 4.96004L 21.1596 4.83415L 20.901 2.96259L 20.8493 2.6185L 21.2027 2.6185L 24.2375 2.66885L 24.5134 2.66885L 24.5134 2.93742C 24.532 3.3156 24.6494 3.68291 24.8546 4.00455C 25.0598 4.3262 25.346 4.59152 25.6859 4.7754C 26.1242 5.00224 26.6121 5.12313 27.1085 5.12789C 27.6341 5.13796 28.1562 5.04372 28.6431 4.85093C 29.0347 4.70333 29.3903 4.47781 29.6872 4.18878C 29.9841 3.89975 30.2158 3.55358 30.3674 3.17241C 29.5073 3.22231 28.65 3.03621 27.8931 2.63528C 27.0686 2.14773 26.386 1.46301 25.9101 0.646231L 11.7449 0.646231C 10.9431 2.07298 9.87406 2.32475 8.41702 2.68564L 7.55487 2.89545C 7.74111 3.68377 8.23201 4.37202 8.92569 4.81736C 9.35249 5.1042 9.84874 5.27776 10.3655 5.32092C 10.8662 5.36021 11.3682 5.26131 11.8139 5.03557C 12.2193 4.80782 12.5729 4.50211 12.853 4.13707C 13.1331 3.77202 13.334 3.35528 13.4434 2.91224L 13.5037 2.71081L 13.7193 2.71081L 15.7626 2.59332L 16.0816 2.59332L 16.0816 2.90385L 16.185 7.1589L 16.1333 7.33515C 15.1013 8.78166 13.9662 10.1558 12.7364 11.4475C 11.562 12.6732 10.2876 13.8043 8.92569 14.8298L 8.42564 15.2074L 8.42564 14.5948L 8.47737 9.55919L 8.47737 9.38295L 8.64118 9.29902C 9.50333 8.84582 9.76198 8.5269 9.64128 8.31708C 9.42574 7.92263 8.39115 7.65407 7.20138 7.54496C 6.04591 7.41195 4.87493 7.49745 3.75277 7.79674C 3.33032 7.93941 3.08029 8.13244 3.16651 8.35065L 3.16651 8.44297C 3.22477 8.85744 3.43257 9.23822 3.75277 9.51723C 3.94299 9.70434 4.1134 9.90959 4.26144 10.1299L 4.30455 10.2893L 4.30455 14.3933L 3.87347 14.2087C 3.30748 13.9159 2.65 13.8382 2.02846 13.9905ZM 0.148969 15.1906C 0.2841 14.7973 0.503994 14.4365 0.793933 14.1326C 1.08387 13.8286 1.43717 13.5885 1.83017 13.4282C 2.4545 13.2379 3.12695 13.2616 3.73553 13.4953L 3.73553 10.3733C 3.61819 10.2129 3.48849 10.0614 3.34756 9.92007C 2.90826 9.54899 2.62824 9.03077 2.563 8.46815C 2.37333 7.87227 2.78716 7.45264 3.54586 7.19247C 4.75441 6.86699 6.01637 6.77293 7.26173 6.91552C 8.63256 7.0414 9.84819 7.41068 10.1844 7.99816C 10.4603 8.50172 10.1844 9.08081 9.0895 9.67669L 9.04639 13.9401C 10.1971 13.031 11.2804 12.0438 12.2881 10.9859C 13.4761 9.73828 14.5736 8.41186 15.5729 7.01623L 15.4781 3.16402L 13.9607 3.24794C 13.6694 4.21612 13.0012 5.03525 12.0984 5.53073C 11.5392 5.81546 10.9078 5.93781 10.2793 5.88322C 9.65973 5.82768 9.06559 5.61658 8.55496 5.27056C 8.11655 4.97152 7.7463 4.58758 7.46739 4.14278C 7.18849 3.69798 7.00694 3.20191 6.93412 2.68564L 6.93412 2.42547L 7.19276 2.34993C 7.59797 2.23244 7.9687 2.14012 8.32218 2.05619C 9.67577 1.72888 10.65 1.49389 11.3311 0.167852L 11.4173 0L 26.255 0L 26.3412 0.151067C 26.7716 0.936439 27.4083 1.5967 28.1862 2.06458C 28.9733 2.48982 29.881 2.65475 30.7726 2.53457L 31.1865 2.49261L 31.1003 2.89545C 30.9778 3.46373 30.7097 3.99261 30.3208 4.43284C 29.9318 4.87307 29.4348 5.21034 28.8759 5.41324C 28.3098 5.63753 27.7023 5.74609 27.0913 5.73216C 26.4893 5.72821 25.8974 5.58128 25.367 5.30413C 24.9777 5.0981 24.6433 4.80644 24.3904 4.45237C 24.1374 4.0983 23.9729 3.69162 23.9099 3.26473L 21.4959 3.26473L 21.6856 4.67469L 23.2288 5.81608L 23.3409 5.97554C 23.5728 6.68424 23.5078 7.45345 23.1598 8.11566C 22.7708 8.77074 22.2001 9.30591 21.5131 9.6599C 21.6916 12.0189 22.0957 14.3566 22.7201 16.6426C 23.0463 17.913 23.5883 19.1214 24.3237 20.2178C 24.9862 19.1335 25.4118 17.9278 25.5739 16.6761C 25.8339 14.844 25.9032 12.9911 25.7808 11.1454C 25.4729 10.9489 25.2181 10.683 25.0381 10.3704C 24.858 10.0578 24.7579 9.7076 24.7462 9.34937C 24.8152 8.73671 25.3669 8.21637 26.4705 7.78835L 26.5481 7.78835C 26.9897 7.71221 27.4425 7.7235 27.8795 7.82156C 28.3165 7.91962 28.7287 8.10242 29.0915 8.35905C 29.7419 8.93197 30.1351 9.73067 30.1864 10.5831L 30.1864 10.6754C 29.8824 12.2197 29.8475 13.8029 30.0829 15.3585C 30.3459 17.0055 30.824 18.6132 31.5055 20.1423C 32.0486 19.8234 32.428 18.1952 32.6953 16.0383C 33.0788 12.0494 33.1854 8.03976 33.0143 4.03685L 33.0143 3.85221L 33.2039 3.76828C 33.4919 3.65147 33.8087 3.61942 34.1152 3.6761C 34.4217 3.73279 34.7044 3.87572 34.9282 4.0872C 35.6112 4.70564 36.1519 5.45791 36.5146 6.29446C 37.0029 7.31477 37.3841 8.38044 37.6526 9.47526C 38.1872 11.607 38.3251 13.8059 37.7906 15.0731C 38.1862 15.0047 38.594 15.0729 38.9434 15.266C 39.2929 15.4591 39.5621 15.7649 39.7046 16.1306C 39.9368 16.63 40.0347 17.1788 39.9891 17.7252C 39.9637 18.2619 39.7746 18.7791 39.4459 19.2107C 38.8941 19.8737 37.9889 20.1171 36.7474 19.3114C 36.5798 20.2013 36.2898 21.0651 35.8852 21.8795C 35.5413 22.5237 35.0448 23.0789 34.4368 23.4993C 35.0658 23.9555 35.5985 24.5254 36.0059 25.1778C 36.3962 25.8136 36.5139 26.5733 36.3335 27.2928C 36.1037 28.0298 35.6311 28.6728 34.9886 29.1224C 33.8847 29.8959 32.6284 30.4388 31.2986 30.717L 30.8675 30.8177L 30.9192 30.3897C 31.1112 29.3066 31.1112 28.1996 30.9192 27.1165C 30.7985 26.7305 30.5054 26.6801 29.9881 27.1165C 29.2466 27.9558 28.6862 27.3935 28.2638 25.9835C 27.946 24.8639 27.7012 23.7258 27.531 22.5761C 26.7205 25.0939 25.8498 27.0326 24.8152 27.4522C 23.6426 27.9306 22.3753 26.613 20.9527 22.2572C 20.8665 23.0965 20.832 23.9357 20.832 24.8254C 20.832 26.0843 20.9096 27.3431 21.0217 28.6104C 21.9522 28.8924 22.7885 29.411 23.4443 30.1127C 23.7228 30.4764 23.8733 30.918 23.8733 31.3716C 23.8733 31.8252 23.7228 32.2668 23.4443 32.6305L 23.3581 32.7732L 23.1857 32.7732C 19.7252 33.0068 16.2544 33.06 12.7881 32.9326C 9.85682 32.7396 7.91697 32.1605 7.83076 30.8764L 7.83076 30.7757L 8.34805 28.9545L 8.51185 28.3754L 8.8912 28.8538C 9.39987 29.5 9.84819 29.8693 10.1844 29.8022C 10.5207 29.735 10.8483 29.2147 11.1242 28.0565L 11.288 27.3683L 11.6846 27.9642C 12.0963 28.6652 12.6579 29.2719 13.3313 29.7434C 13.5079 29.8676 13.718 29.9386 13.9357 29.9475C 14.1533 29.9565 14.3688 29.903 14.5555 29.7938L 14.6245 29.7938C 14.8071 29.7523 14.9751 29.6644 15.1114 29.5391C 15.2477 29.4137 15.3475 29.2555 15.4005 29.0804C 15.5083 28.553 15.4635 28.0067 15.2711 27.5026C 14.0292 26.3625 12.8765 25.1338 11.8225 23.8266C 10.7283 22.4805 9.70668 21.0798 8.76188 19.6303C 8.35793 21.4097 8.26466 23.2425 8.48599 25.052C 8.54563 25.5674 8.56006 26.0868 8.5291 26.6046C 8.47737 27.0158 8.30494 27.2424 7.9687 27.2256C 7.12837 27.4695 6.25879 27.605 5.38224 27.6285C 4.50858 27.6481 3.63681 27.5406 2.79578 27.3096L 2.59749 27.2592L 2.59749 27.0578C 2.36471 25.1107 2.77853 24.4813 3.18375 23.8434C 3.38889 23.5552 3.54062 23.2342 3.63207 22.8951C 3.99696 21.9567 4.18108 20.9609 4.17522 19.9576C 4.17045 19.152 4.08964 18.3486 3.93382 17.5574C 3.4699 18.0612 2.87381 18.4326 2.20952 18.6316C 1.82224 18.7233 1.41345 18.663 1.07147 18.4638C 0.731609 18.2693 0.463177 17.9757 0.304157 17.6245C -0.0111861 16.8775 -0.0834089 16.0544 0.0972423 15.2662L 0.148969 15.1906Z"/>
<path id="path1_fill" d="M 0 0L 50 0L 50 44.8368C 39.951 61.0544 10.7843 61.0544 0 44.8368L 0 0Z"/>
<path id="path2_stroke_2x" d="M 0 0L 0 -1L -1 -1L -1 0L 0 0ZM 50 0L 51 0L 51 -1L 50 -1L 50 0ZM 50 44.8368L 50.85 45.3635L 51 45.1215L 51 44.8368L 50 44.8368ZM 0 44.8368L -1 44.8368L -1 45.139L -0.832699 45.3905L 0 44.8368ZM 0 1L 50 1L 50 -1L 0 -1L 0 1ZM 49 0L 49 44.8368L 51 44.8368L 51 0L 49 0ZM 49.15 44.3101C 44.3597 52.0408 34.937 56 25.2757 56C 15.6173 56 5.99138 52.0408 0.832699 44.2831L -0.832699 45.3905C 4.79293 53.8504 15.1425 58 25.2757 58C 35.4061 58 45.5913 53.8504 50.85 45.3635L 49.15 44.3101ZM 1 44.8368L 1 0L -1 0L -1 44.8368L 1 44.8368Z"/>
<path id="path3_fill" d="M 1.722 6.006C 1.722 7.224 1.722 8.442 1.694 9.618L 0.406 9.772L 0.406 10.346L 4.354 10.346L 4.354 9.772L 3.024 9.618C 2.996 8.75 2.996 7.896 2.996 7.14L 4.382 5.474L 6.608 9.632L 5.46 9.772L 5.46 10.346L 9.058 10.346L 9.058 9.772L 7.98 9.632L 5.152 4.55L 7.49 1.736L 8.848 1.554L 8.848 0.98L 5.628 0.98L 5.628 1.554L 6.636 1.75L 2.996 6.202L 2.996 5.32C 2.996 4.102 2.996 2.898 3.024 1.708L 4.354 1.554L 4.354 0.98L 0.406 0.98L 0.406 1.554L 1.694 1.708C 1.722 2.912 1.722 4.116 1.722 5.32L 1.722 6.006Z"/>
<path id="path4_fill" d="M 11.9872 9.604C 11.3432 9.604 10.8672 9.31 10.8672 8.568C 10.8672 8.148 11.0212 7.616 12.2392 7.14C 12.5332 7.028 13.0372 6.86 13.5272 6.72L 13.5272 8.876C 12.7292 9.436 12.4632 9.604 11.9872 9.604ZM 14.8152 10.486C 15.3052 10.486 15.6972 10.304 16.0332 9.758L 15.7532 9.45C 15.5992 9.632 15.4452 9.758 15.2072 9.758C 14.8992 9.758 14.7032 9.534 14.7032 8.932L 14.7032 5.95C 14.7032 4.186 14.0032 3.514 12.5332 3.514C 11.1052 3.514 10.0692 4.186 9.80317 5.25C 9.84517 5.614 10.0692 5.824 10.4612 5.824C 10.8392 5.824 11.0632 5.586 11.1892 5.152L 11.4552 4.242C 11.7492 4.172 12.0012 4.158 12.2112 4.158C 13.1352 4.158 13.5272 4.494 13.5272 5.852L 13.5272 6.202C 12.9672 6.328 12.3792 6.51 11.9452 6.664C 10.0552 7.35 9.62117 7.98 9.62117 8.778C 9.62117 9.94 10.4752 10.528 11.4972 10.528C 12.3232 10.528 12.7852 10.164 13.5552 9.408C 13.6672 10.066 14.1432 10.486 14.8152 10.486Z"/>
<path id="path5_fill" d="M 16.4642 0.63L 16.4642 1.12L 17.6122 1.26L 17.6122 7.406C 17.6122 8.134 17.5982 8.904 17.5842 9.646L 16.4642 9.842L 16.4642 10.346L 19.9362 10.346L 19.9362 9.842L 18.8162 9.646C 18.8022 9.044 18.7882 8.428 18.7882 7.826L 19.7122 6.874L 21.8682 10.346L 23.7722 10.346L 23.7722 9.842L 22.8482 9.674L 20.5522 6.02L 22.0922 4.438L 23.4082 4.242L 23.4082 3.696L 20.1602 3.696L 20.1602 4.242L 21.1822 4.494L 18.7882 6.986L 18.7882 2.1L 18.8442 0.112L 18.6482 0L 16.4642 0.63Z"/>
<path id="path6_fill" d="M 28.9645 3.514C 28.0825 3.514 27.0885 4.046 26.4025 4.816L 26.4025 2.1L 26.4585 0.112L 26.2625 0L 24.1205 0.63L 24.1205 1.12L 25.2685 1.26L 25.2685 7.406C 25.2685 8.022 25.2545 8.946 25.2405 9.646L 24.1905 9.842L 24.1905 10.346L 27.4385 10.346L 27.4385 9.842L 26.4725 9.646C 26.4585 8.946 26.4445 8.022 26.4445 7.406L 26.4445 5.432C 27.1585 4.788 27.7325 4.522 28.4185 4.522C 29.2445 4.522 29.5665 4.928 29.5665 6.216L 29.5665 7.406C 29.5665 8.05 29.5525 8.96 29.5385 9.66L 28.5165 9.842L 28.5165 10.346L 31.7645 10.346L 31.7645 9.842L 30.7845 9.646C 30.7705 8.946 30.7565 8.05 30.7565 7.406L 30.7565 6.104C 30.7565 4.27 30.1685 3.514 28.9645 3.514Z"/>
<path id="path7_fill" d="M 36.0287 3.514C 34.2787 3.514 32.8087 4.942 32.8087 7.084C 32.8087 9.226 34.0407 10.528 35.9307 10.528C 37.2047 10.528 38.1007 9.898 38.6187 8.904L 38.2827 8.638C 37.7787 9.226 37.2327 9.618 36.3367 9.618C 34.9927 9.618 34.0967 8.708 34.0687 6.986L 38.5347 6.986C 38.5907 6.804 38.6327 6.524 38.6327 6.202C 38.6327 4.508 37.4847 3.514 36.0287 3.514ZM 35.9447 4.158C 36.8127 4.158 37.4707 4.872 37.4707 5.67C 37.4707 6.076 37.3167 6.398 36.6447 6.398L 34.0967 6.398C 34.2507 4.774 35.1607 4.158 35.9447 4.158Z"/>
<path id="path8_fill" d="M 41.7934 8.778L 41.7934 4.438L 43.6974 4.438L 43.6974 3.696L 41.8214 3.696L 41.8914 1.792L 41.0514 1.792L 40.6874 3.668L 39.4414 3.822L 39.4414 4.438L 40.6034 4.438L 40.6034 7.742C 40.6034 8.288 40.5894 8.582 40.5894 8.932C 40.5894 10.024 41.2054 10.528 42.1854 10.528C 42.8994 10.528 43.4734 10.262 43.8374 9.786L 43.5014 9.422C 43.1514 9.674 42.8714 9.8 42.5634 9.8C 42.0874 9.8 41.7934 9.492 41.7934 8.778Z"/>
<path id="path9_fill" d="M 46.0101 1.974C 46.5281 1.974 46.9481 1.596 46.9481 1.078C 46.9481 0.532 46.5281 0.182 46.0101 0.182C 45.4781 0.182 45.0721 0.532 45.0721 1.078C 45.0721 1.596 45.4781 1.974 46.0101 1.974ZM 47.6061 10.346L 47.6061 9.842L 46.6261 9.646C 46.6121 8.946 46.5981 8.022 46.5981 7.406L 46.5981 5.558L 46.6401 3.654L 46.4301 3.514L 44.2741 4.368L 44.2741 4.858L 45.3941 4.984C 45.4221 5.544 45.4361 5.978 45.4361 6.748L 45.4361 7.406C 45.4361 8.022 45.4221 8.946 45.4081 9.646L 44.3581 9.842L 44.3581 10.346L 47.6061 10.346Z"/>
<path id="path10_fill" d="M 51.034 9.604C 50.39 9.604 49.914 9.31 49.914 8.568C 49.914 8.148 50.068 7.616 51.286 7.14C 51.58 7.028 52.084 6.86 52.574 6.72L 52.574 8.876C 51.776 9.436 51.51 9.604 51.034 9.604ZM 53.862 10.486C 54.352 10.486 54.744 10.304 55.08 9.758L 54.8 9.45C 54.646 9.632 54.492 9.758 54.254 9.758C 53.946 9.758 53.75 9.534 53.75 8.932L 53.75 5.95C 53.75 4.186 53.05 3.514 51.58 3.514C 50.152 3.514 49.116 4.186 48.85 5.25C 48.892 5.614 49.116 5.824 49.508 5.824C 49.886 5.824 50.11 5.586 50.236 5.152L 50.502 4.242C 50.796 4.172 51.048 4.158 51.258 4.158C 52.182 4.158 52.574 4.494 52.574 5.852L 52.574 6.202C 52.014 6.328 51.426 6.51 50.992 6.664C 49.102 7.35 48.668 7.98 48.668 8.778C 48.668 9.94 49.522 10.528 50.544 10.528C 51.37 10.528 51.832 10.164 52.602 9.408C 52.714 10.066 53.19 10.486 53.862 10.486Z"/>
<path id="path11_fill" d="M 60.3567 3.514C 59.4887 3.514 58.5367 4.032 57.8507 4.788L 57.7387 3.654L 57.5287 3.514L 55.5687 4.368L 55.5687 4.858L 56.6747 4.984C 56.7027 5.544 56.7167 5.964 56.7167 6.734L 56.7167 7.406C 56.7167 8.036 56.7027 8.946 56.6887 9.646L 55.6527 9.842L 55.6527 10.346L 58.9007 10.346L 58.9007 9.842L 57.9347 9.646C 57.9207 8.946 57.9067 8.022 57.9067 7.406L 57.9067 5.362C 58.6207 4.774 59.1667 4.522 59.8107 4.522C 60.6367 4.522 60.9727 4.928 60.9727 6.216L 60.9727 7.406C 60.9727 8.05 60.9587 8.96 60.9447 9.646L 59.9087 9.842L 59.9087 10.346L 63.1567 10.346L 63.1567 9.842L 62.1767 9.646C 62.1627 8.946 62.1487 8.05 62.1487 7.406L 62.1487 6.104C 62.1487 4.27 61.5607 3.514 60.3567 3.514Z"/>
<path id="path12_fill" d="M 3.36 24.006C 3.36 25.224 3.36 26.428 3.332 27.618L 1.904 27.772L 1.904 28.346L 6.132 28.346L 6.132 27.772L 4.704 27.618C 4.676 26.414 4.676 25.21 4.676 24.006L 4.676 23.32C 4.676 22.088 4.676 20.87 4.704 19.68L 6.846 19.68L 7.154 21.472L 7.966 21.472L 7.854 18.98L 0.182 18.98L 0.07 21.472L 0.882 21.472L 1.19 19.68L 3.332 19.68C 3.36 20.898 3.36 22.116 3.36 23.32L 3.36 24.006Z"/>
<path id="path13_fill" d="M 8.40339 28.346L 11.8054 28.346L 11.8054 27.842L 10.6574 27.632C 10.6434 26.932 10.6294 26.022 10.6294 25.406L 10.6294 24.356C 10.8674 23.558 11.2314 22.97 11.7914 22.55L 11.9594 22.704C 12.2254 22.928 12.4914 23.054 12.8134 23.054C 13.3734 23.054 13.6394 22.69 13.6394 22.032C 13.4714 21.724 13.0514 21.514 12.6314 21.514C 11.8754 21.514 11.0774 22.186 10.6154 23.306L 10.4614 21.654L 10.2514 21.514L 8.29139 22.368L 8.29139 22.858L 9.39739 22.984C 9.42539 23.544 9.43939 23.964 9.43939 24.734L 9.43939 25.406C 9.43939 26.036 9.42539 26.96 9.41139 27.66L 8.40339 27.842L 8.40339 28.346Z"/>
<path id="path14_fill" d="M 16.5809 27.604C 15.9369 27.604 15.4609 27.31 15.4609 26.568C 15.4609 26.148 15.6149 25.616 16.8329 25.14C 17.1269 25.028 17.6309 24.86 18.1209 24.72L 18.1209 26.876C 17.3229 27.436 17.0569 27.604 16.5809 27.604ZM 19.4089 28.486C 19.8989 28.486 20.2909 28.304 20.6269 27.758L 20.3469 27.45C 20.1929 27.632 20.0389 27.758 19.8009 27.758C 19.4929 27.758 19.2969 27.534 19.2969 26.932L 19.2969 23.95C 19.2969 22.186 18.5969 21.514 17.1269 21.514C 15.6989 21.514 14.6629 22.186 14.3969 23.25C 14.4389 23.614 14.6629 23.824 15.0549 23.824C 15.4329 23.824 15.6569 23.586 15.7829 23.152L 16.0489 22.242C 16.3429 22.172 16.5949 22.158 16.8049 22.158C 17.7289 22.158 18.1209 22.494 18.1209 23.852L 18.1209 24.202C 17.5609 24.328 16.9729 24.51 16.5389 24.664C 14.6489 25.35 14.2149 25.98 14.2149 26.778C 14.2149 27.94 15.0689 28.528 16.0909 28.528C 16.9169 28.528 17.3789 28.164 18.1489 27.408C 18.2609 28.066 18.7369 28.486 19.4089 28.486Z"/>
<path id="path15_fill" d="M 22.598 25.056C 22.598 23.152 23.494 22.312 24.53 22.312C 24.992 22.312 25.468 22.48 26.112 23.04L 26.112 26.918C 25.594 27.506 25.16 27.73 24.544 27.73C 23.424 27.73 22.598 26.89 22.598 25.056ZM 26.252 28.486L 28.422 28.346L 28.422 27.842L 27.288 27.66L 27.288 20.1L 27.344 18.112L 27.148 18L 24.964 18.63L 24.964 19.12L 26.154 19.26L 26.154 22.424C 25.58 21.752 24.992 21.514 24.32 21.514C 22.612 21.514 21.338 22.942 21.338 25.084C 21.338 27.128 22.486 28.528 24.194 28.528C 25.062 28.528 25.664 28.164 26.154 27.506L 26.252 28.486Z"/>
<path id="path16_fill" d="M 30.7933 19.974C 31.3113 19.974 31.7313 19.596 31.7313 19.078C 31.7313 18.532 31.3113 18.182 30.7933 18.182C 30.2613 18.182 29.8553 18.532 29.8553 19.078C 29.8553 19.596 30.2613 19.974 30.7933 19.974ZM 32.3893 28.346L 32.3893 27.842L 31.4093 27.646C 31.3953 26.946 31.3813 26.022 31.3813 25.406L 31.3813 23.558L 31.4233 21.654L 31.2133 21.514L 29.0573 22.368L 29.0573 22.858L 30.1773 22.984C 30.2053 23.544 30.2193 23.978 30.2193 24.748L 30.2193 25.406C 30.2193 26.022 30.2053 26.946 30.1913 27.646L 29.1413 27.842L 29.1413 28.346L 32.3893 28.346Z"/>
<path id="path17_fill" d="M 35.2993 26.778L 35.2993 22.438L 37.2033 22.438L 37.2033 21.696L 35.3273 21.696L 35.3973 19.792L 34.5573 19.792L 34.1933 21.668L 32.9473 21.822L 32.9473 22.438L 34.1092 22.438L 34.1092 25.742C 34.1092 26.288 34.0952 26.582 34.0952 26.932C 34.0952 28.024 34.7112 28.528 35.6912 28.528C 36.4053 28.528 36.9792 28.262 37.3433 27.786L 37.0073 27.422C 36.6573 27.674 36.3773 27.8 36.0693 27.8C 35.5933 27.8 35.2993 27.492 35.2993 26.778Z"/>
<path id="path18_fill" d="M 39.516 19.974C 40.034 19.974 40.454 19.596 40.454 19.078C 40.454 18.532 40.034 18.182 39.516 18.182C 38.984 18.182 38.578 18.532 38.578 19.078C 38.578 19.596 38.984 19.974 39.516 19.974ZM 41.112 28.346L 41.112 27.842L 40.132 27.646C 40.118 26.946 40.104 26.022 40.104 25.406L 40.104 23.558L 40.146 21.654L 39.936 21.514L 37.78 22.368L 37.78 22.858L 38.9 22.984C 38.928 23.544 38.942 23.978 38.942 24.748L 38.942 25.406C 38.942 26.022 38.928 26.946 38.914 27.646L 37.864 27.842L 37.864 28.346L 41.112 28.346Z"/>
<path id="path19_fill" d="M 45.3799 28.528C 47.0039 28.528 48.5999 27.366 48.5999 25.056C 48.5999 22.732 46.9899 21.514 45.3799 21.514C 43.7559 21.514 42.1739 22.732 42.1739 25.056C 42.1739 27.366 43.7419 28.528 45.3799 28.528ZM 45.3799 27.898C 44.1619 27.898 43.5039 26.932 43.5039 25.056C 43.5039 23.166 44.1619 22.158 45.3799 22.158C 46.5839 22.158 47.2699 23.166 47.2699 25.056C 47.2699 26.932 46.5839 27.898 45.3799 27.898Z"/>
<path id="path20_fill" d="M 54.4915 21.514C 53.6235 21.514 52.6715 22.032 51.9855 22.788L 51.8735 21.654L 51.6635 21.514L 49.7035 22.368L 49.7035 22.858L 50.8095 22.984C 50.8375 23.544 50.8515 23.964 50.8515 24.734L 50.8515 25.406C 50.8515 26.036 50.8375 26.946 50.8235 27.646L 49.7875 27.842L 49.7875 28.346L 53.0355 28.346L 53.0355 27.842L 52.0695 27.646C 52.0555 26.946 52.0415 26.022 52.0415 25.406L 52.0415 23.362C 52.7555 22.774 53.3015 22.522 53.9455 22.522C 54.7715 22.522 55.1075 22.928 55.1075 24.216L 55.1075 25.406C 55.1075 26.05 55.0935 26.96 55.0795 27.646L 54.0435 27.842L 54.0435 28.346L 57.2915 28.346L 57.2915 27.842L 56.3115 27.646C 56.2975 26.946 56.2835 26.05 56.2835 25.406L 56.2835 24.104C 56.2835 22.27 55.6955 21.514 54.4915 21.514Z"/>
<path id="path21_fill" d="M 60.7137 27.604C 60.0697 27.604 59.5937 27.31 59.5937 26.568C 59.5937 26.148 59.7477 25.616 60.9657 25.14C 61.2597 25.028 61.7637 24.86 62.2537 24.72L 62.2537 26.876C 61.4557 27.436 61.1897 27.604 60.7137 27.604ZM 63.5417 28.486C 64.0317 28.486 64.4237 28.304 64.7597 27.758L 64.4797 27.45C 64.3257 27.632 64.1717 27.758 63.9337 27.758C 63.6257 27.758 63.4297 27.534 63.4297 26.932L 63.4297 23.95C 63.4297 22.186 62.7297 21.514 61.2597 21.514C 59.8317 21.514 58.7957 22.186 58.5297 23.25C 58.5717 23.614 58.7957 23.824 59.1877 23.824C 59.5657 23.824 59.7897 23.586 59.9157 23.152L 60.1817 22.242C 60.4757 22.172 60.7277 22.158 60.9377 22.158C 61.8617 22.158 62.2537 22.494 62.2537 23.852L 62.2537 24.202C 61.6937 24.328 61.1057 24.51 60.6717 24.664C 58.7817 25.35 58.3477 25.98 58.3477 26.778C 58.3477 27.94 59.2017 28.528 60.2237 28.528C 61.0497 28.528 61.5117 28.164 62.2817 27.408C 62.3937 28.066 62.8697 28.486 63.5417 28.486Z"/>
<path id="path22_fill" d="M 65.1908 18.63L 65.1908 19.12L 66.3388 19.26L 66.3388 25.406C 66.3388 26.148 66.3248 26.89 66.3108 27.646L 65.1908 27.842L 65.1908 28.346L 68.6628 28.346L 68.6628 27.842L 67.5428 27.646C 67.5288 26.904 67.5148 26.148 67.5148 25.406L 67.5148 20.1L 67.5708 18.112L 67.3748 18L 65.1908 18.63Z"/>
<path id="path23_fill" d="M 8.988 46.444L 9.59 46.444L 11.956 37.722L 13.132 37.554L 13.132 36.98L 9.954 36.98L 9.954 37.554L 11.228 37.736L 9.436 44.204L 7.364 37.722L 8.778 37.554L 8.778 36.98L 4.97 36.98L 4.97 37.554L 6.384 37.722L 4.242 44.134L 2.52 37.708L 3.808 37.554L 3.808 36.98L 0 36.98L 0 37.554L 1.162 37.694L 3.682 46.444L 4.284 46.444L 6.566 39.192L 8.988 46.444Z"/>
<path id="path24_fill" d="M 15.098 37.974C 15.616 37.974 16.036 37.596 16.036 37.078C 16.036 36.532 15.616 36.182 15.098 36.182C 14.566 36.182 14.16 36.532 14.16 37.078C 14.16 37.596 14.566 37.974 15.098 37.974ZM 16.694 46.346L 16.694 45.842L 15.714 45.646C 15.7 44.946 15.686 44.022 15.686 43.406L 15.686 41.558L 15.728 39.654L 15.518 39.514L 13.362 40.368L 13.362 40.858L 14.482 40.984C 14.51 41.544 14.524 41.978 14.524 42.748L 14.524 43.406C 14.524 44.022 14.51 44.946 14.496 45.646L 13.446 45.842L 13.446 46.346L 16.694 46.346Z"/>
<path id="path25_fill" d="M 22.3899 39.514C 21.5219 39.514 20.5699 40.032 19.8839 40.788L 19.7719 39.654L 19.5619 39.514L 17.6019 40.368L 17.6019 40.858L 18.7079 40.984C 18.7359 41.544 18.7499 41.964 18.7499 42.734L 18.7499 43.406C 18.7499 44.036 18.7359 44.946 18.7219 45.646L 17.6859 45.842L 17.6859 46.346L 20.9339 46.346L 20.9339 45.842L 19.9679 45.646C 19.9539 44.946 19.9399 44.022 19.9399 43.406L 19.9399 41.362C 20.6539 40.774 21.1999 40.522 21.8439 40.522C 22.6699 40.522 23.0059 40.928 23.0059 42.216L 23.0059 43.406C 23.0059 44.05 22.9919 44.96 22.9779 45.646L 21.9419 45.842L 21.9419 46.346L 25.1899 46.346L 25.1899 45.842L 24.2099 45.646C 24.1959 44.946 24.1819 44.05 24.1819 43.406L 24.1819 42.104C 24.1819 40.27 23.5939 39.514 22.3899 39.514Z"/>
<path id="path26_fill" d="M 29.4662 39.514C 27.7162 39.514 26.2462 40.942 26.2462 43.084C 26.2462 45.226 27.4782 46.528 29.3682 46.528C 30.6422 46.528 31.5382 45.898 32.0562 44.904L 31.7202 44.638C 31.2162 45.226 30.6702 45.618 29.7742 45.618C 28.4302 45.618 27.5342 44.708 27.5062 42.986L 31.9722 42.986C 32.0282 42.804 32.0702 42.524 32.0702 42.202C 32.0702 40.508 30.9222 39.514 29.4662 39.514ZM 29.3822 40.158C 30.2502 40.158 30.9082 40.872 30.9082 41.67C 30.9082 42.076 30.7542 42.398 30.0822 42.398L 27.5342 42.398C 27.6882 40.774 28.5982 40.158 29.3822 40.158Z"/>
<path id="path27_fill" d="M 37.9609 39.514C 37.1069 39.514 36.1829 40.032 35.5109 40.774L 35.3989 39.654L 35.1889 39.514L 33.2289 40.368L 33.2289 40.858L 34.3349 40.984C 34.3629 41.544 34.3769 41.964 34.3769 42.734L 34.3769 43.406C 34.3769 44.036 34.3629 44.946 34.3489 45.646L 33.3129 45.842L 33.3129 46.346L 36.5609 46.346L 36.5609 45.842L 35.5949 45.646C 35.5809 44.946 35.5669 44.022 35.5669 43.406L 35.5669 41.362C 36.2529 40.774 36.7849 40.522 37.4289 40.522C 38.2549 40.522 38.5769 40.942 38.5769 42.216L 38.5769 43.406C 38.5769 44.05 38.5629 44.96 38.5489 45.646L 37.5129 45.842L 37.5129 46.346L 40.7609 46.346L 40.7609 45.842L 39.7809 45.646C 39.7669 44.946 39.7529 44.05 39.7529 43.406L 39.7529 42.104C 39.7529 41.852 39.7389 41.614 39.7249 41.404C 40.4389 40.76 41.0129 40.522 41.6009 40.522C 42.4129 40.522 42.7769 40.886 42.7769 42.188L 42.7769 43.406C 42.7769 44.05 42.7629 44.96 42.7489 45.646L 41.7129 45.842L 41.7129 46.346L 44.9609 46.346L 44.9609 45.842L 43.9809 45.646C 43.9669 44.946 43.9529 44.05 43.9529 43.406L 43.9529 41.964C 43.9529 40.228 43.2949 39.514 42.1609 39.514C 41.2649 39.514 40.3409 39.948 39.6129 40.83C 39.3889 39.906 38.8429 39.514 37.9609 39.514Z"/>
<path id="path28_fill" d="M 48.368 45.604C 47.724 45.604 47.248 45.31 47.248 44.568C 47.248 44.148 47.402 43.616 48.62 43.14C 48.914 43.028 49.418 42.86 49.908 42.72L 49.908 44.876C 49.11 45.436 48.844 45.604 48.368 45.604ZM 51.196 46.486C 51.686 46.486 52.078 46.304 52.414 45.758L 52.134 45.45C 51.98 45.632 51.826 45.758 51.588 45.758C 51.28 45.758 51.084 45.534 51.084 44.932L 51.084 41.95C 51.084 40.186 50.384 39.514 48.914 39.514C 47.486 39.514 46.45 40.186 46.184 41.25C 46.226 41.614 46.45 41.824 46.842 41.824C 47.22 41.824 47.444 41.586 47.57 41.152L 47.836 40.242C 48.13 40.172 48.382 40.158 48.592 40.158C 49.516 40.158 49.908 40.494 49.908 41.852L 49.908 42.202C 49.348 42.328 48.76 42.51 48.326 42.664C 46.436 43.35 46.002 43.98 46.002 44.778C 46.002 45.94 46.856 46.528 47.878 46.528C 48.704 46.528 49.166 46.164 49.936 45.408C 50.048 46.066 50.524 46.486 51.196 46.486Z"/>
<path id="path29_fill" d="M 52.8451 36.63L 52.8451 37.12L 53.9931 37.26L 53.9931 43.406C 53.9931 44.134 53.9791 44.904 53.9651 45.646L 52.8451 45.842L 52.8451 46.346L 56.3171 46.346L 56.3171 45.842L 55.1971 45.646C 55.1831 45.044 55.1691 44.428 55.1691 43.826L 56.0931 42.874L 58.2491 46.346L 60.1531 46.346L 60.1531 45.842L 59.2291 45.674L 56.9331 42.02L 58.4731 40.438L 59.7891 40.242L 59.7891 39.696L 56.5411 39.696L 56.5411 40.242L 57.5631 40.494L 55.1691 42.986L 55.1691 38.1L 55.2251 36.112L 55.0291 36L 52.8451 36.63Z"/>
<path id="path30_fill" d="M 62.2933 37.974C 62.8113 37.974 63.2313 37.596 63.2313 37.078C 63.2313 36.532 62.8113 36.182 62.2933 36.182C 61.7613 36.182 61.3553 36.532 61.3553 37.078C 61.3553 37.596 61.7613 37.974 62.2933 37.974ZM 63.8893 46.346L 63.8893 45.842L 62.9093 45.646C 62.8953 44.946 62.8813 44.022 62.8813 43.406L 62.8813 41.558L 62.9233 39.654L 62.7133 39.514L 60.5573 40.368L 60.5573 40.858L 61.6773 40.984C 61.7053 41.544 61.7193 41.978 61.7193 42.748L 61.7193 43.406C 61.7193 44.022 61.7053 44.946 61.6913 45.646L 60.6413 45.842L 60.6413 46.346L 63.8893 46.346Z"/>
<path id="path31_fill" d="M 69.5853 39.514C 68.7173 39.514 67.7653 40.032 67.0793 40.788L 66.9673 39.654L 66.7572 39.514L 64.7972 40.368L 64.7972 40.858L 65.9033 40.984C 65.9313 41.544 65.9453 41.964 65.9453 42.734L 65.9453 43.406C 65.9453 44.036 65.9313 44.946 65.9173 45.646L 64.8812 45.842L 64.8812 46.346L 68.1292 46.346L 68.1292 45.842L 67.1633 45.646C 67.1493 44.946 67.1353 44.022 67.1353 43.406L 67.1353 41.362C 67.8493 40.774 68.3953 40.522 69.0393 40.522C 69.8653 40.522 70.2012 40.928 70.2012 42.216L 70.2012 43.406C 70.2012 44.05 70.1872 44.96 70.1732 45.646L 69.1373 45.842L 69.1373 46.346L 72.3853 46.346L 72.3853 45.842L 71.4053 45.646C 71.3913 44.946 71.3773 44.05 71.3773 43.406L 71.3773 42.104C 71.3773 40.27 70.7893 39.514 69.5853 39.514Z"/>
<path id="path32_fill" d="M 76.2695 49.048C 75.1635 49.048 74.4635 48.684 74.4635 47.774C 74.4635 47.312 74.6175 46.934 75.0095 46.514C 75.1915 46.528 75.3875 46.542 75.5835 46.542L 77.2215 46.542C 78.2295 46.542 78.6215 47.018 78.6215 47.634C 78.6215 48.418 77.7955 49.048 76.2695 49.048ZM 73.6375 41.81C 73.6375 42.762 74.0435 43.42 74.7155 43.784C 74.0155 44.428 73.7635 44.904 73.7635 45.338C 73.7635 45.884 74.0715 46.234 74.6875 46.402C 73.6515 46.906 73.3155 47.396 73.3155 47.998C 73.3155 48.992 74.1835 49.692 76.2135 49.692C 78.5095 49.692 79.6715 48.488 79.6715 47.27C 79.6715 46.136 78.9575 45.464 77.4175 45.464L 75.5835 45.464C 74.9255 45.464 74.7715 45.226 74.7715 44.848C 74.7715 44.526 74.8835 44.26 75.1215 43.952C 75.4295 44.05 75.7795 44.106 76.1575 44.106C 77.6135 44.106 78.6915 43.28 78.6915 41.81C 78.6915 41.306 78.5795 40.872 78.3695 40.536L 79.7415 40.536L 79.7415 39.654L 79.5315 39.514L 77.9495 40.06C 77.5015 39.696 76.8855 39.514 76.1715 39.514C 74.7155 39.514 73.6375 40.34 73.6375 41.81ZM 76.1855 40.088C 77.0535 40.088 77.5575 40.774 77.5575 41.768C 77.5575 42.804 77.0255 43.546 76.1295 43.546C 75.2615 43.546 74.7715 42.846 74.7715 41.824C 74.7715 40.802 75.3035 40.088 76.1855 40.088Z"/>
</defs>
</svg>
