<svg xmlns="http://www.w3.org/2000/svg" viewBox="0 0 8.93 23.73"><defs><style>.cls-1{fill:#d9a65f;}</style></defs><title>israel</title><g id="Слой_2" data-name="Слой 2"><g id="Слой_1-2" data-name="Слой 1"><polygon class="cls-1" points="5.8 7.47 5.8 7.47 5.8 7.47 7.12 5.66 8.93 3.18 8.12 1.88 6.95 0 6.95 0 6.95 0 6.91 0.54 3.87 6.65 3.87 6.65 3.87 6.65 3.87 6.65 3.57 7.54 3.22 8.57 1.45 12.56 0 15.83 2.93 23.02 2.76 23.5 2.97 23.61 3.18 23.73 3.18 23.73 3.18 23.73 3.84 20.77 4.49 17.8 4.73 16.87 5.01 15.82 3.5 13.23 3.96 11.64 4.36 10.28 5.54 10.25 5.6 10.25 5.94 7.53 3.95 6.69 5.8 7.47"/></g></g></svg>