<svg xmlns="http://www.w3.org/2000/svg" viewBox="0 0 60.88 62.57"><defs><style>.cls-1{fill:#d9a65f;}</style></defs><title>jap</title><g id="Слой_2" data-name="Слой 2"><g id="Слой_1-2" data-name="Слой 1"><polygon class="cls-1" points="43.39 20.81 40.74 21.55 40.15 26 40.13 26.17 40.06 26.33 38.01 31.76 37.96 31.91 37.87 32.04 35.34 36.02 35.2 36.24 34.99 36.4 31.25 39.3 30.5 39.88 29.66 39.46 28.01 38.63 25.85 40.96 23.39 44.94 23.11 45.41 22.59 45.58 20.05 46.42 19.91 46.47 19.77 46.48 14.82 47.09 14.77 47.1 14.72 47.1 9.14 47.44 4.3 51.06 6.43 50.54 16.69 48.01 17.89 47.72 18.41 48.83 19.67 51.54 22.64 51.39 23.69 49.38 23.91 48.94 24.35 48.73 25.56 48.12 25.82 47.99 26.12 47.97 31.31 47.61 31.42 47.6 31.54 47.61 33.86 47.79 35.79 45.87 36.14 45.52 36.62 45.45 39.43 45.01 40.33 40.26 41.28 34.02 41.35 33.61 41.62 33.29 44.91 29.36 43.39 20.81"/><path class="cls-1" d="M59.81,6.75,57.87,8.48l-5.66,2.66L50,11.92l-5.72-1.35-.25-.06-.25,0-2.26.24.53-.81,3-1.27.62-.27.21-.64,1.2-3.62L47.15,4v-.2L47.35.47l1-.47,8.23,6,.56.41.67-.16,3-.72Z"/><polygon class="cls-1" points="13.22 54.61 10.14 55.78 10.34 54.02 12.94 53.28 14.13 53.42 13.22 54.61"/><polygon class="cls-1" points="1.38 56.03 0 56.34 0.06 56.73 0.65 60.72 1.23 62.57 3.69 58.89 3.21 57.39 1.38 56.03"/></g></g></svg>