<svg xmlns="http://www.w3.org/2000/svg" viewBox="0 0 162.46 73.38"><defs><style>.РЎС‚РёР»СЊ-РіСЂР°С„РёРєРё-11{fill:#d9a65f;}</style></defs><title>kazah</title><g id="Слой_2" data-name="Слой 2"><g id="Слой_1-2" data-name="Слой 1"><polygon class="РЎС‚РёР»СЊ-РіСЂР°С„РёРєРё-11" points="136.42 59.28 136.4 59.22 136.38 59.15 135.47 55.62 135.2 54.59 136.09 54 138.44 52.41 138.69 52.24 138.99 52.19 142.83 51.43 143.16 51.37 143.59 51.45 144.74 51.72 144.74 51.49 144.71 51.27 147.16 43.63 147.44 42.79 148.54 42.79 151.3 42.79 151.37 42.79 151.44 42.59 154.86 42.8 157.22 41.87 156.85 39.81 156.73 39.1 157.19 38.55 159.83 35.48 161.5 33.36 162.46 31.58 162.39 31.45 161.94 31.41 158.87 31.98 158.18 32.11 157.64 31.66 155.59 29.98 155.37 29.8 155.24 29.56 154.5 28.26 152.18 26.34 150.16 24.67 146.84 25.63 146.52 25.72 146.19 25.67 142.21 25.04 141.86 24.98 141.57 24.78 139.5 23.29 138.04 24.92 136.66 26.47 135.62 24.68 131.45 17.46 124.02 8.69 123.85 8.49 123.76 8.25 122.92 6.03 121.58 5.9 118.28 7.75 118.2 7.79 118.11 7.83 113.69 9.63 113.58 9.68 113.46 9.7 110.38 10.44 107.09 11.21 108.72 8.25 109.1 7.56 107.2 7.29 107.14 7.28 107.08 7.27 105.91 7.01 105.64 6.95 105.42 6.8 104.37 6.12 101.22 6.66 98.94 7.04 99.52 4.8 99.87 3.44 99.4 1.5 97.55 0.36 94.97 0 90.25 1.1 84.33 3.07 84.23 3.1 84.13 3.12 78.42 4.18 74.34 5.43 74.27 5.46 74.2 5.47 68.05 6.73 67.98 6.74 67.91 6.75 63.02 7.3 62.98 7.3 62.93 7.3 61 7.41 61.05 8.48 63.89 9.91 68 11.99 63.46 12.73 60.09 13.28 59.59 15.23 59.48 15.7 59.12 16 57.47 17.41 57.75 17.97 60.04 18.67 60.75 18.89 61.01 19.58 62.09 22.49 62.53 23.68 61.42 24.31 58.88 25.76 58.25 26.12 57.57 25.84 55.59 25.03 54.82 26.07 53.99 27.2 52.81 26.45 50.9 25.24 48.53 24.13 44.85 23.96 42.74 23.8 39.04 24.99 38.89 25.04 38.73 25.05 34.93 25.6 34.85 25.79 34.78 25.79 32.43 25.79 32.07 25.79 31.76 25.45 30.66 24.81 30.5 24.68 30.36 24.54 27.16 21.96 22.96 20.79 20.3 20.79 18.33 20.79 15.57 21.48 11.54 23.27 9.74 24.88 8.88 26.57 8.54 28.86 8.16 31.52 6.1 29.79 3.67 27.76 2.44 28.51 1.14 30.03 1.81 31.08 2.49 32.16 1.54 33.01 0.38 34.03 0 35.11 1.41 36.1 1.81 36.38 1.96 36.85 2.33 37.93 4.08 37.82 4.82 37.78 5.3 38.33 7.84 41.21 8.1 41.51 8.18 41.9 8.67 44.24 9.3 45.49 9.38 45.54 9.51 45.44 9.75 45.37 18.32 42.6 18.68 42.48 19.06 42.56 25.34 43.76 26.46 43.97 26.55 45.11 27.04 51.14 27.14 52.38 25.94 52.71 22.01 53.79 17.73 55.31 17.32 56.84 17.18 57.41 16.69 57.72 16.34 57.94 17.94 59.3 18.21 59.53 18.36 59.86 19.48 62.54 21.95 63.98 22.14 64.09 22.29 64.25 24.22 66.3 24.48 66.57 24.57 66.93 24.83 67.9 28.5 65.96 29.35 65.51 30.12 66.1 34.85 69.77 35.63 69.94 36.07 53.7 36.1 52.58 37.18 52.29 46.87 49.72 46.91 49.64 47.34 48.78 48.3 48.81 52.03 48.93 52.14 48.93 52.24 48.95 54.91 49.42 55.73 49.56 56.04 50.33 58.11 55.44 62.22 59.94 66.82 59.66 66.9 59.65 66.97 59.65 75.2 59.98 75.67 60 76.04 60.28 79.27 62.69 79.7 63.01 79.83 63.53 80.73 67.23 82.59 70.68 85.53 71.48 85.74 71.54 85.92 71.66 88.71 73.38 89.74 73.03 93.72 69.97 94.06 69.72 94.48 69.67 96.05 69.51 96.91 67.93 97 67.77 97.13 67.63 99.67 64.87 100.1 64.4 100.74 64.38 106.17 64.27 109.54 63.7 113.62 62.07 114.1 61.88 114.59 62.03 119.85 63.54 130.19 64.14 130.34 64.15 130.5 64.19 134.38 65.27 134.45 65.29 134.53 65.32 135.84 65.84 136.06 65.53 137.79 63.08 136.42 59.28"/></g></g></svg>