<svg xmlns="http://www.w3.org/2000/svg" viewBox="0 0 662 511.33"><defs><style>.cls-1,.cls-2,.cls-3{fill:none;stroke:#fff;}.cls-1,.cls-2{stroke-miterlimit:10;}.cls-2{stroke-width:2px;}.cls-4,.cls-5{fill:#fff;}.cls-5{opacity:0.2;}</style></defs><title>ktw_bg_2</title><g id="Слой_2" data-name="Слой 2"><g id="Слой_1-2" data-name="Слой 1"><path class="cls-1" d="M37.5,89.5V64.94c0-7.36,8-12.58,10.5-14L51.32,49l3,2c3.12,1.9,10.15,7.05,10.15,13.93V89.5Z"/><path class="cls-1" d="M58.5,83.5h-14V64.94c0-4.2,7-8.41,7-8.41s7,4.42,7,8.41Z"/><path class="cls-1" d="M181.5,89.5V64.94c0-7.36,7.82-12.58,10.28-14L195,49l3.2,2c3.12,1.9,10.31,7.05,10.31,13.93V89.5Z"/><path class="cls-1" d="M202.5,83.5h-15V64.94c0-4.2,7.5-8.41,7.5-8.41s7.5,4.42,7.5,8.41Z"/><line class="cls-1" x1="105.5" y1="55" x2="105.5" y2="89"/><line class="cls-1" x1="103" y1="62.5" x2="107" y2="62.5"/><line class="cls-1" x1="103" y1="80.5" x2="107" y2="80.5"/><line class="cls-1" x1="68" y1="62.5" x2="71" y2="62.5"/><line class="cls-1" x1="68" y1="80.5" x2="71" y2="80.5"/><line class="cls-1" x1="32" y1="62.5" x2="35" y2="62.5"/><line class="cls-1" x1="32" y1="80.5" x2="35" y2="80.5"/><line class="cls-1" x1="9" y1="62.5" x2="11" y2="62.5"/><line class="cls-1" x1="9" y1="80.5" x2="11" y2="80.5"/><line class="cls-1" x1="176" y1="62.5" x2="178" y2="62.5"/><line class="cls-1" x1="176" y1="80.5" x2="178" y2="80.5"/><line class="cls-1" x1="141.5" y1="55" x2="141.5" y2="89"/><line class="cls-1" x1="139" y1="62.5" x2="143" y2="62.5"/><line class="cls-1" x1="139" y1="80.5" x2="143" y2="80.5"/><polyline class="cls-1" points="67.5 89 67.5 55.5 178.5 55.5 178.5 89"/><polyline class="cls-1" points="8.5 89 8.5 55.5 35.5 55.5 35.5 89"/><line class="cls-1" x1="235" y1="62.5" x2="238" y2="62.5"/><line class="cls-1" x1="235" y1="80.5" x2="238" y2="80.5"/><line class="cls-1" x1="212" y1="62.5" x2="214" y2="62.5"/><line class="cls-1" x1="212" y1="80.5" x2="214" y2="80.5"/><polyline class="cls-1" points="211.5 89 211.5 55.5 238.5 55.5 238.5 89"/><path class="cls-1" d="M78,86.28"/><rect class="cls-2" x="2" y="90" width="240" height="17"/><line class="cls-2" x1="238" y1="81" x2="277" y2="81"/><polyline class="cls-2" points="584 107 584 77 636 77 636 107"/><line class="cls-2" x1="584" y1="23" x2="584" y2="77"/><polyline class="cls-2" points="276 23 289 23 289 63 311 63 311 99 553 99 553 64 573 64 573 23 584 23"/><line class="cls-2" x1="276" y1="108" x2="276" y2="23"/><rect class="cls-3" x="273.5" y="17.5" width="315" height="5"/><rect class="cls-3" x="269.5" y="11.5" width="323" height="6"/><rect class="cls-3" x="265.5" y="1.5" width="331" height="10"/><rect class="cls-1" x="273.5" y="17.5" width="315" height="5"/><rect class="cls-1" x="269.5" y="11.5" width="323" height="6"/><rect class="cls-1" x="265.5" y="1.5" width="331" height="10"/><path class="cls-4" d="M597,1V12h-4v6h-4v5H273V18h-4V12h-4V1H597m1-1H264V13h4v6h4v5H590V19h4V13h4V0Z"/><line class="cls-1" x1="365.5" y1="22" x2="365.5" y2="1"/><line class="cls-1" x1="429.5" y1="22" x2="429.5" y2="1"/><line class="cls-1" x1="493.5" y1="22" x2="493.5" y2="1"/><line class="cls-1" x1="552.5" y1="64" x2="552.5" y2="22"/><line class="cls-1" x1="311.5" y1="64" x2="311.5" y2="22"/><rect class="cls-1" x="427.5" y="22.5" width="5" height="76"/><rect class="cls-1" x="490.5" y="22.5" width="5" height="76"/><rect class="cls-1" x="362.5" y="22.5" width="5" height="76"/><path class="cls-1" d="M355.92,267.72l1.76-2.65a1.47,1.47,0,0,1,1.38-.58h16.05a1.47,1.47,0,0,1,1.38.58l1.73,2.7a.75.75,0,0,1,0,.88L376.32,271a1.64,1.64,0,0,1-1.45.52H358.92a1.65,1.65,0,0,1-1.54-.68l-1.47-2.33A.67.67,0,0,1,355.92,267.72Z"/><path class="cls-1" d="M358.5,271.5h17a0,0,0,0,1,0,0V274A1.48,1.48,0,0,1,374,275.5H360A1.53,1.53,0,0,1,358.5,274V271.5A0,0,0,0,1,358.5,271.5Z"/><path class="cls-1" d="M360,389.5H373.7a1.8,1.8,0,0,1,1.8,1.8v2.2a0,0,0,0,1,0,0h-17a0,0,0,0,1,0,0V391A1.53,1.53,0,0,1,360,389.5Z"/><path class="cls-1" d="M360.26,260.5h14.46a.78.78,0,0,1,.78.78v3.22a0,0,0,0,1,0,0h-17a0,0,0,0,1,0,0v-2.24A1.76,1.76,0,0,1,360.26,260.5Z"/><rect class="cls-1" x="359.5" y="275.5" width="15" height="114"/><path class="cls-1" d="M480.08,267.72l1.76-2.65a1.47,1.47,0,0,1,1.38-.58h16.05a1.47,1.47,0,0,1,1.38.58l1.73,2.7a.75.75,0,0,1,0,.88L500.48,271a1.64,1.64,0,0,1-1.45.52H483.08a1.65,1.65,0,0,1-1.54-.68l-1.47-2.33A.67.67,0,0,1,480.08,267.72Z"/><path class="cls-1" d="M482.5,271.5h17a0,0,0,0,1,0,0V274A1.48,1.48,0,0,1,498,275.5H484.19a1.69,1.69,0,0,1-1.69-1.69V271.5A0,0,0,0,1,482.5,271.5Z"/><path class="cls-1" d="M484.19,389.5H497.7a1.8,1.8,0,0,1,1.8,1.8v2.2a0,0,0,0,1,0,0h-17a0,0,0,0,1,0,0v-2.31A1.69,1.69,0,0,1,484.19,389.5Z"/><path class="cls-1" d="M484.42,260.5h14.3a.78.78,0,0,1,.78.78v3.22a0,0,0,0,1,0,0h-17a0,0,0,0,1,0,0v-2.08A1.92,1.92,0,0,1,484.42,260.5Z"/><rect class="cls-1" x="484.5" y="275.5" width="14" height="114"/><polyline class="cls-2" points="66 260 66 377 46 377 46 260"/><polyline class="cls-2" points="235 260 235 377 200 377 200 260"/><path class="cls-1" d="M75.5,381.5V296.13c0-13,10.93-23.63,24.37-23.63h68.22a23.11,23.11,0,0,1,23.41,23.3v85.7Z"/><path class="cls-1" d="M99.13,277.5h69a18.41,18.41,0,0,1,18.41,18.41V376.5a0,0,0,0,1,0,0H80.5a0,0,0,0,1,0,0V296.13A18.63,18.63,0,0,1,99.13,277.5Z"/><polygon class="cls-2" points="198 377 198 395 69 395 69 377 44 377 44 402 66.27 402 69.88 402 198.46 402 204.33 402 239 402 239 377 198 377"/><path class="cls-1" d="M427.43,277.5h-.24c7.95,0,14.31,6,14.31,13.93V389.5h-29V291.43C412.5,283.49,419.48,277.5,427.43,277.5Z"/><line class="cls-1" x1="414" y1="293.5" x2="442" y2="293.5"/><path class="cls-1" d="M453.94,315.2"/><path class="cls-1" d="M252.5,393V294.5a18,18,0,0,1,18-18h47.77a19.23,19.23,0,0,1,19.23,19.23V393"/><path class="cls-1" d="M272.26,280.5h45.89a15.35,15.35,0,0,1,15.35,15.35V393.5a0,0,0,0,1,0,0h-77a0,0,0,0,1,0,0V296.26A15.76,15.76,0,0,1,272.26,280.5Z"/><line class="cls-1" x1="333" y1="306.5" x2="256" y2="306.5"/><line class="cls-1" x1="333" y1="367.5" x2="256" y2="367.5"/><path class="cls-1" d="M517.5,393V294.5a18,18,0,0,1,18-18h47.77a19.23,19.23,0,0,1,19.23,19.23V393"/><path class="cls-1" d="M537.26,280.5h45.89a15.35,15.35,0,0,1,15.35,15.35V393.5a0,0,0,0,1,0,0h-77a0,0,0,0,1,0,0V296.26A15.76,15.76,0,0,1,537.26,280.5Z"/><line class="cls-1" x1="598" y1="306.5" x2="521" y2="306.5"/><line class="cls-1" x1="598" y1="367.5" x2="521" y2="367.5"/><line class="cls-2" x1="200" y1="261" x2="66" y2="261"/><line class="cls-2" x1="623" y1="261" x2="235" y2="261"/><polyline class="cls-2" points="661 260 661 402 623 402 623 260"/><line class="cls-2" x1="470" y1="261" x2="470" y2="394"/><line class="cls-2" x1="388" y1="261" x2="388" y2="394"/><rect class="cls-2" x="239" y="394" width="384" height="8"/><rect class="cls-1" x="410.5" y="389.5" width="35" height="4"/><path class="cls-1" d="M626.5,237.5V215.38c0-8.21,8.68-13.69,12.46-15.67l3.63-1.93,3.56,2c3.74,2.05,12.34,7.69,12.34,15.59V237.5Z"/><path class="cls-1" d="M650.5,230.5h-16V215.38c0-4.4,8-8.79,8-8.79s8,4.62,8,8.79Z"/><path class="cls-1" d="M202.5,238V217c0-8.21,8.57-13.69,12.35-15.67l3.58-1.93,3.64,2c3.74,2.05,12.42,7.69,12.42,15.59v21"/><path class="cls-1" d="M226.5,231.5h-17V217c0-4.4,8.5-8.79,8.5-8.79s8.5,4.62,8.5,8.79Z"/><path class="cls-1" d="M40.5,240V217c0-8.21,8.74-13.69,12.52-15.67l3.66-1.93,3.52,2c3.74,2.05,12.3,7.69,12.3,15.59v23"/><path class="cls-1" d="M64.5,231.5h-16V217c0-4.4,8-8.79,8-8.79s8,4.62,8,8.79Z"/><line class="cls-1" x1="137.5" y1="207" x2="137.5" y2="240"/><line class="cls-1" x1="135" y1="213.5" x2="139" y2="213.5"/><line class="cls-1" x1="135" y1="231.5" x2="139" y2="231.5"/><line class="cls-1" x1="337.5" y1="204" x2="337.5" y2="240"/><line class="cls-1" x1="336" y1="213.5" x2="340" y2="213.5"/><line class="cls-1" x1="336" y1="231.5" x2="340" y2="231.5"/><line class="cls-1" x1="396.5" y1="204" x2="396.5" y2="240"/><line class="cls-1" x1="394" y1="213.5" x2="398" y2="213.5"/><line class="cls-1" x1="394" y1="231.5" x2="398" y2="231.5"/><line class="cls-1" x1="463.5" y1="204" x2="463.5" y2="240"/><line class="cls-1" x1="461" y1="213.5" x2="465" y2="213.5"/><line class="cls-1" x1="461" y1="231.5" x2="465" y2="231.5"/><line class="cls-1" x1="521.5" y1="204" x2="521.5" y2="240"/><line class="cls-1" x1="520" y1="213.5" x2="523" y2="213.5"/><line class="cls-1" x1="520" y1="231.5" x2="523" y2="231.5"/><line class="cls-1" x1="77" y1="213.5" x2="80" y2="213.5"/><line class="cls-1" x1="77" y1="231.5" x2="80" y2="231.5"/><line class="cls-1" x1="195" y1="213.5" x2="198" y2="213.5"/><line class="cls-1" x1="195" y1="231.5" x2="198" y2="231.5"/><polyline class="cls-1" points="76.5 240 76.5 207.5 198.5 207.5 198.5 240"/><line class="cls-1" x1="35" y1="212.5" x2="37" y2="212.5"/><line class="cls-1" x1="35" y1="230.5" x2="37" y2="230.5"/><line class="cls-1" x1="9" y1="212.5" x2="11" y2="212.5"/><line class="cls-1" x1="9" y1="230.5" x2="11" y2="230.5"/><polyline class="cls-1" points="8.5 239 8.5 205.5 37.5 205.5 37.5 239"/><line class="cls-2" x1="235" y1="107" x2="15" y2="107"/><path class="cls-1" d="M207.18,113.82l1.76-2.69a1.51,1.51,0,0,1,1.38-.62h16.05a1.51,1.51,0,0,1,1.38.62l1.73,2.72a.77.77,0,0,1,0,.89L227.58,117a1.62,1.62,0,0,1-1.45.48H210.19a1.62,1.62,0,0,1-1.54-.63l-1.47-2.3A.64.64,0,0,1,207.18,113.82Z"/><path class="cls-1" d="M209.5,117.5h17a0,0,0,0,1,0,0v2.61a1.39,1.39,0,0,1-1.39,1.39H211.3a1.8,1.8,0,0,1-1.8-1.8v-2.2A0,0,0,0,1,209.5,117.5Z"/><path class="cls-1" d="M211.53,106.5h14.1a.87.87,0,0,1,.87.87v3.13a0,0,0,0,1,0,0h-17a0,0,0,0,1,0,0v-2A2,2,0,0,1,211.53,106.5Z"/><polyline class="cls-1" points="211.5 204 211.5 121.5 225.5 121.5 225.5 204"/><path class="cls-1" d="M45.52,113.82l1.76-2.69a1.51,1.51,0,0,1,1.38-.62H64.72a1.51,1.51,0,0,1,1.38.62l1.73,2.72a.77.77,0,0,1,0,.89L65.92,117a1.62,1.62,0,0,1-1.45.48H48.53a1.62,1.62,0,0,1-1.54-.63l-1.47-2.3A.64.64,0,0,1,45.52,113.82Z"/><path class="cls-1" d="M48.5,117.5h16a0,0,0,0,1,0,0v2.61a1.39,1.39,0,0,1-1.39,1.39H49.63a1.13,1.13,0,0,1-1.13-1.13V117.5A0,0,0,0,1,48.5,117.5Z"/><path class="cls-1" d="M49.86,106.5H63.63a.87.87,0,0,1,.87.87v3.13a0,0,0,0,1,0,0h-16a0,0,0,0,1,0,0v-2.64A1.36,1.36,0,0,1,49.86,106.5Z"/><polyline class="cls-1" points="49.5 204 49.5 121.5 63.5 121.5 63.5 204"/><path class="cls-1" d="M268.5,143.39c0-.25-.61-.42-.84-.33-12.71,5.13-23.16,18.18-23.16,33.48v63h24Z"/><path class="cls-1" d="M599.5,143.39c0-.25.11-.42.34-.33a36.6,36.6,0,0,1,22.66,33.48v63h-23Z"/><line class="cls-2" x1="16" y1="107" x2="16" y2="207"/><polyline class="cls-2" points="46 262 46 238 66 238 66 262"/><polyline class="cls-2" points="200 262 200 238 235 238 235 262"/><rect class="cls-2" x="1" y="240" width="45" height="21"/><rect class="cls-2" x="66" y="240" width="134" height="21"/><rect class="cls-2" x="235" y="240" width="388" height="21"/><polyline class="cls-2" points="623 261 623 238 661 238 661 261"/><line class="cls-2" x1="636" y1="107" x2="636" y2="201"/><line class="cls-2" x1="584" y1="240" x2="584" y2="107"/><line class="cls-1" x1="599" y1="173.5" x2="622" y2="173.5"/><line class="cls-1" x1="599" y1="216.5" x2="622" y2="216.5"/><line class="cls-1" x1="268" y1="177.5" x2="244" y2="177.5"/><line class="cls-1" x1="244" y1="216.5" x2="268" y2="216.5"/><path class="cls-1" d="M110.21,136.5h0a18.29,18.29,0,0,1,18.29,18.29V239.5a0,0,0,0,1,0,0h-36a0,0,0,0,1,0,0V154.21A17.71,17.71,0,0,1,110.21,136.5Z"/><line class="cls-1" x1="92" y1="154.5" x2="128" y2="154.5"/><path class="cls-1" d="M183.5,239.5h-36V154.18c0-10,8.68-17.68,18.68-17.68H166c10,0,17.49,7.68,17.49,17.68Z"/><line class="cls-1" x1="147" y1="154.5" x2="183" y2="154.5"/><path class="cls-2" d="M485,240H439V140.76c0-12.59,11.08-21.76,23.67-21.76h-.08c12.59,0,22.41,9.17,22.41,21.76Z"/><path class="cls-2" d="M520.2,122h0A18.8,18.8,0,0,1,539,140.8V240a0,0,0,0,1,0,0H501a0,0,0,0,1,0,0V141.2A19.2,19.2,0,0,1,520.2,122Z"/><path class="cls-2" d="M563,127.67c-6.84,0-10,16.44-10,28.56V240h20V156C573,141.14,569.84,127.67,563,127.67Z"/><line class="cls-1" x1="439" y1="142.5" x2="485" y2="142.5"/><line class="cls-1" x1="501.77" y1="144.7" x2="539.27" y2="147.71"/><line class="cls-1" x1="554.18" y1="151.16" x2="572.67" y2="154.18"/><path class="cls-2" d="M373,240h46V140.76c0-12.59-9.7-21.76-22.29-21.76h.08C384.2,119,373,128.17,373,140.76Z"/><path class="cls-2" d="M319,122h38a0,0,0,0,1,0,0v98.65A19.35,19.35,0,0,1,337.65,240h0A18.65,18.65,0,0,1,319,221.35V122A0,0,0,0,1,319,122Z" transform="translate(676 362) rotate(180)"/><path class="cls-2" d="M295,127.67c6.84,0,10,16.44,10,28.56V240H285V156C285,141.14,288.16,127.67,295,127.67Z"/><line class="cls-1" x1="420" y1="142.5" x2="374" y2="142.5"/><line class="cls-1" x1="356.62" y1="144.7" x2="319.11" y2="147.71"/><line class="cls-1" x1="305.21" y1="151.16" x2="285.72" y2="155.18"/><polyline class="cls-1" points="238.5 240 238.5 204.5 622 204.5"/><line class="cls-2" x1="276" y1="240" x2="276" y2="107"/><line class="cls-1" x1="234.5" y1="107" x2="234.5" y2="218"/><line class="cls-1" x1="284" y1="213.5" x2="288" y2="213.5"/><line class="cls-1" x1="284" y1="231.5" x2="288" y2="231.5"/><line class="cls-1" x1="108.5" y1="155" x2="108.5" y2="208"/><line class="cls-1" x1="165.5" y1="155" x2="165.5" y2="208"/><polyline class="cls-2" points="44 402 66.27 402 69.88 402 198.46 402 204.33 402 239 402"/><line class="cls-2" x1="661" y1="402" x2="623" y2="402"/><line class="cls-2" x1="239" y1="402" x2="623" y2="402"/><path class="cls-5" d="M635,474.81V401H68v92.2l2-.51v-1.63L159.55,402h12.7l-88.2,87.77,1.73-.31,45.29-45.07L173.67,402h12.7l-17.56,17.49-68.2,67.92,1.6-.18,64.93-64.65L187.79,402h12.7l-61,60.79L116,486.13l1.5-.08,22.55-22.47L201.91,402h12.7l-83.94,83.65h1.42l11.48-11.44L216,402h12.7l-76.25,76-7.81,7.78,1.38,0L153.9,478l76.25-76h12.7L166.6,478l-8.39,8.36,1.33.09L168,478l76.25-76H257l-76.25,76-9.35,9.32,1.3.11,9.46-9.43,76.25-76h12.7l-76.25,76-10.59,10.56,1.28.14L196.26,478l76.25-76h12.7L209,478,196.9,490l1.26.16L210.38,478l76.25-76h12.7l-76.25,76-13.69,13.65,1.24.17L224.49,478l76.25-76h12.7L237.2,478l-15.46,15.41,1.23.18L238.61,478l76.25-76h12.7l-76.25,76L234,495.26l1.23.19L252.73,478,329,402h12.7l-76.25,76-19.22,19.16,1.22.19L266.85,478l76.25-76h12.7l-76.25,76-21.15,21.08,1.22.19L281,478l76.25-76h12.7l-76.25,76-23.06,23,1.23.19L295.09,478l76.25-76H384l-76.25,76-24.92,24.84,1.23.18,25.1-25,76.25-76h12.7l-76.25,76-26.7,26.62,1.24.17L323.33,478l76.25-76h12.7L336,478l-28.37,28.28,1.26.16L337.45,478l76.25-76h12.7l-76.25,76-29.88,29.79,1.28.14,30-29.92,76.25-76h12.7l-76.25,76-31.2,31.1,1.3.12L365.68,478l76.25-76h12.7l-76.25,76-32.27,32.16,1.32.09L379.8,478,456,402h12.7L392.5,478l-33,32.93,1.35.06,33.1-33,76.25-76h12.7l-76.25,76L373.2,511.32h1.41L408,478l76.25-76H497l-76.25,76-33.35,33.24,1.45,0L422.16,478l76.25-76h12.7l-76.25,76-32.74,32.63,1.52-.1L436.28,478l76.25-76h12.7L449,478,417.5,509.38l1.59-.17L450.4,478l76.25-76h12.7L463.1,478l-29.49,29.4,1.66-.24L464.51,478l76.25-76h12.7l-76.25,76-26.68,26.59,1.75-.33L478.63,478l76.25-76h12.7l-76.25,76-23,22.9,1.83-.42L492.75,478,569,402h12.7l-76.25,76L487,496.35l1.92-.5L506.87,478l76.25-76h12.7l-76.25,76-13.22,13.18,2-.54L521,478l76.25-76h12.7l-76.25,76-7.88,7.85,1.94-.52,7.35-7.33,76.25-76h12.7l-76.25,76-3,3,1.86-.44,2.58-2.57,76.25-76H634v3.68l-71.54,71.54,1.73-.32L634,407.1V419.8l-54.79,54.79,1.6-.19L634,421.21v12.7l-39.27,39.27,1.49-.08L634,435.33V448l-24.84,24.84,1.39,0L634,449.45v12.71l-11.34,11.34,1.31.11,10-10v11.11ZM70,402h3.33l-.49.44L70,405Zm0,4.36L73.75,403l1.08-1h12.7L82,407.42,70,419.07Zm0,14.11,13.17-12.83L89,402h12.7L70,433.18Zm0,14.12L97,408l6.07-6h12.7L70,447.29Zm0,14.12,32.66-32.32L117.2,402h12.7L70,461.41Zm0,14.12,27.72-27.5L131.32,402H144l-33,32.83-41,40.7Zm30.65-3.65L70,489.65V476.94l41.86-41.59L145.43,402h12.7Z"/><path class="cls-2" d="M69,493V402H44v99"/><path class="cls-2" d="M661,480V402H635v73"/><line class="cls-2" x1="44" y1="402" x2="661" y2="402"/></g></g></svg>