<svg xmlns="http://www.w3.org/2000/svg" viewBox="0 0 25.48 10.58"><defs><style>.РЎС‚РёР»СЊ-РіСЂР°С„РёРєРё-11{fill:#d9a65f;}</style></defs><title>latviya</title><g id="Слой_2" data-name="Слой 2"><g id="Слой_1-2" data-name="Слой 1"><polygon class="РЎС‚РёР»СЊ-РіСЂР°С„РёРєРё-11" points="7.45 6.57 12.62 6.57 12.89 6.57 13.15 6.76 15.55 7.72 15.63 7.78 15.71 7.83 19.59 9.87 19.65 9.9 19.7 9.94 20.7 10.58 21.01 10.24 21.56 10.17 23.86 9.87 25.08 8.74 25.28 8.55 25.48 8.47 25.11 7.43 23.9 5.18 23.79 4.98 23.75 4.76 23.35 2.79 23.24 2.61 20.08 2.41 19.73 2.38 19.42 2.2 15.68 0 13.05 0.04 12.8 2.74 12.72 3.59 11.95 3.96 8.63 5.53 7.59 6.02 6.85 5.15 3.96 1.78 1.54 2.89 0.25 5.47 0 7.1 1.16 6.71 1.35 6.57 1.54 6.57 7.45 6.57"/></g></g></svg>