<svg xmlns="http://www.w3.org/2000/svg" viewBox="0 0 19.83 11.07"><defs><style>.РЎС‚РёР»СЊ-РіСЂР°С„РёРєРё-11{fill:#d9a65f;}</style></defs><title>litva</title><g id="Слой_2" data-name="Слой 2"><g id="Слой_1-2" data-name="Слой 1"><polygon class="РЎС‚РёР»СЊ-РіСЂР°С„РёРєРё-11" points="1.49 3.84 1.68 3.91 4.12 4.82 4.25 4.87 4.37 4.94 6.56 6.29 7.21 6.73 7.21 7.58 7.21 9.63 9.45 10.91 11.73 11.07 13.45 10.27 13.55 10.23 13.65 10.2 15.56 9.59 15.93 8.4 16.05 8.03 16.34 7.75 18.39 5.83 18.43 5.79 18.47 5.76 19.45 4.96 19.78 3.87 19.83 3.66 18.7 2.94 14.96 0.88 12.9 0 8.01 0 2.3 0 0.27 0.62 0 3.66 1.29 3.8 1.49 3.84"/></g></g></svg>