<svg xmlns="http://www.w3.org/2000/svg" viewBox="0 0 99.62 82.89"><defs><style>.РЎС‚РёР»СЊ-РіСЂР°С„РёРєРё-11{fill:#d9a65f;}</style></defs><title>norway_1</title><g id="Слой_2" data-name="Слой 2"><g id="Слой_1-2" data-name="Слой 1"><polygon class="РЎС‚РёР»СЊ-РіСЂР°С„РёРєРё-11" points="59.46 8.29 57.52 8.14 56.31 8.04 56.16 6.83 56.04 5.91 55.18 5.98 54.74 6.42 54.46 7.84 54.35 8.42 53.88 8.76 52.55 9.73 52.23 9.96 51.85 10.01 50.4 10.19 49.04 10.37 49.33 11.13 49.87 12.57 50.06 13.07 49.89 13.58 49.52 14.67 49.22 15.58 48.27 15.68 46.16 15.92 46.1 15.93 45.96 16.79 45.6 18.97 45.48 19.66 44.87 20.02 43.73 20.68 43.04 21.08 42.32 20.73 41.59 20.38 40.6 21.24 39.09 23.97 38.96 24.22 38.75 24.4 37.38 25.55 33.93 30.28 33.33 32.99 33.11 33.98 32.12 34.15 29.9 34.5 29.43 37.06 29.43 39.73 29.43 41.03 28.24 41.21 25.88 41.56 25.4 41.72 26.14 42.52 27.56 44.08 25.63 44.91 24.37 45.45 21.01 46.8 18.8 49.06 16.89 52.01 15.99 53.39 14.7 52.38 14.36 52.11 14.24 52.68 13.7 53.01 11.47 54.4 11.34 54.48 11.2 54.54 9.86 55.03 13.33 57.63 8.95 57.71 5.89 57.76 4.21 58.88 2.44 60.65 2.16 60.93 1.78 61.04 0.64 61.36 0 61.97 0.76 62.96 1.24 63.59 1 64.33 0.65 65.82 0.43 67.1 0.43 68.83 0.43 68.92 0.28 69.01 0.07 70.25 0.46 70.38 2.86 69.47 4.05 69.03 4.68 70.13 5.4 71.4 6.04 72.52 5.03 73.32 2.92 75.01 2.44 75.39 3.29 75.49 5.67 75.75 4.4 77.78 3.37 79.4 3.23 79.64 3 79.81 2.87 79.9 5.38 81.88 9.16 82.89 16.18 77.7 16.44 77.51 16.76 77.44 18.77 77.01 19.52 74.86 20.46 72.15 22.15 74.46 23.78 76.69 23.85 76.79 23.9 76.89 24.07 77.22 24.32 76.51 24.89 73.34 25.04 72.48 25.86 72.18 27.52 71.59 27.39 68.86 27.2 66.96 27.14 66.39 27.48 65.93 28.3 64.8 26.43 62.79 26 62.33 26.13 61.69 26.43 57.85 26.43 53.81 26.43 53.74 26.33 53.67 26.67 49.6 26.71 48.89 27.29 48.49 31.36 45.78 31.68 45.56 32.09 45.53 33.43 45.44 33.43 44.83 32.58 42.99 32.27 42.33 32.6 41.68 35.17 36.73 35.34 33.37 35.4 32.26 36.48 31.99 38.78 31.42 39.29 29.87 39.36 29.67 39.48 29.49 41.54 26.5 42.44 24.52 43.59 21.64 43.75 21.25 44.08 21 47.19 18.67 47.36 18.54 47.56 18.46 49.99 17.55 50.74 15.32 51.15 14.09 52.43 14.32 56.35 15.03 58.25 14.49 60.27 11.79 61.09 10.7 61.79 11.13 62.85 10.35 60.54 8.95 59.46 8.29"/><polygon class="РЎС‚РёР»СЊ-РіСЂР°С„РёРєРё-11" points="79.89 5.3 75.88 9.25 77.39 3.83 78.11 1.23 78.2 0.92 78.41 0.67 78.83 0.17 77.5 0 77.23 0.57 77.06 0.95 76.71 1.19 75.8 1.79 75.64 1.91 75.45 1.97 73.13 2.76 72.59 3.63 72.22 5.7 71.49 9.79 69.44 6.18 68.34 4.25 67.47 4.89 67.23 5.07 70.37 7.88 65.61 7.29 63.67 7.05 63.35 7.01 63.08 6.84 62.49 6.48 62.73 7.16 63.67 9.75 63.69 9.74 64.58 9.08 65.46 9.74 69.56 12.76 73.56 12.94 76.69 13.13 76.83 13.14 76.96 13.18 78.33 13.52 79.28 12.25 79.99 9.07 80.08 8.67 80.35 8.38 82.87 5.66 83.18 5.33 83.62 5.22 83.74 5.19 83.79 2.39 83.81 1.51 83.65 1.59 79.89 5.3"/><polygon class="РЎС‚РёР»СЊ-РіСЂР°С„РёРєРё-11" points="40.09 15.49 39.6 15.56 40.19 15.11 40.09 15.49"/><polygon class="РЎС‚РёР»СЊ-РіСЂР°С„РёРєРё-11" points="91.32 4.04 92.29 3.68 92.46 3.62 92.61 3.52 95.1 1.82 96.5 2.48 96.58 2.52 96.67 2.55 99.42 3.47 99.61 3.66 99.06 3.88 96.68 4.62 94.92 4.46 91.1 4.13 91.32 4.04"/><polygon class="РЎС‚РёР»СЊ-РіСЂР°С„РёРєРё-11" points="91.54 5.31 91.16 4.77 90.7 4.77 87.4 4.77 87.22 4.77 87.05 5.09 84.72 5.79 85.84 4.38 88.17 1.32 89.37 0.26 89.68 0.68 89.33 2.32 88.77 4.99 90.33 4.41 93.87 7.14 94.26 7.3 91.54 5.31"/></g></g></svg>