<svg xmlns="http://www.w3.org/2000/svg" xmlns:xlink="http://www.w3.org/1999/xlink" viewBox="0 0 32.85 40.01"><defs><style>.cls-1{fill:#fff;}.cls-2{fill:#9e305b;}</style><symbol id="Новый_символ_2" data-name="Новый символ 2" viewBox="0 0 32.85 40.01"><path class="cls-1" d="M16.43,40,4.56,28C-1.61,21.75-1.5,11.08,4.8,4.7a16.43,16.43,0,0,1,23.13.12c6.41,6.49,6.58,16.88.37,23.17ZM7.33,7.26,9.85,9.81a9.45,9.45,0,0,0-.25,13.06l6.82,6.9,6.82-6.9a9.25,9.25,0,0,0-.37-12.94,9.37,9.37,0,0,0-13-.12Z"/><path class="cls-1" d="M7.33,7.26a13.1,13.1,0,0,0-.25,18.18l9.35,9.46,9.35-9.46c4.89-5,4.52-13.1-.37-18.05A12.86,12.86,0,0,0,7.33,7.26Z"/><path class="cls-2" d="M16.43,35.92l-9.85-10c-5.07-5.14-5-13.93.25-19.2a13.56,13.56,0,0,1,19.09.12c5.3,5.36,5.46,13.92.37,19.08ZM7.33,7.26l.51.51a12.4,12.4,0,0,0-.25,17.15l8.84,9,8.84-9c4.54-4.59,4.37-12.23-.37-17A12.13,12.13,0,0,0,7.83,7.77Z"/><ellipse class="cls-1" cx="16.45" cy="15.8" rx="3.57" ry="3.62"/><path class="cls-2" d="M16.45,20.14a4.34,4.34,0,1,1,4.29-4.34A4.32,4.32,0,0,1,16.45,20.14Zm0-7.24a2.89,2.89,0,1,0,2.86,2.89A2.88,2.88,0,0,0,16.45,12.91Z"/></symbol></defs><title>pin</title><g id="Слой_2" data-name="Слой 2"><g id="Слой_1-2" data-name="Слой 1"><use width="32.85" height="40.01" xlink:href="#Новый_символ_2"/></g></g></svg>