<svg xmlns="http://www.w3.org/2000/svg" viewBox="0 0 35.08 27.79"><defs><style>.РЎС‚РёР»СЊ-РіСЂР°С„РёРєРё-11{fill:#d9a65f;}</style></defs><title>poland</title><g id="Слой_2" data-name="Слой 2"><g id="Слой_1-2" data-name="Слой 1"><polygon class="РЎС‚РёР»СЊ-РіСЂР°С„РёРєРё-11" points="19.11 26.17 22.62 26.57 25.68 26.84 25.78 26.85 25.89 26.88 29.39 27.68 29.82 27.79 29.78 27.14 29.74 26.47 30.2 25.99 34.01 22.1 34.07 22.03 34.14 21.98 35.08 21.23 33.87 18.28 33.78 18.06 33.77 17.83 33.52 14.59 32.38 12.83 31.67 11.75 32.64 10.89 34.45 9.28 34.31 6.59 33.82 4.2 31.22 2.34 21.17 1.92 20.94 1.91 20.72 1.83 19.27 1.3 17.62 2.15 16.5 2.72 15.74 1.72 14.43 0 6.52 2.25 0.47 4.32 0.08 4.62 0 8.55 0.22 9.85 1.04 11.66 1.1 11.79 1.13 11.92 1.67 14.05 2.65 17.28 2.7 17.44 2.71 17.61 2.78 18.65 4.45 19.62 4.51 19.65 4.56 19.69 7.13 21.49 8.74 22.19 10.59 21.87 11.51 21.7 12.06 22.46 12.82 23.5 14.99 24.05 15.49 24.17 15.81 24.58 17.18 26.35 18.78 26.17 18.95 26.15 19.11 26.17"/></g></g></svg>