<svg xmlns="http://www.w3.org/2000/svg" viewBox="0 0 655.13 228.21"><defs><style>.РЎС‚РёР»СЊ-РіСЂР°С„РёРєРё-11{fill:#d9a65f;}</style></defs><title>rus_3</title><g id="Слой_2" data-name="Слой 2"><g id="Слой_1-2" data-name="Слой 1"><polygon class="РЎС‚РёР»СЊ-РіСЂР°С„РёРєРё-11" points="632.79 75.78 632.75 75.76 632.71 75.74 626.68 72.73 620.29 69.8 608.9 65.1 605.41 63.64 596.22 63.29 592.81 63.85 584.9 67.17 584.05 70.43 583.63 72.04 582.07 71.45 576.57 69.38 557.68 65.16 545.57 65.88 545.47 65.89 545.38 65.88 543.45 65.76 543.24 65.75 543.03 65.67 539.91 64.54 537.7 63.67 536.44 63.18 536.8 61.88 537.26 60.19 531.76 55.39 516.9 55.45 507.42 55.99 506.48 56.05 506.02 55.22 505.22 53.77 500.69 52.42 500.61 52.4 500.53 52.36 498.95 51.69 498.43 51.47 498.19 50.97 496.28 47.07 466.84 41.47 461.8 40.44 461.4 41.26 461.32 41.43 461.19 41.58 456.63 46.89 457.5 48.95 458.46 51.21 456.13 51.21 452.82 51.21 452.77 51.21 452.73 51.06 449.54 50.78 449.52 50.81 449.52 51.71 449.52 54.35 447.15 53 444.08 51.21 438.4 50.23 434.04 51.69 433.52 51.86 433.01 51.67 427.06 49.39 425.96 49.3 424.19 52.66 424.12 52.79 424.02 52.91 421.44 56.04 420.81 56.81 419.85 56.52 417.31 55.75 416.99 55.65 416.74 55.43 410.63 49.92 409.98 49.34 410.17 48.48 410.94 45.05 410.27 42.63 410.24 42.51 410.23 42.4 410.06 40.9 409.29 38.34 408.74 37.35 406.64 36.02 401.7 36.21 401.63 36.21 401.56 36.07 400.06 35.89 399.92 35.84 399.78 35.79 395.13 34.5 394.86 34.42 394.63 34.25 392.06 32.34 391.07 33.38 389.4 35.07 389.35 37.55 389.32 38.91 387.96 39.01 385.55 39.19 380.65 39.68 380.43 39.7 380.21 39.66 335.78 31.07 331.79 33.39 329.37 35.41 329.16 35.59 328.9 35.68 322.66 37.85 322.63 37.87 322.61 37.87 315.91 39.92 313.03 40.81 314.06 37.98 315.09 35.13 315.29 34.59 315.81 34.32 319.6 32.33 319.73 32.26 319.86 32.22 324.12 30.91 327.21 28.85 327.23 28.84 327.25 28.82 331.48 26.23 331.58 26.16 331.7 26.11 337.8 23.64 338.26 9.61 333.64 8.51 331.21 8.28 330.99 8.26 330.79 8.18 315.01 1.82 311.68 1.01 307.72 0 303 1.01 298.73 4.19 298.55 4.33 298.33 4.41 262.24 16.96 262.1 17 261.96 17.02 257.05 17.72 253.46 19.43 241.69 24.63 244.61 30.51 245.38 32.07 243.72 32.61 242.59 32.97 242.33 33.05 242.06 33.04 238.48 32.87 190.4 48.87 189.06 50.96 188.64 51.62 187.85 51.65 183.38 51.81 181.01 51.9 181.95 49.72 183.22 46.76 184.6 41.28 181.06 40.1 174.13 39.78 172.49 41.41 169.9 46.96 169.75 47.3 169.46 47.52 164.3 51.46 163.56 53.04 164.06 53.16 165.4 53.48 165.19 54.84 164.71 58.09 164.47 59.98 164.44 60.23 164.32 60.46 163.68 61.76 166.94 62.98 167.47 63.18 167.74 63.68 169.28 66.59 171.34 67.64 172.8 68.38 171.93 69.77 169.39 73.81 168.5 75.23 167.19 74.19 162.39 70.4 155.99 67.63 150.66 65.44 143.57 63.57 91.72 74.98 88.01 77.26 87.85 77.36 87.67 77.42 84.04 78.54 83.31 81.96 83.09 83 82.04 83.14 75.12 84.05 69.52 85.03 68.57 87.41 68.18 88.38 67.13 88.35 65.36 88.29 64.76 88.27 64.34 87.84 63.47 86.96 60.32 86.36 58.16 87.41 58.14 87.42 58.11 87.43 54.64 88.93 51.52 91.19 51.68 93.6 53.23 96.52 54.49 98.89 51.81 98.72 46.92 98.42 46.8 98.41 46.68 98.39 42.45 97.43 42.22 97.38 42.02 97.25 38.33 95.05 37.51 95.8 37.93 96.61 41.35 97.8 42.21 98.1 42.34 99 42.71 101.47 42.92 102.94 41.46 103.18 38.37 103.66 38.03 103.72 37.7 103.62 34.49 102.64 34.33 102.59 34.19 102.51 30.45 100.4 30.24 100.28 30.07 100.1 27.96 97.74 27.75 97.5 27.65 97.2 26.7 94.26 26.61 94 26.62 93.74 26.73 91.08 26.73 91.02 26.73 90.96 26.94 89.23 24.51 87.45 24.38 87.35 24.27 87.22 23.1 85.88 21.99 84.61 23.38 83.66 25.57 82.16 26.17 81.75 26.86 81.96 33.89 84.17 42.9 85.66 53.34 81.07 53.12 77.96 51.36 76.61 48.07 74.62 44.74 72.78 38.84 69.8 29.56 66.16 27.72 66.11 24.82 66.21 24.79 66.21 24.75 66.05 21.02 65.72 20.67 65.66 20.37 65.46 18.07 64.13 15.77 62.56 13.67 62.21 13.66 62.21 12.25 63.44 12.14 63.64 12.02 63.76 8.84 65.26 6.22 67.55 6.19 67.59 6.16 67.62 4.98 68.53 4.62 69.84 4.96 71.11 6.96 72.27 7.14 72.37 7.29 72.53 10.17 75.53 11.1 76.5 10.24 77.53 7.84 80.42 7.08 81.93 10.48 87.37 10.95 88.12 10.53 88.89 9.47 90.83 9.98 93.45 10.11 94.14 9.74 94.59 10.4 95.02 11.34 95.63 11.02 96.7 10.66 97.89 12.2 99.44 13.31 100.55 12.15 101.61 10.96 102.69 14.72 105.58 15.08 105.86 15.22 106.29 16.32 109.54 16.63 110.44 15.94 111.1 9.89 116.91 9.84 116.96 9.79 117 4.08 121.6 4.13 128.06 4.14 128.8 3.56 129.26 1.94 130.53 1.24 132.77 1.18 132.97 1.07 133.14 0 134.78 0.18 136.39 1.01 138.36 1.36 139.19 0.8 139.88 0.17 140.66 0.53 142.11 0.54 142.15 0.55 142.19 0.95 144.22 2.12 146.37 2.17 146.46 2.21 146.55 3.02 148.66 4.49 149.1 4.59 149.14 4.7 149.27 6.49 150.21 8.32 150.21 8.53 150.21 8.73 150.18 12.53 151.21 13.48 151.46 13.61 152.43 13.97 155.23 14.36 157.72 15.96 159.86 18.23 162.03 20.47 164.1 21.66 165.21 20.46 166.31 18.37 168.22 17.83 168.71 17.12 168.59 16.29 168.46 16.52 169.83 17.23 170.71 18.02 170.29 18.33 170.13 18.67 170.12 21.4 170.04 21.5 170.04 21.6 170.05 24.95 170.41 26.07 170.54 26.27 171.64 26.79 174.57 27.36 175.97 29.6 176.52 30.22 176.68 30.54 177.24 32.13 180.02 33.25 180.61 34.84 181.32 36.52 181.18 38.82 181.01 39.59 180.96 40.08 181.55 41.53 183.29 44.32 183.73 44.4 183.74 44.47 183.76 47.9 184.67 48.12 184.73 48.3 184.84 50.66 186.28 52 187.11 51.11 188.41 50.58 189.19 50.84 189.5 51.91 190.76 50.54 191.7 50.24 191.91 50.44 192.26 50.76 192.81 50.58 193.43 49.87 195.87 49.55 196.97 48.4 196.94 45.53 196.88 43.37 198.35 43.31 199.54 43.3 199.73 43.24 199.91 42.56 202.08 43.72 203.78 44.43 204.82 43.53 205.7 41.11 208.06 41.05 208.11 40.99 208.16 39.08 209.66 40.85 211.09 48.44 216.57 48.46 216.59 48.49 216.61 48.82 216.87 49.53 216.54 50.04 216.31 50.58 216.47 55.31 217.87 61.5 218.4 61.87 218.44 62.18 218.63 64.65 220.22 66.71 221.25 70.42 220.77 70.79 220.72 71.14 220.85 72.6 221.4 73.15 221.61 73.42 222.14 74.44 224.21 77.77 225.79 77.89 225.85 77.99 226.12 80.69 228.21 81.53 228.21 82.63 227.22 78.72 221.19 78.59 220.94 78.53 220.69 76.97 215.12 76.84 214.66 76.99 214.21 79.04 208.3 79.22 207.79 79.68 207.51 85.02 204.25 84.12 202.46 84.03 202.28 83.99 202.09 83.54 199.94 81.75 197.9 79.58 198.04 78.43 198.11 78.06 197.02 77.49 195.31 75.56 193.95 74.63 193.29 75.01 192.22 75.9 189.7 76.03 189.34 76.32 189.08 76.81 188.65 76.23 187.74 75.64 186.8 76.36 185.96 78.53 183.42 78.68 183.24 78.89 183.12 81.24 181.68 82.16 181.11 82.99 181.8 84.17 182.8 84.19 182.68 84.3 182.46 85.4 180.29 85.52 180.04 85.72 179.86 87.9 177.87 88.07 177.71 88.28 177.61 92.63 175.62 92.73 175.58 92.83 175.55 95.89 174.45 96.1 174.21 96.32 174.21 98.52 174.21 101.4 174.21 101.63 174.21 101.84 174.46 106.55 175.99 106.85 176.12 107.08 176.34 110.38 179.02 111 179.21 112.93 179.21 116.49 178.99 120.32 177.83 120.6 177.77 120.89 177.81 123.25 178 127.18 178.18 127.48 178.2 127.75 178.33 130.47 179.61 130.56 179.65 130.64 179.7 131.44 180.21 132.08 179.34 132.77 178.4 133.86 178.84 136.25 179.83 137.04 179.38 136.67 178.36 134.47 177.69 133.86 177.5 133.57 176.93 132.48 174.75 131.95 173.7 132.84 172.94 135.02 171.08 135.63 168.63 135.87 167.68 136.65 167.55 136.36 167.41 136.32 166.54 136.13 163.11 136.06 161.61 137.55 161.53 140.94 161.35 145.73 160.82 151.74 159.59 155.84 158.33 155.92 158.3 156 158.29 161.69 157.23 167.58 155.27 167.65 155.25 167.72 155.23 172.77 154.06 173.05 153.99 173.32 154.03 176.49 154.48 176.8 154.52 177.07 154.69 179.71 156.31 180.23 156.63 180.38 157.23 181.09 160.13 181.15 160.37 182.65 160.11 183.23 160.01 183.72 160.33 185.04 161.18 185.89 161.37 187.72 161.63 189.88 161.91 192.06 162.19 191.23 163.71 195.11 162.12 198.75 160.09 199.16 159.87 199.62 159.91 202.34 160.18 203.27 160.27 203.6 161.13 204.69 163.98 212.04 172.66 212.12 172.76 212.19 172.88 215.4 178.42 216.37 177.32 217.27 176.32 218.37 177.1 221.25 179.17 224.54 179.69 228.31 178.61 229.07 178.39 229.68 178.9 232.3 181.07 234.84 183.16 235.05 183.33 235.19 183.58 235.92 184.88 237.22 185.94 239.8 185.46 240 185.42 240.2 185.44 241.64 185.56 242.24 185.61 242.64 186.3 244.12 188.21 245.46 188.21 247.94 186.99 251.58 185.23 254.62 183.43 257.23 181.62 257.34 181.53 257.46 181.47 260.23 180.25 260.4 180.17 260.6 180.13 263.5 179.67 263.74 179.63 263.99 179.67 269.65 180.62 270.35 180.74 270.7 181.34 271.78 183.19 274.35 184.22 277.27 184 277.54 183.98 277.8 184.05 280.13 184.72 282.21 183.69 282.27 182.49 280.96 179.44 280.6 178.6 281.18 177.9 282.87 175.85 283.01 175.68 283.19 175.56 285.27 174.16 286.63 172.91 287.32 172.28 288.19 172.62 291.12 173.78 293.54 174.37 293.65 174.39 293.75 174.43 296.71 175.63 300.63 176.81 301.55 177.08 301.68 178.04 302.08 180.94 303.91 182.33 306.7 183.16 309.07 181.98 309.3 181.87 309.55 181.83 313.28 181.34 313.55 181.31 313.81 181.37 317.56 182.22 317.59 182.23 317.62 182.24 320.75 183.07 320.87 183.1 320.99 183.16 324.38 184.72 324.64 184.84 324.84 185.05 326.68 187.17 331.25 188.21 336.36 188.21 341.4 186.78 344.43 185.56 347.53 183.44 347.95 183.14 348.44 183.15 353.52 183.39 353.64 183.39 353.75 183.42 357.25 184.15 357.27 184.15 357.3 184.16 361.18 185.11 364.62 186.06 367.75 184.4 369.21 182.92 371.03 178.94 371.08 178.83 371.14 178.74 373.68 174.88 373.74 174.79 373.81 174.71 375 173.36 374.16 171.32 374.09 171.16 374.06 171 373.7 168.82 373.48 167.55 374.71 167.15 379.91 165.46 380.08 165.41 380.26 165.39 386.29 164.91 386.47 164.89 386.64 164.92 391.24 165.65 391.33 165.67 391.42 165.69 396.37 167.13 396.8 167.26 397.08 167.59 399.73 170.62 399.84 170.75 399.93 170.91 401.88 174.64 404.29 179.5 404.31 179.55 404.32 179.59 406.34 184.41 407.54 186.18 411.07 187.45 411.12 187.47 411.16 187.49 415.26 189.3 415.39 189.35 415.5 189.43 418.4 191.38 418.89 191.7 419.02 192.27 419.67 195 422.51 196.11 425.58 195.39 429.48 193.97 429.92 193.81 430.37 193.93 433.64 194.79 434.72 195.07 434.76 196.18 434.88 199.55 434.9 199.88 434.77 200.19 432.6 205.39 432.52 205.57 432.4 205.72 429.98 208.85 428.06 211.54 427.61 212.21 426.85 212.21 423.57 212.21 421.17 213.28 420.76 215.2 420.99 218.36 421.11 219.93 422.45 219.19 423.18 218.79 423.9 219.2 427.84 221.4 436.33 216.08 442.79 208.93 448.71 200.95 453.02 195.21 455.37 191.36 457.07 180.91 457.09 180.8 457.12 180.7 457.91 178.16 457.95 178.03 458.01 177.92 459.43 175.17 460 172.86 459.78 170.03 459.75 169.68 459.88 169.36 460.05 168.93 459.15 167.75 456.83 165.83 454.09 163.76 451.96 163.83 451.6 164.49 451.47 164.71 451.28 164.88 449.54 166.44 449.16 166.78 448.66 166.82 446.36 167 444.86 167.12 444.75 165.62 444.71 165.13 444.52 165.34 442.3 167.87 441.91 164.53 441.57 161.65 438.22 161.56 436.67 161.52 436.76 159.97 436.95 156.97 436.98 156.37 437.42 155.96 440.14 153.42 440.26 153.31 440.4 153.23 445.41 150.29 447.46 147.58 447.59 147.42 447.76 147.29 453.51 142.95 457.9 138.44 457.95 138.39 458.01 138.34 462.54 134.53 462.67 134.42 462.81 134.34 470.47 130.36 470.88 130.15 471.35 130.2 480.11 131.29 482.11 131.23 485.85 131.17 489.58 130.65 492.85 129.72 492.97 129.69 493.08 129.67 498.83 129 499.07 128.98 499.3 129.02 502.37 129.63 502.57 129.67 502.75 129.76 505.6 131.21 507.01 131.93 506.28 133.18 506.75 133.11 511 132.39 511.11 132.37 511.22 132.37 513.97 132.31 515.29 131.99 515.26 131.64 514.96 128.21 514.89 127.46 515.46 126.96 521.43 121.64 521.54 121.53 521.67 121.46 524.36 119.91 526.33 116.52 526.72 115.85 527.49 115.78 534.19 115.17 534.57 115.14 534.92 115.28 537.62 116.44 537.75 116.5 537.88 116.58 539.33 117.58 540.22 118.19 539.92 119.23 539.74 119.84 541.15 120.81 541.53 121.07 543.55 120.18 549.61 117.31 550.3 114.05 550.47 113.27 551.22 112.97 556.52 110.86 557.07 110.64 557.61 110.85 559.23 111.46 561.4 112.29 559.76 113.93 557.02 116.67 556.43 119.73 556.38 120.02 556.21 120.27 555.01 122.08 554.82 122.37 554.53 122.54 551.33 124.45 548.17 126.61 544.96 130.16 544.92 130.21 544.87 130.26 537.33 137.2 537.25 137.28 537.16 137.34 530.46 141.93 530.21 142.1 529.92 142.16 527 142.76 525.86 146.84 525.84 146.92 525.81 146.99 522.22 155.96 524.4 170.65 525.62 177.42 525.93 178.24 528.49 176.04 530.22 174.06 531.03 170.27 531.16 169.68 531.65 169.34 534.19 167.62 536.69 163.83 536.78 163.69 536.91 163.57 540.72 159.93 547.39 150.64 546.28 137.5 546.22 136.83 546.68 136.35 550.14 132.71 550.29 132.54 550.49 132.43 558.53 127.94 562.5 124.15 564.38 122.34 564.99 124.89 565.38 126.51 567.44 125.33 567.73 125.17 568.07 125.14 578.26 124.35 578.88 124.3 579.36 124.7 581.12 126.22 581.86 125.17 582.06 124.89 582.36 124.72 588.23 121.42 590.58 119.83 592.94 118.26 593.05 118.19 593.16 118.14 600.02 115.06 608.51 110.91 608.67 110.83 608.84 110.79 610.49 110.43 610.84 110.35 611.18 110.44 614.55 111.29 617.34 111.06 617.29 109.58 615.17 106.2 612.58 102.5 610.43 101.16 610.25 101.05 610.1 100.89 608.84 99.49 608.81 99.45 608.78 99.41 608.42 98.95 607.74 98.09 608.36 97.18 609.33 95.77 610.31 94.35 611.58 95.51 613.29 97.07 616.99 96.84 621.72 94.42 622.36 93.26 621.81 91.44 621.71 91.12 621.76 90.78 622.06 88.79 622.15 88.26 622.55 87.9 624.05 86.56 624.45 86.21 624.98 86.18 627.15 86.08 629.17 85.99 628.68 87.95 628.27 89.56 629.05 91.04 632.4 91.14 632.62 91.14 632.83 91.21 639.13 93.29 650.32 95.26 655.13 85.2 632.79 75.78"/></g></g></svg>