<svg xmlns="http://www.w3.org/2000/svg" xmlns:xlink="http://www.w3.org/1999/xlink" viewBox="0 0 50.89 15.23"><defs><style>.cls-1{fill:#c6c6c6;}</style><symbol id="Новый_символ_4" data-name="Новый символ 4" viewBox="0 0 50.89 15.23"><path class="cls-1" d="M21.42,15.23c-2.34,0-4.25-2.19-6.26-4.51C12.76,8,10.29,5.11,6.8,5.11S1.21,7,1.21,10.09A3.94,3.94,0,0,0,5.14,14a3.08,3.08,0,0,0,3.08-3.08A2.39,2.39,0,0,0,5.83,8.56a.6.6,0,0,1,0-1.21,3.6,3.6,0,0,1,3.6,3.6,4.29,4.29,0,0,1-4.29,4.29A5.15,5.15,0,0,1,0,10.09C0,6.33,2.67,3.91,6.8,3.91s6.82,3.2,9.27,6C17.9,12,19.62,14,21.42,14s2.82-.89,2.82-2.27A1.29,1.29,0,0,0,23,10.36a.91.91,0,0,0-.91.78.6.6,0,0,1-1.21,0,2.11,2.11,0,0,1,2.11-2,2.48,2.48,0,0,1,2.47,2.6C25.44,13.49,24.2,15.23,21.42,15.23Z"/><path class="cls-1" d="M29.47,15.23c2.34,0,4.25-2.19,6.26-4.51C38.12,8,40.6,5.11,44.09,5.11s5.59,1.91,5.59,5A3.94,3.94,0,0,1,45.75,14a3.08,3.08,0,0,1-3.08-3.08,2.39,2.39,0,0,1,2.39-2.39.6.6,0,0,0,0-1.21,3.6,3.6,0,0,0-3.6,3.6,4.29,4.29,0,0,0,4.29,4.29,5.15,5.15,0,0,0,5.14-5.14c0-3.76-2.67-6.19-6.8-6.19s-6.82,3.2-9.27,6C33,12,31.26,14,29.47,14s-2.82-.89-2.82-2.27a1.29,1.29,0,0,1,1.26-1.39.91.91,0,0,1,.91.78.6.6,0,1,0,1.21,0,2.11,2.11,0,0,0-2.11-2,2.48,2.48,0,0,0-2.47,2.6C25.44,13.49,26.69,15.23,29.47,15.23Z"/><path class="cls-1" d="M24.47,5.94C24.47,3.88,25.53,1,25.53,0c0,1,1.06,3.88,1.06,5.94C26.59,9,24.47,9,24.47,5.94Z"/><path class="cls-1" d="M34,5.69a.94.94,0,0,1,1.56,1,.94.94,0,0,1-1.56-1Z"/><path class="cls-1" d="M31,4.2a.94.94,0,0,1,1.7.77A.94.94,0,0,1,31,4.2Z"/><path class="cls-1" d="M27.77,3.13a.94.94,0,1,1,.64,1.11A.92.92,0,0,1,27.77,3.13Z"/><path class="cls-1" d="M21.49,3.67a.94.94,0,0,1,1.79-.54.94.94,0,0,1-1.79.54Z"/><path class="cls-1" d="M18.39,5a.94.94,0,0,1,1.7-.77.94.94,0,0,1-1.7.77Z"/><path class="cls-1" d="M15.52,6.73a.94.94,0,0,1,1.56-1,.94.94,0,0,1-1.56,1Z"/></symbol></defs><title>sep</title><g id="Слой_2" data-name="Слой 2"><g id="Слой_1-2" data-name="Слой 1"><use width="50.89" height="15.23" xlink:href="#Новый_символ_4"/></g></g></svg>