<svg xmlns="http://www.w3.org/2000/svg" viewBox="0 0 180.1 20.38"><defs><style>.cls-1{fill:#111;}</style></defs><title>sep_top</title><g id="Слой_2" data-name="Слой 2"><g id="Слой_1-2" data-name="Слой 1"><path class="cls-1" d="M135.64,3.52c-2.45,0-4.3,1.43-5.77,3.27a3.43,3.43,0,0,0-2.66-3.51,2.85,2.85,0,0,0-3.46,1.91,2,2,0,0,0,.12,1.54c.17.38.14.41-.08.74-.09.14-.3.16.14.14a1.58,1.58,0,0,0,1.33-1.1c.2-.63-.18-1.42-.95-1.24a2.45,2.45,0,0,1,3.1-1.09,2.79,2.79,0,0,1,1.59,3c-.26,3-3.88,4-6.36,3.89a12.34,12.34,0,0,1-4.33-1c-1.38-.61-2.64-1.44-4-2.18a18.85,18.85,0,0,0-8-2.49,15.07,15.07,0,0,0-8.49,1.48,5.48,5.48,0,0,0-.12-5.07A3.84,3.84,0,0,0,93.32.18a2.85,2.85,0,0,0-1.93,3.71A1.82,1.82,0,0,0,93.18,5c.79-.07,1-.5,1.34-1.15.08-.18.15-.31.35-.36a1.47,1.47,0,0,1,.42.07c.13-.17-.48-.52-.61-.57-.74-.31-2.15,0-2.06,1a1.48,1.48,0,0,1-.34-2A2.34,2.34,0,0,1,94.07.9a3.1,3.1,0,0,1,3.42,2.81,5.12,5.12,0,0,1-1.7,4.53,18.47,18.47,0,0,0-3.66,3.94A15.43,15.43,0,0,0,90,16.67a10.75,10.75,0,0,0-.38,2.24c0,.28-.09.68.18.86a.45.45,0,0,0,.63-.18c.26-.34.44-.76.67-1.11a22.1,22.1,0,0,1,1.7-2.28,12.89,12.89,0,0,1,7.11-4.67,1.13,1.13,0,0,0,1.72,1c.21-.1.43-.3.67-.29a1.37,1.37,0,0,1,.63.5c.39-.21-.48-1.46-.62-1.61a2.3,2.3,0,0,0-2.15-.56c-4,.44-7.28,3.76-9.46,6.93,1.52-6.86,8.86-13,16.05-10.87a6.85,6.85,0,0,1,5.06,5.76c.35,2.9-1,6.45-4.17,7a3.74,3.74,0,0,1-4.16-1.79,2.55,2.55,0,0,1,.06-2.33c.48-.78,1.62-1.18,2.21-.27-1,.34-.47,1.66.17,2.08.12.08.87.42,1,.2,0-.06-.23-.15-.27-.21-.18-.22-.08-.4,0-.62a2,2,0,0,0-2.73-2.64c-1.72.81-1.9,3.1-1,4.57a4.71,4.71,0,0,0,4.75,1.88,6,6,0,0,0,4.58-4A5.46,5.46,0,0,0,115.34,20a5,5,0,0,0,4.84-.51c1.35-1,2.16-3,1-4.45a2.49,2.49,0,0,0-2.29-.89,1.79,1.79,0,0,0-1.44,1.74c0,.37.45.73.33,1.09s-.68.5.08.37,1.86-1.59.87-2.22c.76-.49,1.78.22,2,1a2.28,2.28,0,0,1-.57,2.22,4,4,0,0,1-4.28,1,4.44,4.44,0,0,1-2.7-2.86c-.57-1.62-.28-3.33-.67-5a7.49,7.49,0,0,0-3.41-4.66c2.9.71,5.26,2.39,7.87,3.75a12.17,12.17,0,0,0,8.22,1.37A7,7,0,0,0,128.57,10c.86-.88,1.43-2,2.22-3a6.17,6.17,0,0,1,5-2.63,2.75,2.75,0,0,1,2.51,2c.28,1-.2,2.8-1.61,2.43.74-.62.09-1.76-.58-2.13-.13-.07-.83-.34-.94-.16s.36.28.38.51-.31.66-.34,1a1.56,1.56,0,0,0,.32,1,1.78,1.78,0,0,0,1.93.63c1.65-.42,2.12-2.27,1.61-3.73A3.62,3.62,0,0,0,135.64,3.52Z"/><path class="cls-1" d="M44.46,3.52c2.45,0,4.3,1.43,5.77,3.27a3.43,3.43,0,0,1,2.66-3.51A2.85,2.85,0,0,1,56.35,5.2a2,2,0,0,1-.12,1.54c-.17.38-.14.41.08.74.09.14.3.16-.14.14a1.58,1.58,0,0,1-1.33-1.1c-.2-.63.18-1.42.95-1.24a2.45,2.45,0,0,0-3.1-1.09,2.79,2.79,0,0,0-1.59,3c.26,3,3.88,4,6.36,3.89a12.34,12.34,0,0,0,4.33-1c1.38-.61,2.64-1.44,4-2.18a18.85,18.85,0,0,1,8-2.49,15.07,15.07,0,0,1,8.49,1.48,5.48,5.48,0,0,1,.12-5.07A3.84,3.84,0,0,1,86.79.18a2.85,2.85,0,0,1,1.93,3.71A1.82,1.82,0,0,1,86.92,5c-.79-.07-1-.5-1.34-1.15-.08-.18-.15-.31-.35-.36a1.47,1.47,0,0,0-.42.07c-.13-.17.48-.52.61-.57.74-.31,2.15,0,2.06,1a1.48,1.48,0,0,0,.34-2A2.34,2.34,0,0,0,86,.9a3.1,3.1,0,0,0-3.42,2.81,5.12,5.12,0,0,0,1.7,4.53A18.47,18.47,0,0,1,88,12.19a15.43,15.43,0,0,1,2.11,4.48,10.74,10.74,0,0,1,.38,2.24c0,.28.09.68-.18.86a.45.45,0,0,1-.63-.18c-.26-.34-.44-.76-.67-1.11a22.12,22.12,0,0,0-1.7-2.28,12.89,12.89,0,0,0-7.11-4.67,1.13,1.13,0,0,1-1.72,1c-.21-.1-.43-.3-.67-.29a1.37,1.37,0,0,0-.63.5c-.39-.21.48-1.46.62-1.61a2.3,2.3,0,0,1,2.15-.56c4,.44,7.28,3.76,9.46,6.93-1.52-6.86-8.86-13-16.05-10.87a6.85,6.85,0,0,0-5.06,5.76c-.35,2.9,1,6.45,4.17,7a3.74,3.74,0,0,0,4.16-1.79,2.55,2.55,0,0,0-.06-2.33c-.48-.78-1.62-1.18-2.21-.27,1,.34.47,1.66-.17,2.08-.12.08-.87.42-1,.2,0-.06.23-.15.27-.21.18-.22.08-.4,0-.62a2,2,0,0,1,2.73-2.64c1.72.81,1.9,3.1,1,4.57a4.71,4.71,0,0,1-4.75,1.88,6,6,0,0,1-4.58-4A5.46,5.46,0,0,1,64.77,20a5,5,0,0,1-4.84-.51c-1.35-1-2.16-3-1-4.45a2.49,2.49,0,0,1,2.29-.89,1.79,1.79,0,0,1,1.44,1.74c0,.37-.45.73-.33,1.09s.68.5-.08.37-1.86-1.59-.87-2.22c-.76-.49-1.78.22-2,1a2.28,2.28,0,0,0,.57,2.22,4,4,0,0,0,4.28,1,4.44,4.44,0,0,0,2.7-2.86c.57-1.62.28-3.33.67-5A7.49,7.49,0,0,1,71,6.76c-2.9.71-5.26,2.39-7.87,3.75a12.17,12.17,0,0,1-8.22,1.37A7,7,0,0,1,51.53,10c-.86-.88-1.43-2-2.22-3a6.17,6.17,0,0,0-5-2.63,2.75,2.75,0,0,0-2.51,2c-.28,1,.2,2.8,1.61,2.43-.74-.62-.09-1.76.58-2.13.13-.07.83-.34.94-.16s-.36.28-.38.51.31.66.34,1a1.56,1.56,0,0,1-.32,1,1.78,1.78,0,0,1-1.93.63C41,9.22,40.5,7.38,41,5.92A3.62,3.62,0,0,1,44.46,3.52Z"/><path class="cls-1" d="M54.73,15.73,0,15.19l54.73-.53a.53.53,0,1,1,0,1.06Z"/><path class="cls-1" d="M180.1,15.19l-54.73.53a.53.53,0,1,1,0-1.06h0Z"/></g></g></svg>