<svg xmlns="http://www.w3.org/2000/svg" viewBox="0 0 68.73 37.98"><defs><style>.РЎС‚РёР»СЊ-РіСЂР°С„РёРєРё-11{fill:#d9a65f;}</style></defs><title>ukraine</title><g id="Слой_2" data-name="Слой 2"><g id="Слой_1-2" data-name="Слой 1"><polygon class="РЎС‚РёР»СЊ-РіСЂР°С„РёРєРё-11" points="53.48 27.66 53.65 27.55 53.85 27.49 59.04 25.92 61.35 25.27 61.39 24.41 61.42 23.67 62.04 23.25 65.2 21.07 65.61 20.8 66.09 20.81 68.29 20.87 68.5 20.16 67.93 19.18 67.22 17.97 68.37 17.18 68.46 17.13 67.79 16.34 68.44 15.4 68.72 14.98 67.9 14.47 64.75 13.64 61.47 13.11 60.91 13.02 60.55 12.59 59.24 11.01 57.75 11.13 55.68 11.31 55.29 11.35 54.93 11.18 52.94 10.28 52.9 10.26 52.86 10.24 51.32 9.42 50.93 9.22 50.72 8.84 49.23 6.23 46.87 5.66 46.12 5.48 45.83 4.76 44.92 2.5 44.86 2.35 44.84 2.2 44.49 0.23 42.36 0 40.09 0.07 38.5 0.91 37.87 1.24 37.22 0.97 36.53 0.68 34.84 1.02 32.87 3.18 32.23 4.35 31.78 5.19 30.82 5.13 27.08 4.88 26.9 4.87 26.72 4.82 24.22 4.02 21.73 3.79 21.7 3.79 21.67 3.79 18.89 3.43 15.13 2.82 8.67 2.04 6.45 3.35 6.24 3.47 6.01 3.52 5.36 3.67 6.86 7.35 7.28 8.38 6.41 9.09 4.67 10.48 1.38 13.85 1.45 16.02 1.46 16.46 1.23 16.84 0 18.87 0.95 19.91 1.03 19.97 2.06 19.88 2.25 19.87 2.45 19.9 6.55 20.63 6.63 20.64 6.72 20.67 8.73 21.27 10.13 20.89 10.23 20.87 10.34 20.85 12.12 20.65 14.16 19.57 14.27 19.51 14.38 19.48 19.33 17.79 19.96 17.57 20.54 17.89 23.8 19.7 23.89 19.75 23.97 19.81 26.87 21.99 27.1 22.16 27.25 22.4 29.78 26.5 29.86 26.64 29.91 26.78 30.88 29.44 30.91 29.53 32.31 27.89 32.68 27.46 33.23 27.38 37.76 26.71 39.23 26.5 39.46 27.96 39.71 29.53 45.26 30.34 48.51 30.81 53.48 27.66"/><polygon class="РЎС‚РёР»СЊ-РіСЂР°С„РёРєРё-11" points="48.09 33.24 50.76 35.92 50.73 35.92 50.55 36 46.75 37.64 45.29 37.98 45.22 36.62 45.16 35.72 44.34 35.34 42.94 34.71 45.77 33.13 47.19 32.34 48.09 33.24"/></g></g></svg>