<svg xmlns="http://www.w3.org/2000/svg" viewBox="0 0 233.06 111.35"><defs><style>.cls-1{fill:#d9a65f;}</style></defs><title>usa</title><g id="Слой_2" data-name="Слой 2"><g id="Слой_1-2" data-name="Слой 1"><polygon class="cls-1" points="230.16 10.05 226.53 9.01 221.95 15.39 221.89 15.48 221.82 15.55 216.75 20.86 216.31 21.32 215.68 21.33 202.17 21.44 198.25 24.4 198.57 24.86 197.01 25.64 189.05 29.62 188.8 29.75 188.52 29.77 186.83 29.93 186.84 30 186.96 30.82 186.32 31.36 185.11 32.37 185.03 32.44 184.93 32.5 175.58 38.25 175.06 38.57 174.47 38.44 166.32 36.63 166.22 33.72 169.3 32.82 169.61 32.73 169.25 30.95 168.11 27.08 165.08 27.59 162.89 27.95 163.37 25.78 164.64 19.98 160.54 19.51 157.37 21.86 156.36 29.91 156.33 30.16 156.22 30.38 153.32 36.36 151.83 39.43 150.58 36.26 147.5 28.47 147.36 28.11 147.41 27.73 148.31 20.66 148.38 20.09 148.82 19.71 154.98 14.46 155.28 14.21 155.67 14.13 160.08 13.29 158.14 12.45 150.99 13.82 150.29 13.95 149.75 13.5 146.67 10.96 146.5 10.82 146.38 10.64 145.61 9.49 137.51 12.82 137.11 12.99 136.69 12.91 131.43 12.01 127.64 11.36 130.88 9.27 137.04 5.3 135.88 5.13 132.34 4.52 132.19 4.5 132.04 4.44 128.91 3.21 125.42 3.09 125.19 3.09 124.98 3.01 121.48 1.81 120.92 1.62 120.65 1.1 120.06 0 119.62 0.57 118.88 0.58 8.41 1.17 8.93 4.21 8.98 4.56 8.88 4.9 7.61 9.07 6.07 14.15 4.73 9.01 4.18 6.93 4.18 6.89 4.17 6.86 3.67 4.53 3.4 4.03 0 4.02 1.4 7.67 3.27 11.43 3.49 11.73 3.49 12.07 3.49 13.43 3.49 13.59 3.38 13.75 2.55 17.35 1.9 27.29 1.89 27.37 1.87 27.45 0.83 33.51 2.13 39.84 2.14 39.93 2.15 40.02 2.59 45.25 3.75 50.12 6.59 53.37 8.64 55.61 8.73 55.7 8.8 55.81 10.43 58.35 10.59 58.6 10.65 58.91 11.11 61.64 15.07 65.93 15.2 66.07 15.28 66.23 17.11 69.56 21.56 71.39 24.87 72.09 25.38 72.19 25.71 72.59 29.51 77.12 29.69 77.33 29.78 77.58 30.29 79.02 38.48 77.94 38.95 77.88 39.38 78.11 43.82 80.47 54.01 84.02 64.64 83.93 65.54 82.55 65.99 81.75 66.73 81.75 73.11 81.75 73.69 81.75 74.11 82.35 78.76 86.62 78.84 86.75 78.92 86.87 81.53 90.07 81.61 90.19 81.68 90.31 82.91 92.52 86.18 94.19 88.61 91.33 89.41 90.37 90.5 91 97.75 95.15 98.04 95.32 98.23 95.59 102.1 101.11 102.24 101.3 102.31 101.52 103.25 104.52 104.1 106.38 108.35 107.89 107.77 105.31 107.69 104.96 107.78 104.61 108.77 100.71 108.89 100.25 109.26 99.94 112.25 97.41 112.45 97.24 112.69 97.14 114.89 96.33 118.68 93.15 118.86 93 119.08 92.91 120.94 92.14 123.36 90.59 123.79 90.31 124.3 90.36 126.38 90.53 126.49 90.54 126.59 90.57 128.44 90.99 131.64 91.08 131.95 91.08 132.23 91.22 134.84 92.43 137.43 93.18 138.63 92.22 139.51 91.52 139.97 91.84 139.61 90.85 140.78 90.24 144.31 88.43 144.49 88.34 144.68 88.3 147.58 87.67 148.2 87.53 148.73 87.89 149.9 88.67 154.79 88.1 155.36 88.03 155.83 88.36 159.35 90.88 161.45 91.22 164.9 90.06 165.83 89.75 166.49 90.48 170.56 95.01 170.94 95.43 170.95 95.98 171.03 100.31 172.64 104.13 174.21 108.21 176.52 111.12 177.81 111.34 179.01 108.17 176.88 100.4 175.71 96.54 173.44 88.55 173.27 87.94 173.58 87.4 178.38 78.89 178.58 78.53 178.94 78.32 182.39 76.33 185.61 73.21 185.84 72.98 186.13 72.88 188.4 72.04 192.05 69.53 192.32 67.47 192.37 67.12 192.57 66.82 193.57 65.37 194.05 64.67 194.9 64.72 196.63 64.84 196.86 64.28 196.24 63.62 196.1 63.47 196.01 63.29 194.56 60.48 194.41 60.19 194.39 59.86 194.32 58.34 191.98 55.27 191.14 54.16 192.18 53.24 193.38 52.17 193.95 47.23 194.11 45.75 195.44 45.75 196.8 45.75 198.44 45.75 198.29 47.55 197.95 51.38 198.16 52.37 198.48 49.73 198.66 48.04 198.79 46.78 200.05 46.7 202.03 46.58 203.84 42.36 204.05 41.87 204.53 41.62 206.79 40.44 206.93 40.37 207.01 40.35 206.76 38.53 213.07 36.54 214.83 35.02 215.31 34.61 215.93 34.66 217.09 34.75 216.75 33.75 216.6 33.32 216.72 32.88 217.26 30.8 217.31 30.6 217.42 30.41 220.05 25.98 220.24 25.66 220.55 25.46 222.75 24.11 225.62 21.24 226.08 20.78 226.73 20.8 231.28 20.97 233.06 19.63 230.16 10.05"/></g></g></svg>